<?xml version="1.0" encoding="UTF-8"?>
<svg width="2202px" height="1483px" viewBox="0 0 2202 1483" version="1.1" xmlns="http://www.w3.org/2000/svg" xmlns:xlink="http://www.w3.org/1999/xlink">
    <title>logo</title>
    <defs>
        <linearGradient x1="2.18199554%" y1="35.3087076%" x2="97.7884773%" y2="62.5811544%" id="linearGradient-1">
            <stop stop-color="#00A4FF" offset="0%"></stop>
            <stop stop-color="#0086FF" offset="31.8468993%"></stop>
            <stop stop-color="#037FFF" offset="35.2725695%"></stop>
            <stop stop-color="#047DFF" offset="73.1668613%"></stop>
            <stop stop-color="#00A0FF" offset="89.4690748%"></stop>
            <stop stop-color="#00A0FF" offset="100%"></stop>
        </linearGradient>
    </defs>
    <g id="Symbols" stroke="none" stroke-width="1" fill="none" fill-rule="evenodd">
        <g id="Backround-+-Divider-Top-v-cover-v1" transform="translate(-425.000000, -10.000000)" fill="url(#linearGradient-1)">
            <path d="M2305.29565,431.725167 C2342.26296,473.706056 2446.62802,530.151391 2550.94986,477.230864 C2558.66235,499.913104 2567.13772,533.533146 2569.11335,552.027424 C2571.81399,577.308722 2588.18502,571.021784 2587.53671,637.050461 C2587.04311,687.322784 2564.33433,698.418479 2562.32969,721.628532 C2558.52387,717.548294 2549.06787,727.764586 2543.10625,727.764586 C2536.68219,727.764586 2534.71104,740.315994 2534.25394,754.838714 L2534.22731,755.748855 C2534.21908,756.053028 2534.21147,756.35796 2534.20447,756.663556 L2534.20447,756.663556 L2534.18291,757.707795 C2534.15073,759.452014 2534.13708,761.214169 2534.13708,762.97671 C2534.13708,780.602123 2538.41904,767.821018 2546.02327,767.821018 C2552.65472,767.821018 2561.39147,751.525302 2563.51827,735.666424 C2564.42884,739.558134 2565.8456,743.8299 2567.86764,748.601219 C2587.81798,795.677136 2577.50424,825.765229 2570.74239,903.04093 C2563.98054,980.316631 2542.28007,1011.20958 2538.77278,1031.10075 C2535.26549,1050.99192 2543.14229,1080.15648 2531.09663,1112.81937 C2519.05097,1145.48226 2483.16402,1153.53948 2437.07816,1151.36782 C2411.42634,1150.15905 2377.41162,1152.23244 2321.36493,1134.64781 C2301.04301,1186.7581 2287.28713,1219.14238 2280.09254,1231.79837 C2231.50031,1317.27691 2261.12215,1315.75035 2267.03235,1357.43937 C2292.66365,1538.23584 2153.55188,1520.13095 1994.61167,1408.63175 C1835.67146,1297.13254 1866.43412,1217.32288 1870.61302,1206.46074 C1884.86795,1169.40815 1948.25371,1193.62068 2007.54186,999.341399 C2060.42808,977.718872 2086.26059,944.53427 2095.95762,933.246368 C2143.43196,867.919871 2154.0024,817.568835 2127.67016,782.194374 C2102.39895,748.24529 2047.6504,772.951259 2037.55888,807.9496 C2028.75857,838.469908 2069.4789,835.76653 2059.32674,817.963169 C2082.2071,817.50844 2077.54148,847.262793 2039.26973,838.754086 C1972.6006,823.931975 1960.77737,768.344173 1959.87332,706.563874 C1959.76357,699.063913 1958.48108,691.71521 1957.04783,684.352782 L1956.75948,682.880065 C1956.51801,681.652566 1956.27425,680.424381 1956.03292,679.194745 L1955.74481,677.718437 L1955.46084,676.240443 L1955.20283,674.868177 C1952.95067,662.738292 1951.46916,650.381859 1955.2513,637.073563 C1962.33144,612.160512 2003.51391,639.336825 2012.97633,694.575695 C2018.69207,727.942525 2016.02145,775.99824 2010.91393,806.418219 C2079.21995,768.937119 2156.60929,588.703954 2113.98807,513.03629 C2172.17658,495.291674 2264.25484,512.984733 2305.29565,431.725167 Z M1874.83274,1006.66734 C1904.67738,1023.50177 1939.7829,1024.62435 1980.14929,1010.03506 C1960.61773,1084.7047 1931.68986,1133.42617 1893.36569,1156.19946 C1740.23563,1247.19363 1705.96882,1068.6362 1858.35219,1083.4496 C1746.42329,1116.66831 1850.46623,1192.38953 1897.786,1095.80906 C1930.11585,1029.82327 1767.91298,1029.54851 1677.91702,1166.07112 C1620.17323,1253.66766 1555.57105,1294.6364 1484.11051,1288.97733 C1541.86982,1275.90893 1568.80255,1244.29254 1564.90872,1194.12817 C1561.06203,1144.57126 1595.8598,1116.87612 1621.50312,1139.40647 C1590.53168,1143.53602 1599.00594,1179.31656 1631.19994,1169.27743 C1660.67531,1160.08605 1654.21657,1101.60314 1591.22059,1113.81515 C1564.30091,1119.03363 1548.39811,1159.02351 1543.51219,1233.78481 C1529.59438,1146.67733 1535.82088,1087.78871 1562.19169,1057.11894 C1601.74755,1138.2372 1738.45242,1090.91457 1874.83274,1006.66734 Z M1485.82715,1067.15265 C1479.92478,1081.94584 1478.43495,1099.80872 1480.35764,1118.80093 C1471.64358,1102.41745 1437.53888,1109.7665 1436.77052,1137.21746 C1435.94123,1166.84537 1478.82134,1170.8558 1482.41813,1133.25229 C1482.27755,1164.67397 1473.96219,1191.10467 1447.79685,1206.50486 C1424.51775,1220.20628 1393.90591,1200.95237 1404.28636,1177.67765 C1399.96463,1191.16342 1418.24593,1193.7604 1423.50527,1181.10045 C1433.54082,1156.9435 1400.94372,1146.85074 1383.46672,1163.17462 C1355.44728,1189.34536 1379.72968,1236.42027 1424.55692,1236.49975 C1440.43031,1236.52789 1456.35827,1225.89502 1465.52418,1222.32322 C1496.12015,1210.40045 1496.03584,1244.34484 1474.81389,1244.89714 C1488.33622,1234.09734 1468.10491,1222.86272 1459.03053,1237.05916 C1443.19617,1261.83126 1497.95105,1282.83693 1505.70174,1237.82887 C1509.36204,1216.57361 1483.65481,1206.31542 1494.51479,1166.01324 C1498.93771,1199.0045 1566.60292,1251.77392 1491.58693,1273.11205 C1458.46802,1282.53265 1400.17805,1279.46207 1344.6304,1198.92873 C1296.92624,1129.76692 1197.57513,1192.11903 1259.16345,1217.5001 C1300.53516,1234.54973 1297.88933,1189.36788 1273.98695,1193.17368 C1333.28736,1166.15805 1351.7428,1235.90017 1299.05678,1239.41101 C1172.33735,1247.85522 1005.67265,1184.18676 917.026994,1112.31915 C1135.67862,1243.11992 1431.47494,1119.06954 1485.82715,1067.15265 Z M900.862848,369.28495 C1006.92543,413.88014 1116.87092,524.553663 1188.8694,526.313254 C1217.13149,495.123443 1279.9115,415.895095 1426.80984,375.755934 C1749.85298,287.486185 1516.69511,593.430743 1209.54372,564.218351 C1188.7561,592.347388 1253.50013,600.785025 1322.91388,603.763436 C1405.2028,607.294296 1383.75811,652.848015 1255.09777,668.337781 C899.781146,711.115305 887.676216,1011.83992 1102.95008,1012.31248 C1177.00248,1012.47504 1225.85213,980.939715 1251.45304,941.312821 L1252.18409,940.166759 L1244.45959,944.728908 C990.886892,1089.94492 903.539221,692.088736 1237.65608,751.801081 C1241.27985,752.44871 1244.68871,753.189481 1247.88603,754.009391 C1256.48057,755.850233 1265.16174,758.575395 1273.45654,762.331488 C1299.31699,774.041752 1319.46016,790.571127 1333.68135,809.998536 L1334.20309,810.715759 L1335.48488,809.118165 C1377.99648,755.967418 1418.95902,692.016591 1487.78413,646.450633 C1564.21922,595.846457 1592.43976,603.149025 1572.44576,668.358337 C1653.18369,574.277674 1741.8101,503.905053 1838.325,457.240474 C1983.09735,387.243606 2021.31939,476.387006 1803.01605,701.068255 C1744.32684,761.472124 1657.61811,832.183902 1634.77901,929.4019 C1665.88534,912.83908 1754.56456,847.240317 1873.81138,844.941181 C2018.7153,842.147363 1908.5525,985.432628 1745.31004,1046.73668 C1635.87224,1087.83493 1580.20405,1072.64045 1568.49117,1019.50002 C1520.82482,1067.74455 1517.69673,1113.67597 1521.65877,1174.80554 C1463.73571,1062.54347 1561.1973,984.970394 1567.86328,976.1353 C1569.57297,966.639223 1574.55438,930.609857 1613.12869,855.292833 C1644.23783,794.551665 1698.0594,717.721273 1774.38068,635.809603 C1926.61306,472.426502 1729.33868,580.090198 1619.60984,697.655198 C1472.03819,855.765499 1440.839,1043.39493 1448.20419,820.42289 C1450.08319,763.53832 1463.33948,779.25849 1502.84683,715.927971 C1530.62418,671.400702 1430.82677,769.419841 1373.68846,834.010591 C1367.91056,840.542097 1362.17991,846.812861 1356.49835,852.8301 L1354.82209,854.598759 L1355.59386,857.766357 C1379.83632,963.007264 1273.41108,1099.60402 1015.9013,1075.94023 C712.128349,1048.0251 821.490037,613.07695 1207.62404,631.414821 C1159.22894,624.548096 1150.10691,585.905461 1167.95601,559.481514 C1053.48336,545.42824 858.492059,375.763491 713.449969,437.367934 C630.156227,472.745697 652.05013,566.149788 618.270933,602.412608 C607.958528,613.483235 602.36349,598.700625 597.053965,582.534675 L596.711767,581.490035 C596.597804,581.141344 596.483928,580.792256 596.370097,580.443016 L595.858003,578.871222 L595.451409,577.625564 C594.502122,574.723046 593.547648,571.855373 592.562478,569.163387 C544.457788,437.716929 639.938275,259.576313 900.862848,369.28495 Z M1691.70958,694.718971 C1633.3139,759.963687 1584.55092,834.340699 1545.0133,951.743982 C1490.1538,1114.64415 1099.81147,1249.91698 844.723459,1050.31165 C738.416385,967.126804 652.717122,879.421097 794.143258,788.905808 C836.493457,761.800913 793.708759,742.485856 788.749922,768.159385 C776.408993,730.442994 852.096513,731.364431 819.401485,782.214343 C782.942618,838.918075 716.564491,864.860682 773.571934,953.334871 C728.762844,860.168463 818.222892,840.734963 834.797481,765.72499 C848.048586,705.755776 762.381122,716.384547 779.449121,772.779919 C734.847032,677.863529 908.439499,671.304717 846.631199,785.087075 C820.824243,832.594874 779.970061,935.218649 860.015138,1032.18444 C956.912896,1149.5654 1364.69095,1165.37886 1483.92389,943.701881 C1618.41521,693.656637 1795.61267,578.629439 1691.70958,694.718971 Z M1424.03191,817.519638 C1421.69495,853.534213 1425.7311,880.735025 1424.52244,899.824968 C1423.08455,922.5353 1418.11429,934.496652 1409.34784,932.682571 C1397.1665,930.161829 1395.5446,899.889369 1407.99033,888.114097 C1400.80899,902.006704 1411.99771,914.113643 1416.10113,894.514724 C1419.69171,877.365195 1412.73288,857.026289 1405.22526,863.586613 C1387.23146,879.309994 1397.60216,947.8711 1403.21879,961.232186 C1412.18636,982.564664 1428.701,945.863416 1428.95448,924.913182 C1432.76427,955.270326 1433.52894,972.102618 1424.08417,985.649733 C1379.0481,1050.24731 1239.19142,1098.14518 1129.91648,1100.19958 C1271.92058,1084.63469 1328.36008,1031.99345 1356.81027,995.712565 C1385.26047,959.431682 1390.12484,903.276399 1383.93641,863.789195 C1392.95532,852.713311 1400.81112,844.012208 1408.57809,835.306379 L1410.18413,833.504325 C1414.73299,828.393891 1419.27678,823.225441 1424.03191,817.519638 Z M2540.18796,985.358581 C2535.75752,985.322558 2534.01815,986.421527 2532.4664,987.729744 L2532.4664,987.729744 L2532.11646,988.029756 L2532.11646,988.029756 L2531.76646,988.334547 L2531.48205,988.580206 C2531.36892,988.676969 2531.25405,988.7738 2531.13652,988.870361 L2530.95811,989.014959 C2528.12831,991.275833 2523.57961,993.294816 2505.48849,990.699745 C2492.14398,988.785551 2473.51473,994.278424 2454.9055,1000.53173 L2454.9055,1000.53173 L2453.26369,1001.08529 C2445.05629,1003.8613 2436.88314,1006.74727 2429.19978,1009.17245 C2403.58858,1017.25639 2447.93136,1011.34738 2478.76206,1002.45858 C2512.12098,992.840861 2502.0708,1007.72151 2529.24726,997.970702 C2537.61248,994.969295 2540.57436,985.36447 2540.57436,985.36447 L2540.57436,985.36447 Z M1716.14668,928.391619 C1669.03389,945.243575 1658.36958,958.094945 1628.47875,976.683628 C1628.83589,1026.78591 1732.36649,995.726028 1786.62854,967.562628 C1888.5426,914.666604 1815.39145,892.892369 1716.14668,928.391619 Z M1959.36754,554.209843 C1993.67393,607.039963 2032.68959,618.047041 2076.41452,587.231075 C2142.0019,541.007126 2078.37958,708.014582 2025.97589,780.093503 C2041.6904,714.336509 2033.01818,633.409638 1985.36496,614.289214 C1937.71175,595.168789 1928.7559,637.607382 1940.95932,685.698774 C1953.16274,733.790167 1926.00304,811.57732 2018.7285,848.983745 C2110.46673,885.991911 2102.55599,785.389126 2050.55762,809.031222 C2091.63401,745.142467 2154.65653,800.974286 2110.03479,880.070142 C2066.81168,956.686814 1973.70494,1021.27608 1891.05248,990.03216 C1936.96105,982.08732 1991.63987,959.538867 2000.06601,913.767074 C1985.28084,945.136888 1944.49281,961.667114 1910.70179,967.772575 C1970.91851,939.618204 1999.96272,838.067266 1937.40557,822.170733 C1849.79194,799.907045 1713.43111,855.198064 1684.72631,873.460966 C1703.21966,843.908702 1774.55044,753.573103 1824.76082,725.236361 C1893.6312,686.368664 1931.93457,779.881569 1854.80631,779.145421 C1880.9723,759.195537 1854.85403,734.59838 1831.30596,747.737481 C1810.55636,759.315118 1805.14506,793.959294 1844.46521,802.663795 C1945.88454,825.115504 1961.4562,672.858635 1853.77523,692.570168 C1888.90417,660.061305 1924.10161,613.941197 1959.36754,554.209843 Z M2497.25142,896.74197 L2496.87634,896.74127 C2484.34633,896.74127 2478.39037,901.709091 2478.39037,908.024201 C2478.39037,914.33931 2479.53975,911.093328 2492.06976,911.093328 C2504.59977,911.093328 2501.65588,908.176656 2510.45653,903.625496 C2519.25717,899.074336 2509.40635,896.74127 2496.87634,896.74127 Z M1177.21422,906.853416 C1216.10512,904.991914 1246.58974,892.237879 1272.91884,872.809327 C1273.54552,836.712108 1257.32831,804.296716 1225.55861,791.182244 L1225.26652,791.057401 C1095.65446,758.690739 1066.61616,912.14716 1177.21422,906.853416 Z M2541.17665,900.281154 C2535.97782,899.613116 2534.6954,900.726115 2537.96421,902.84999 C2541.23302,904.973864 2542.96825,908.541877 2544.19002,906.05627 C2545.41179,903.570663 2546.37549,900.949191 2541.17665,900.281154 Z M2330.98378,709.319996 C2302.51191,704.514215 2276,700.432003 2276,716.1169 C2276,740.299597 2325.18822,769.698613 2361.24882,769.698613 C2397.30942,769.698613 2417.61524,787.234747 2417.61524,763.05205 C2417.61524,738.869353 2411.14248,714.739757 2375.08187,714.739757 C2364.6243,714.739757 2351.89933,712.82181 2339.10154,710.688117 L2339.10154,710.688117 L2336.45341,710.244143 C2335.23545,710.039013 2334.0182,709.832992 2332.80355,709.627547 Z M1500.46187,518.518684 C1484.83492,538.651882 1473.6694,589.911442 1467.4627,609.103157 C1455.71282,645.434913 1403.09594,623.228081 1432.50467,593.034548 C1422.16429,619.166539 1475.83678,596.983212 1444.24286,575.163138 C1428.89372,564.562385 1404.65706,576.591179 1409.13174,609.140181 C1413.60642,641.689183 1437.82935,650.80295 1465.31652,638.181098 C1436.43403,664.701526 1364.9102,722.364946 1337.65131,775.275956 C1261.05048,721.329813 1162.49818,720.497273 1122.5705,729.22407 C1254.29322,657.647774 1279.78268,763.113465 1364.31424,688.328374 C1316.65992,711.169152 1269.48943,694.201255 1247.1478,686.025014 C1418.62678,673.299567 1410.11732,618.197299 1387.14419,601.354791 C1364.17105,584.512283 1346.07648,589.964168 1296.35645,584.235905 C1391.1745,578.620981 1442.96668,551.813695 1500.46187,518.518684 Z M674.555365,524.796714 C674.204227,559.813493 690.191686,596.229258 737.030167,607.108124 C783.868648,617.98699 823.650569,590.294716 852.232464,558.403701 C857.081466,583.61649 891.201975,638.917195 958.435944,649.387133 C944.690724,654.383811 905.103809,649.084363 894.055953,639.218514 C910.387292,661.328926 951.747976,657.624524 973.343229,652.955527 C934.728454,686.367771 894.06319,685.487592 880.031785,679.775349 C889.65781,695.376677 887.72389,721.474803 875.703448,738.171446 C877.571121,662.158749 746.794394,662.435508 759.278791,745.819159 C725.544478,695.062606 761.239594,648.135362 830.109859,658.976735 C908.047674,671.245498 892.723328,593.701644 807.026583,610.421396 C770.029627,617.639639 799.301995,638.475686 831.959013,635.349935 C840.491333,634.533268 845.365291,627.359596 835.293124,622.317016 C825.220958,617.274437 813.739112,621.46721 813.511888,626.891983 L813.511,626.888 L813.52104,626.603783 C814.117441,617.200691 843.712001,609.001889 858.11037,625.764931 L858.546343,626.285908 C866.637856,636.210927 857.203329,652.393579 820.398771,646.696453 C756.51042,636.806919 725.316646,668.579412 734.428487,713.527614 C716.515807,696.690108 721.159162,665.912999 728.795024,652.748404 C714.614247,661.776334 668.869974,683.547554 637.207256,676.20075 C677.623661,674.548581 718.72319,637.245342 699.766123,609.744361 C688.302928,593.114725 660.927086,591.239384 644.747175,614.633587 C631.188395,634.23795 651.934853,644.138603 660.931809,635.08139 C670.19728,625.753864 659.0123,615.130925 653.187262,628.143936 C649.07686,600.027844 699.703208,611.471818 673.713798,649.469616 C663.163766,664.894282 619.602384,682.044313 583.318239,657.708852 C596.577107,662.196161 613.40365,660.147213 620.451805,654.261021 C610.053656,656.321744 570.134123,663.286259 559.824815,620.530782 C570.606523,631.952476 589.472998,639.621818 606.962849,635.144393 C551.095491,625.414307 542.977853,574.922606 546.569695,526.316841 C551.104806,568.719602 589.84272,635.076444 622.600061,619.207521 C655.357402,603.338598 658.69433,570.130585 674.555365,524.796714 Z M892.995486,470.957418 C1009.75072,514.545852 1023.27435,537.067615 1112.12205,562.946129 C1077.24009,564.88742 1034.46905,605.081294 1023.35784,580.220356 C1016.96021,565.90586 1041.76938,558.538489 1036.19482,575.958405 C1059.91449,567.79171 1038.35269,538.095898 1016.47511,553.896507 C1005.87686,561.550861 997.404956,588.426044 1015.95146,601.055899 C1046.30062,621.723151 1105.23001,566.53978 1142.30421,575.215824 C1135.02948,592.73523 1138.91651,602.563559 1143.6169,610.489266 L1143.90859,610.97714 C1143.95735,611.058065 1144.00617,611.138801 1144.05505,611.219353 L1144.36761,611.731088 C1144.57632,612.070669 1144.78554,612.407176 1144.9944,612.741099 L1145.33082,613.27752 C1145.38679,613.366576 1145.4427,613.455463 1145.49854,613.544193 L1145.83249,614.074746 C1145.94341,614.251015 1146.05388,614.426727 1146.16378,614.601957 C1080.61149,622.097382 1022.28435,637.955228 967.135763,601.168418 C911.987176,564.381607 948.163131,519.770552 967.959423,552.57974 C959.466842,544.727411 951.284453,556.640358 960.388094,565.064377 C987.18657,589.86224 1012.37581,549.658323 964.237186,532.338315 C894.919346,507.398144 886.368781,627.112124 1035.14174,633.384229 C928.136389,647.237196 867.77862,606.405551 854.068428,510.889294 C849.578902,535.734758 840.008856,551.465096 825.35829,558.08031 C857.120316,487.167817 784.283031,453.743408 744.123377,485.030688 C703.963724,516.317968 728.58421,555.734252 754.027331,552.141153 C792.718146,546.677203 760.761028,505.188058 744.53898,532.898772 C725.854915,504.457215 782.929377,489.058317 798.621836,530.963565 C814.314296,572.868813 760.925697,617.25921 711.184347,575.640278 C661.442998,534.021346 688.252576,394.520397 892.995486,470.957418 Z M1589.81011,352.045068 C1705.89159,382.271862 1717.47338,503.222002 1620.72039,482.455562 C1687.48192,459.343503 1615.6457,424.428442 1598.1477,476.675996 C1578.47371,535.420839 1636.71592,519.590684 1661.7429,502.084761 C1671.4483,495.296007 1737.38975,445.075895 1696.64294,396.039482 C1734.35783,408.05484 1748.24677,427.862038 1738.30974,455.461076 C1757.69745,445.457729 1783.68743,444.044847 1816.27971,451.22243 C1743.14479,464.153868 1640.26866,546.154867 1603.50159,598.000636 C1594.82341,564.636748 1530.93971,583.450833 1484.83548,625.243641 C1509.86821,506.824786 1543.09942,496.293932 1586.35799,435.82174 C1629.61655,375.349548 1590.89546,365.693926 1589.81011,352.045068 Z M1961.57282,328.397325 C2072.99937,394.961828 2063.85715,453.344823 2107.82631,457.666227 C2155.13508,462.315857 2136.12644,397.985183 2096.77966,422.113908 C2134.4194,376.435628 2199.03049,407.944871 2182.56084,445.647387 C2151.96908,515.678394 2069.81947,482.328726 2042.07428,497.918321 C1990.69489,526.787617 2070.15973,576.103586 2095.31596,510.752747 C2108.14824,613.830872 1941.78508,591.159836 1990.06609,481.76343 C2005.68143,446.381774 2023.84736,364.641964 1869.95693,415.78737 C1767.36332,449.884307 1732.10927,423.785007 1764.1948,337.48947 C1775.95676,355.866001 1794.37456,358.78879 1819.4482,346.257837 C1856.99373,327.493864 1799.83429,296.129661 1682.04955,292.338464 C1800.13807,266.876833 1870.99695,274.288699 1961.57282,328.397325 Z M627.241958,205.942977 C528.097855,254.50384 590.371139,329.708477 667.480701,326.024486 C636.241896,337.890657 593.258286,361.370642 569.116815,425.681951 C544.975344,489.99326 564.474955,551.144819 573.038095,574.966315 C560.670196,551.725573 530.397601,484.749608 557.928147,406.899344 C538.345206,434.250533 529.475868,460.887097 531.320131,486.809036 C523.623556,464.323132 521.135824,443.476327 523.856934,424.268619 C481.489512,453.653555 405.017436,439.653893 429.852375,351.183347 C434.042644,386.656309 480.24988,390.497913 522.252405,374.937737 C399.576605,381.666024 434.537109,264.134317 494.541896,235.547411 C483.640628,254.115336 472.612931,317.062057 557.379218,325.689298 C457.810658,282.584479 527.809655,165.722046 627.241958,205.942977 Z M1410.3985,437.444186 C1352.09624,456.078385 1273.25593,500.301328 1238.6376,532.812824 C1259.15395,533.276737 1351.73396,526.331824 1439.06784,478.719454 C1496.23897,447.551107 1519.42152,402.598936 1410.3985,437.444186 Z M1312.4048,80.3684728 C1304.2734,113.617063 1239.10359,116.196418 1170.17224,211.238198 C1044.76915,384.14258 1114.55225,501.444329 1196.3454,463.778557 C1189.333,470.190702 1184.07383,498.945657 1138.51646,488.776534 C1168.38365,496.174399 1155.12373,500.390003 1175.94268,510.579325 C1078.72679,479.122355 1036.64052,408.72465 1058.2618,317.216094 C1037.38413,374.666616 1042.89019,420.430612 1074.77998,454.508081 C1042.55373,429.890474 1028.24317,399.100232 1031.84832,362.137355 C1039.57738,282.892721 1142.48068,228.348578 1120.92505,218.019108 C1106.69834,211.201657 1103.77376,197.775124 1112.1513,177.739507 L1112.407,177.131 L1112.29482,177.490296 C1108.85714,188.613719 1113.83263,196.475264 1127.2213,201.074929 C1108.26049,152.627 1150.22813,114.146837 1189.65105,135.117901 C1150.80198,133.46962 1149.07802,162.88083 1169.9389,161.270539 C1190.79978,159.660247 1226.28422,129.554287 1199.3382,118.076618 C1172.39218,106.598949 1142.35797,121.137995 1112.40863,100.515664 C1082.45928,79.8933338 1135.83545,49.6637552 1184.39868,52.8496198 C1155.10235,57.7199925 1120.67602,89.5729716 1198.71044,91.4182742 C1157.92952,84.2631605 1186.03628,42.3675336 1239.89824,66.2369381 C1193.63895,60.0525305 1231.57696,107.942022 1269.05944,78.2156917 C1294.70159,57.8795998 1234.16135,45.1509705 1192.73045,49.9871552 C1240.18929,39.4933334 1320.53621,47.1198826 1312.4048,80.3684728 Z M1317.76174,107.369014 C1274.12668,188.554869 1267.50205,298.262925 1371.84034,307.593961 C1476.17863,316.924997 1542.58276,306.685695 1563.634,342.865677 C1534.44258,336.661969 1467.99262,333.836094 1393.05864,358.814173 C1314.9412,384.853407 1237.12354,439.683614 1194.73581,492.690812 C1205.08399,467.107441 1208.15958,461.91803 1225.59386,448.490829 C1187.52066,457.031603 1134.53466,471.507237 1122.60295,408.425793 C1144.60833,435.40047 1222.16114,440.915588 1235.65044,425.158448 C1153.35665,433.650114 1084.50504,399.026349 1132.26681,323.660916 C1129.56718,403.072741 1242.89672,402.175032 1257.07015,394.576356 C1172.20149,385.442042 1094.68313,333.953038 1169.61709,241.546175 C1143.80117,355.851133 1261.60892,372.390681 1278.90877,367.7901 C1149.32526,329.852179 1153.20179,209.871389 1241.15309,157.632738 C1189.31262,241.509352 1241.27375,337.832253 1312.36683,332.221302 C1225.71478,292.149819 1186.09,169.496506 1317.76174,107.369014 Z M1944.42388,126.339498 C1998.99967,130.951181 2080.3414,148.070808 2126.78067,279.591997 C2157.14888,231.953567 2268.86312,148.959592 2386.89068,322.606479 C2363.82347,285.969237 2409.71928,226.196267 2491.462,261.816227 C2464.60068,267.378331 2438.58901,310.872496 2491.53303,359.841331 C2425.68484,255.752331 2569.8932,255.046748 2545.72568,317.930348 C2528.89239,278.049053 2501.91892,305.10376 2510.14312,324.702653 C2521.52505,351.826649 2561.84282,354.831442 2565.17361,325.147731 C2573.6638,249.483919 2497.59562,240.77618 2471.54514,239.064554 C2611.32538,210.203121 2676.96356,348.789418 2583.07208,439.929722 C2537.43941,484.225275 2409.55804,515.098998 2332.92794,399.319236 C2335.22799,417.919724 2343.73124,431.69305 2356.18903,449.802376 C2306.6826,411.911626 2300.83409,377.202123 2281.4936,339.096693 L2281.093,338.314 L2281.18778,338.500888 C2290.73786,357.730333 2324.91563,468.19796 2186.71491,477.144918 L2182.43022,477.386888 C2312.48436,436.019789 2255.83002,308.287341 2201.1745,316.245871 C2249.21976,330.395449 2254.93691,399.88284 2203.63479,438.295721 C2200.1434,342.528427 2100.22928,375.51993 2083.51759,413.677736 C1952.47076,246.24957 1780.63019,246.964945 1706.78155,276.229717 C1778.42349,230.931198 1804.91926,228.068885 1871.19999,229.090639 C1744.04438,193.550479 1691.3638,299.569759 1611.30871,286.480292 C1516.91636,271.046601 1587.39549,198.948999 1598.49014,244.309576 C1579.10553,231.645747 1572.87426,261.982148 1597.69013,262.677827 C1664.05224,264.5382 1692.07211,135.397899 1875.31671,138.745255 C1954.04176,140.183338 2025.72904,187.314115 2086.23952,318.172095 C2073.91511,202.765117 1996.85956,144.287535 1944.42388,126.339498 Z M780.402217,248.783108 C827.811761,220.132356 765.574512,199.389355 704.397363,215.141764 C648.837922,229.447679 639.806066,254.113242 664.184861,269.70774 C645.271903,246.948219 684.242968,218.232751 724.839123,230.08365 C683.273253,234.711271 682.716168,276.507022 727.805331,277.575761 C749.388553,278.087344 790.38661,271.915797 832.185421,256.016909 C873.984232,240.118021 882.130795,202.287289 849.795811,190.477302 C903.893104,196.73355 954.119907,236.866923 979.90815,279.584021 C932.799699,230.677796 840.378496,254.29935 874.634025,297.009452 C912.720443,344.49594 977.365101,291.449992 908.139636,274.26491 C994.426955,262.56521 1014.92588,379.402323 1017.70527,407.1021 C989.140085,386.262804 894.997681,309.713787 755.075446,318.622202 C537.381496,332.482101 561.803398,222.465382 689.504982,193.436399 C817.206565,164.407416 907.773031,233.042888 780.402217,248.783108 Z M1334.41285,17.9110518 C1467.24708,47.8212673 1426.68644,104.153977 1407.43693,138.483185 C1364.47163,215.10668 1377.85906,280.09151 1469.32306,271.101656 C1407.44503,255.976572 1380.35328,189.983212 1574.2425,216.04805 C1513.08974,217.226792 1520.55101,277.710362 1596.18507,295.94026 C1646.60777,308.093526 1699.13876,316.349007 1753.77805,320.706704 C1732.04411,351.489402 1725.30716,375.011852 1733.56717,391.274053 C1569.55529,324.283702 1581.64404,295.466927 1470.65524,292.731918 C1219.6583,296.23184 1329.07733,158.704019 1334.0341,90.5881851 C1338.99088,22.4723506 1224.34669,21.0526171 1133.71569,46.5305216 C1043.08469,72.0084261 1086.90032,124.770092 1154.69854,121.517755 C1073.77578,156.050224 987.339672,144.481259 1027.86465,95.0201623 C1065.31774,49.3083223 1201.57862,-11.9991637 1334.41285,17.9110518 Z M2278.45619,99.5809336 C2080.70927,12.6899768 2102.01754,196.609808 2183.71091,181.829708 C2275.66762,165.192747 2191.53281,83.3954878 2177.38996,151.091508 C2146.32057,82.5345188 2257.29743,72.7910506 2291.22676,148.58487 C2323.72878,221.190268 2398.10736,197.184578 2451.46032,236.125409 C2424.82303,231.461187 2373.52195,245.496788 2371.35084,278.266056 C2365.93205,263.701441 2348.02706,238.633087 2283.63187,212.529136 C2219.23669,186.425185 2150.81749,210.915064 2135.8291,242.723355 C2082.88971,85.3866163 1929.86822,104.310795 1882.03923,114.321121 C2051.92776,75.3932641 2140.10206,-0.668214778 2278.45619,99.5809336 Z" id="logo"></path>
        </g>
    </g>
</svg>