<?xml version="1.0" encoding="UTF-8"?>
<svg width="3000px" height="300px" viewBox="0 0 3000 300" version="1.1" xmlns="http://www.w3.org/2000/svg" xmlns:xlink="http://www.w3.org/1999/xlink">
    <title>Divider Top - clouds v4</title>
    <defs>
        <rect id="path-1" x="0" y="0" width="3000" height="300"></rect>
        <path d="M2035.5,78 C2049.23923,78 2061.40004,84.7579737 2068.83971,95.13118 C2081.22774,87.4410285 2095.84524,83 2111.5,83 C2154.50314,83 2189.67931,116.511294 2192.33855,158.84394 C2194.97096,158.291025 2197.7015,158 2200.5,158 C2215.21112,158 2228.0439,166.042111 2234.8418,177.96979 C2238.35007,169.756222 2246.50282,164 2256,164 C2264.92853,164 2272.66881,169.087545 2276.48004,176.521854 L2280.71676,175.589 C2287.34955,165.023586 2299.10455,158 2312.5,158 C2319.99136,158 2326.96966,160.196675 2332.82591,163.981038 C2335.83037,163.3054 2338.84785,162.623474 2341.87131,161.938791 C2346.17748,150.296936 2357.36981,142 2370.5,142 C2377.28658,142 2383.55545,144.216549 2388.62217,147.965197 C2388.21562,146.377761 2388,144.714061 2388,143 C2388,131.954305 2396.95431,123 2408,123 C2415.18827,123 2421.49081,126.792227 2425.01616,132.485199 C2425.55155,113.900673 2440.78566,99 2459.5,99 C2478.55382,99 2494,114.446176 2494,133.5 C2494,140.134081 2492.12752,146.330819 2488.88223,151.590534 C2493.25095,149.297106 2498.224,148 2503.5,148 C2516.63893,148 2527.89902,156.04424 2532.62391,167.476345 C2539.92832,149.597475 2557.49301,137 2578,137 C2605.06195,137 2627,158.938047 2627,186 C2627,191.548816 2626.07768,196.882212 2624.37799,201.855247 C2636.54887,190.762894 2652.73465,184 2670.5,184 C2701.57468,184 2727.81653,204.691815 2736.19903,233.048927 C2741.49901,224.043643 2751.29372,218 2762.5,218 C2778.26676,218 2791.23928,229.963575 2792.83499,245.308156 C2796.40052,243.205989 2800.55942,242 2805,242 C2813.44577,242 2820.87261,246.362581 2825.15,252.957224 C2830.30919,238.414513 2844.18837,228 2860.5,228 C2871.41924,228 2881.24846,232.666908 2888.10184,240.114888 C2898.01777,216.547273 2921.32648,200 2948.5,200 C2984.67465,200 3014,229.325349 3014,265.5 C3014,301.674651 2984.67465,331 2948.5,331 C2924.98564,331 2904.36531,318.609157 2892.81217,300.000614 L2875.21912,300.001023 C2870.70005,301.931473 2865.72481,303 2860.5,303 C2855.27519,303 2850.29995,301.931473 2845.78088,300.001023 L2719.85449,300.001525 C2707.39297,312.946071 2689.88703,321 2670.5,321 C2651.11297,321 2633.60703,312.946071 2621.14551,300.001525 L1772.99746,300.001631 C1765.50089,309.731315 1753.73251,316 1740.5,316 C1727.26749,316 1715.49911,309.731315 1708.00254,300.001631 L1698.99445,300.000624 C1695.09419,305.449255 1688.71176,309 1681.5,309 C1677.67563,309 1674.08447,308.001479 1670.97302,306.250922 L1670.99203,307.016059 L1670.99203,307.016059 L1671,308 C1671,340.860943 1644.36094,367.5 1611.5,367.5 C1581.21558,367.5 1556.21561,344.874538 1552.48146,315.604964 C1548.41565,318.974673 1543.19434,321 1537.5,321 C1531.97878,321 1526.90228,319.095953 1522.8913,315.908668 C1520.8652,353.303147 1489.90064,383 1452,383 C1412.78778,383 1381,351.212217 1381,312 C1381,307.909977 1381.34583,303.900728 1382.00986,299.9999 L1350.9083,300.001383 C1345.59118,306.126638 1337.74793,310 1329,310 C1320.25207,310 1312.40882,306.126638 1307.0917,300.001383 L1276.06587,300.001426 C1271.51197,301.619295 1266.60884,302.5 1261.5,302.5 C1256.39116,302.5 1251.48803,301.619295 1246.93413,300.001426 L1229.08745,300.000557 C1223.68643,312.361593 1211.35202,321 1197,321 C1182.64798,321 1170.31357,312.361593 1164.91255,300.000557 L549.600498,300.002089 C535.200567,317.121038 513.620743,328 489.5,328 C465.379257,328 443.799433,317.121038 429.399502,300.002089 L0,300 L-0.00136595262,264.179089 C-2.57036394,258.480152 -4,252.157031 -4,245.5 C-4,220.371044 16.3710439,200 41.5,200 C54.3938913,200 66.0351159,205.363304 74.3144692,213.980707 C74.1062079,212.183003 74,210.353905 74,208.5 C74,182.266474 95.2664744,161 121.5,161 C140.346133,161 156.628787,171.97556 164.304733,187.883451 C167.172017,180.351194 174.461089,175 183,175 C191.348704,175 198.502631,180.115451 201.498404,187.382978 C208.144098,171.868784 223.552779,161 241.5,161 C245.575449,161 249.519998,161.560451 253.260778,162.608484 C254.89077,152.068457 264.00314,144 275,144 C286.769173,144 296.379865,153.241553 296.971164,164.863747 C300.931464,163.02559 305.345962,162 310,162 C327.120827,162 341,175.879173 341,193 C341,195.304371 340.748569,197.550017 340.271644,199.711001 C348.619184,192.417483 359.543713,188 371.5,188 C392.466384,188 410.260043,201.584049 416.560029,220.431198 L416.700792,220.075707 C428.342732,191.300126 456.550692,171 489.5,171 C501.904492,171 513.636987,173.877161 524.066547,179.000543 C522.110926,175.440236 521,171.349853 521,167 C521,153.192881 532.192881,142 546,142 C559.540695,142 570.567068,152.765091 570.987559,166.20371 C571.065211,166.21991 571.135222,166.233925 571.205231,166.24794 C573.341735,143.111229 592.805815,125 616.5,125 C623.879284,125 630.848273,126.756681 637.011592,129.874667 C637.339815,119.947196 645.491824,112 655.5,112 C664.538352,112 672.062845,118.481605 673.678933,127.050272 C682.025538,121.339724 692.122752,118 703,118 C730.443964,118 752.922356,139.26014 754.863933,166.209176 C757.832885,161.857141 762.832782,159 768.5,159 C776.463129,159 783.108722,164.641042 784.658684,172.145032 C791.985185,162.917189 803.301576,157 816,157 C838.09139,157 856,174.90861 856,197 C856,202.838272 854.74921,208.384407 852.50098,213.385052 C856.760531,210.012589 862.145233,208 868,208 C876.807827,208 884.551813,212.554842 889.004982,219.437549 C889.304786,187.663801 915.155342,162 947,162 C969.368701,162 988.779849,174.662787 998.45616,193.211077 C1009.50596,169.463004 1033.58041,153 1061.5,153 C1096.32112,153 1125.16116,178.608048 1130.21487,212.018892 L1130.78065,212.005828 L1130.78065,212.005828 L1131.5,212 C1155.52439,212 1175,231.475613 1175,255.5 C1175,256.639374 1174.9562,257.768518 1174.87018,258.885838 C1180.89851,253.95632 1188.60401,251 1197,251 C1204.88502,251 1212.16103,253.607431 1218.01286,258.007099 C1218.5389,234.441302 1237.80746,215.5 1261.5,215.5 C1285.52439,215.5 1305,234.975613 1305,259 C1305,261.186567 1304.83867,263.335454 1304.52727,265.435407 C1309.67448,257.357679 1318.71156,252 1329,252 C1340.67849,252 1350.74465,258.90321 1355.34055,268.851707 C1357.04905,259.825779 1364.9774,253 1374.5,253 C1384.80209,253 1393.23826,260.988997 1393.9512,271.109698 C1406.80388,252.895342 1428.01279,241 1452,241 C1481.62151,241 1507.00626,259.139778 1517.65168,284.916787 C1521.81731,278.35483 1529.15009,274 1537.5,274 C1545.57145,274 1552.69248,278.069217 1556.92351,284.268069 C1566.08748,263.217244 1587.07504,248.5 1611.5,248.5 C1633.16227,248.5 1652.12077,260.076218 1662.52669,277.379845 C1666.14549,270.607765 1673.28464,266 1681.5,266 C1689.0375,266 1695.66908,269.878757 1699.50762,275.749168 L1699.50549,275.67801 L1699.50549,275.67801 L1699.5,275 C1699.5,252.356325 1717.85633,234 1740.5,234 C1754.35504,234 1766.60496,240.872389 1774.02684,251.394277 C1774.00842,250.931829 1774,250.466898 1774,250 C1774,229.01318 1791.01318,212 1812,212 C1826.03914,212 1838.3001,219.613309 1844.87947,230.936516 C1849.80825,220.343323 1860.54656,213 1873,213 C1876.01399,213 1878.92753,213.430129 1881.68256,214.232352 C1884.11492,182.218568 1910.8624,157 1943.5,157 C1944.80105,157 1946.09274,157.040075 1947.3739,157.119057 C1944.90831,152.811326 1943.5,147.820127 1943.5,142.5 C1943.5,126.2076 1956.7076,113 1973,113 C1981.55302,113 1989.25589,116.639927 1994.64406,122.455232 C1994.5485,121.31647 1994.5,120.163899 1994.5,119 C1994.5,96.3563253 2012.85633,78 2035.5,78 Z M1357.94408,282.807974 L1357.93831,282.906758 C1357.90198,283.466581 1357.84976,284.022074 1357.7821,284.572792 C1358.284,284.609397 1358.77856,284.642421 1359.2727,284.675278 C1358.78952,284.078284 1358.34832,283.455852 1357.94408,282.807974 Z M1300.05779,279.154225 L1299.82987,279.586583 C1299.74294,279.748091 1299.65502,279.908987 1299.56612,280.069262 C1299.71642,280.081523 1299.8663,280.094576 1300.01615,280.107615 C1300.02311,279.788477 1300.03792,279.470663 1300.05779,279.154225 Z" id="path-3"></path>
        <filter x="-0.6%" y="-7.4%" width="101.2%" height="111.5%" filterUnits="objectBoundingBox" id="filter-4">
            <feOffset dx="0" dy="-5" in="SourceAlpha" result="shadowOffsetOuter1"></feOffset>
            <feGaussianBlur stdDeviation="5" in="shadowOffsetOuter1" result="shadowBlurOuter1"></feGaussianBlur>
            <feColorMatrix values="0 0 0 0 0   0 0 0 0 0   0 0 0 0 0  0 0 0 0.2 0" type="matrix" in="shadowBlurOuter1"></feColorMatrix>
        </filter>
        <path d="M579,109 C629.257912,109 670,149.742088 670,200 C670,205.893435 669.439764,211.656019 668.369642,217.237402 C672.475844,215.787702 676.895933,215 681.5,215 C698.978406,215 713.805349,226.35226 719.00974,242.085689 C724.126952,214.715028 748.144349,194 777,194 C808.113557,194 833.602067,218.083695 835.840311,248.625868 C843.151447,236.278748 856.608921,228 872,228 C885.446322,228 897.416813,234.318784 905.104091,244.14897 C905.035095,243.442326 905,242.725262 905,242 C905,229.849736 914.849736,220 927,220 C939.150264,220 949,229.849736 949,242 C949,242.53081 948.981201,243.05723 948.944233,243.57863 C954.156019,236.839046 962.32129,232.5 971.5,232.5 C987.240115,232.5 1000,245.259885 1000,261 C1000,261.969728 999.951568,262.928144 999.856991,263.872961 C1005.89184,260.758015 1012.74062,259 1020,259 C1036.33316,259 1050.58774,267.899461 1058.17922,281.11385 C1058.05946,279.425257 1058,277.719572 1058,276 C1058,235.683213 1090.68321,203 1131,203 C1156.83366,203 1179.53311,216.419142 1192.50811,236.667183 C1195.98863,230.310654 1202.74091,226 1210.5,226 C1221.19805,226 1229.98213,234.194663 1230.91759,244.649334 C1234.92994,243.5732 1239.14803,243 1243.5,243 C1268.31681,243 1288.78022,261.639147 1291.65461,285.681831 C1295.55532,283.344057 1300.1207,282 1305,282 C1315.19478,282 1324.01911,287.867564 1328.28017,296.409862 C1328.59837,296.414475 1328.91913,296.418894 1329.23998,296.4233 C1336.94175,279.088715 1354.30914,267 1374.5,267 C1394.99894,267 1412.58758,279.460438 1420.10495,297.220322 C1421.25437,284.75831 1431.7376,275 1444.5,275 C1452.98258,275 1460.4583,279.310879 1464.85587,285.861344 C1474.11429,270.93795 1490.64658,261 1509.5,261 C1521.9403,261 1533.37,265.326914 1542.36622,272.557878 C1550.79194,239.470045 1580.78833,215 1616.5,215 C1648.50526,215 1675.92002,234.654282 1687.33309,262.551658 C1692.89143,256.670228 1700.7671,253 1709.5,253 C1725.45744,253 1738.55264,265.254692 1739.88788,280.866342 C1742.75532,278.453453 1746.45792,277 1750.5,277 C1755.74032,277 1760.41007,279.442909 1763.43254,283.252027 C1767.01091,253.255921 1792.5396,230 1823.5,230 C1840.58748,230 1856.02042,237.08397 1867.02221,248.47531 C1872.79654,229.670433 1890.30182,216 1911,216 C1914.58137,216 1918.06715,216.409276 1921.41311,217.183607 C1921.14272,215.999904 1921,214.766619 1921,213.5 C1921,204.387302 1928.3873,197 1937.5,197 C1943.87909,197 1949.41268,200.620006 1952.15856,205.9178 C1964.32634,192.457365 1981.92551,184 2001.5,184 C2038.22694,184 2068,213.773064 2068,250.5 C2068,252.780016 2067.88526,255.033233 2067.66123,257.25419 C2071.29996,255.182681 2075.51186,254 2080,254 C2088.17882,254 2095.44032,257.927507 2100.00138,263.999398 C2100.00054,245.774062 2114.77494,231 2133,231 C2144.92714,231 2155.3764,237.32753 2161.17406,246.808859 C2170.40849,226.287342 2191.03575,212 2215,212 C2218.76852,212 2222.45451,212.353317 2226.02667,213.028634 C2226.00876,212.688986 2226,212.345516 2226,212 C2226,200.954305 2234.95431,192 2246,192 C2250.28223,192 2254.25012,193.345814 2257.5038,195.637555 C2266.85937,157.385394 2301.3648,129 2342.5,129 C2375.59402,129 2404.39694,147.372443 2419.26551,174.474108 C2421.23274,159.533056 2434.01953,148 2449.5,148 C2465.13565,148 2478.02333,159.765429 2479.79282,174.926055 C2486.37416,172.390201 2493.52473,171 2501,171 C2533.5848,171 2560,197.4152 2560,230 C2560,230.340598 2559.99711,230.680523 2559.99136,231.01975 C2563.89012,225.559476 2570.27938,222 2577.5,222 C2589.37412,222 2599,231.625878 2599,243.5 C2599,246.892041 2598.21448,250.100613 2596.81541,252.953729 C2602.44817,249.192522 2609.21804,247 2616.5,247 C2631.64355,247 2644.57244,256.482059 2649.67341,269.832911 C2655.24099,249.190192 2674.09657,234 2696.5,234 C2719.03968,234 2737.98822,249.375515 2743.42932,270.21025 C2745.95456,254.776934 2759.35196,243 2775.5,243 C2780.71408,243 2785.64138,244.227856 2790.00852,246.410196 L2790.00677,246.33511 L2790.00677,246.33511 L2790,245.5 C2790,217.60962 2812.60962,195 2840.5,195 C2859.70568,195 2876.40729,205.721212 2884.9464,221.505206 C2892.90467,186.293325 2924.38177,160 2962,160 C3005.6305,160 3041,195.369505 3041,239 C3041,282.630495 3005.6305,318 2962,318 C2942.93533,318 2925.44795,311.246836 2911.79949,300.002148 L2796.85298,300.001648 C2791.14199,304.982888 2783.67334,308 2775.5,308 C2767.32666,308 2759.85801,304.982888 2754.14702,300.001648 L2741.74636,300.000929 C2734.72631,318.137986 2717.1152,331 2696.5,331 C2675.8848,331 2658.27369,318.137986 2651.25364,300.000929 L2647.39345,300.00096 C2641.29157,310.749121 2629.74255,318 2616.5,318 C2603.25745,318 2591.70843,310.749121 2585.60655,300.00096 L2368.72776,300.001212 C2360.44761,302.599413 2351.63737,304 2342.5,304 C2333.36263,304 2324.55239,302.599413 2316.27224,300.001212 L2266.39193,300.001597 C2256.26338,317.911227 2237.04343,330 2215,330 C2192.95657,330 2173.73662,317.911227 2163.60807,300.001597 L2093.56848,300.001079 C2089.66064,302.531075 2085.00186,304 2080,304 C2074.99814,304 2070.33936,302.531075 2066.43152,300.001079 L2045.90593,300.001959 C2034.13218,310.570696 2018.56691,317 2001.5,317 C1984.43309,317 1968.86782,310.570696 1957.09407,300.001959 L1936.92924,300.001066 C1929.5466,305.048187 1920.61802,308 1911,308 C1901.38198,308 1892.4534,305.048187 1885.07076,300.001066 L1883.25827,300.001056 C1878.69988,328.900627 1853.68073,351 1823.5,351 C1794.25264,351 1769.85255,330.246388 1764.22291,302.66235 C1761.26537,307.0864 1756.22294,310 1750.5,310 C1743.69575,310 1737.85346,305.881373 1735.33013,300.001134 L1735.15521,300.00108 C1729.72702,308.423185 1720.26478,314 1709.5,314 C1702.6473,314 1696.32243,311.740045 1691.23006,307.924787 C1683.71607,342.281277 1653.1115,368 1616.5,368 C1591.80946,368 1569.85091,356.302974 1555.86347,338.148041 C1547.03878,354.719288 1529.58677,366 1509.5,366 C1482.81225,366 1460.77547,346.086829 1457.43741,320.308238 C1453.6839,322.648365 1449.2498,324 1444.5,324 C1435.82791,324 1428.20818,319.494355 1423.85403,312.696303 C1423.95142,313.951414 1424,315.220034 1424,316.5 C1424,343.838095 1401.8381,366 1374.5,366 C1349.68494,366 1329.13474,347.73998 1325.55294,323.923489 C1320.79874,330.054229 1313.36016,334 1305,334 C1295.22788,334 1286.71492,328.608864 1282.2731,320.638554 C1273.42377,332.397093 1259.34976,340 1243.5,340 C1221.93872,340 1203.66357,325.93035 1197.35478,306.471253 C1185.81067,331.57206 1160.44059,349 1131,349 C1100.96013,349 1075.15818,330.855335 1063.956,304.927866 C1062.95012,328.333264 1043.65498,347 1020,347 C1001.97048,347 986.473716,336.155946 979.676194,320.634314 C970.837412,339.182004 951.915608,352 930,352 C904.717602,352 883.419511,334.941155 876.987981,311.70572 C875.353566,311.900371 873.688418,312 872,312 C860.556828,312 850.18252,307.423649 842.607411,300.001281 L812.669174,300.000935 C802.762674,307.530637 790.403275,312 777,312 C763.596725,312 751.237326,307.530637 741.330826,300.000935 L388.380979,300.000292 C381.118939,312.55396 367.545809,321 352,321 C336.454191,321 322.881061,312.55396 315.619021,300.000292 L292.922202,300.000577 C292.97381,300.827086 293,301.660484 293,302.5 C293,324.315248 275.315248,342 253.5,342 C234.608848,342 218.815107,328.738411 214.920557,311.017015 C205.474014,324.890117 189.550871,334 171.5,334 C149.017037,334 129.834931,319.867351 122.352758,300.001129 L0,300 L0.000538287335,212.354906 C-20.9112782,205.437849 -36,185.731004 -36,162.5 C-36,133.505051 -12.4949494,110 16.5,110 C45.4949494,110 69,133.505051 69,162.5 C69,175.942059 63.9481779,188.204201 55.6395493,197.491411 C61.4924108,195.235696 67.8518993,194 74.5,194 C87.4352306,194 99.2778441,198.67805 108.428307,206.434615 C114.680629,194.862246 126.922152,187 141,187 C161.434536,187 178,203.565464 178,224 C178,225.818017 177.86888,227.605409 177.61558,229.353235 C202.092666,232.191424 221.437268,251.868024 223.764889,276.498817 C231.00433,268.225222 241.641957,263 253.5,263 C264.70131,263 274.813641,267.662473 282.002138,275.152563 L282,275 C282,266.163444 289.163444,259 298,259 C303.866408,259 308.995415,262.157187 311.780575,266.865115 C316.986061,249.585443 333.023287,237 352,237 C360.397194,237 368.218818,239.464307 374.781129,243.709178 C373.001672,240.190497 372,236.212225 372,232 C372,218.05857 382.972791,206.679972 396.753211,206.029368 C394.331919,199.993097 393,193.402092 393,186.5 C393,157.505051 416.505051,134 445.5,134 C467.561656,134 486.445005,147.60795 494.214348,166.88815 C507.455237,133.002456 540.424581,109 579,109 Z" id="path-5"></path>
        <filter x="-0.6%" y="-8.7%" width="101.1%" height="113.5%" filterUnits="objectBoundingBox" id="filter-6">
            <feOffset dx="0" dy="-5" in="SourceAlpha" result="shadowOffsetOuter1"></feOffset>
            <feGaussianBlur stdDeviation="5" in="shadowOffsetOuter1" result="shadowBlurOuter1"></feGaussianBlur>
            <feColorMatrix values="0 0 0 0 0   0 0 0 0 0   0 0 0 0 0  0 0 0 0.2 0" type="matrix" in="shadowBlurOuter1"></feColorMatrix>
        </filter>
    </defs>
    <g id="Divider-Top---clouds-v4" stroke="none" stroke-width="1" fill="none" fill-rule="evenodd">
        <g>
            <mask id="mask-2" fill="white">
                <use xlink:href="#path-1"></use>
            </mask>
            <g id="Mask"></g>
            <path d="M2383,0 C2416.36684,0 2443.67514,25.9397329 2445.85914,58.7534542 C2454.80874,52.9013901 2465.50715,49.5 2477,49.5 C2508.48023,49.5 2534,75.0197693 2534,106.5 C2534,110.448631 2533.59849,114.303486 2532.83408,118.025963 C2536.52848,115.787724 2540.86386,114.5 2545.5,114.5 C2555.5222,114.5 2564.13888,120.517774 2567.9338,129.137097 C2571.43461,128.072414 2575.15046,127.5 2579,127.5 C2595.23799,127.5 2609.09716,137.684894 2614.53778,152.014935 C2620.07779,149.748758 2626.14306,148.5 2632.5,148.5 C2658.73353,148.5 2680,169.766474 2680,196 C2680,202.455745 2678.71212,208.61069 2676.37927,214.221927 C2686.5201,206.848341 2699.00225,202.5 2712.5,202.5 C2733.23863,202.5 2751.57974,212.765047 2762.71957,228.491399 C2761.59474,223.844807 2761,218.991858 2761,214 C2761,180.034488 2788.53449,152.5 2822.5,152.5 C2831.24757,152.5 2839.56858,154.326314 2847.10253,157.618444 C2846.38175,154.698288 2846,151.643725 2846,148.5 C2846,127.51318 2863.01318,110.5 2884,110.5 C2896.32738,110.5 2907.28376,116.369939 2914.22652,125.467198 C2915.95828,111.948203 2927.50898,101.5 2941.5,101.5 C2946.82124,101.5 2951.78948,103.011363 2955.99888,105.628242 C2955.34399,102.521891 2955,99.3011169 2955,96 C2955,70.3187591 2975.81876,49.5 3001.5,49.5 C3027.18124,49.5 3048,70.3187591 3048,96 C3048,116.618157 3034.58093,134.102121 3015.99999,140.194688 L3016,300 L2762.36765,300.000279 C2751.19579,315.448567 2733.02171,325.5 2712.5,325.5 C2691.97829,325.5 2673.80421,315.448567 2662.63235,300.000279 L1961.43261,300.000725 C1955.30159,302.576551 1948.56703,304 1941.5,304 C1934.43297,304 1927.69841,302.576551 1921.56739,300.000725 L1670.28758,299.999262 C1662.55882,306.253705 1652.7169,310 1642,310 C1631.2831,310 1621.44118,306.253705 1613.71242,299.999262 L1575.3143,299.999295 C1575.76506,302.598571 1576,305.271849 1576,308 C1576,333.681241 1555.18124,354.5 1529.5,354.5 C1523.40689,354.5 1517.58749,353.328071 1512.25493,351.197323 C1503.5158,371.099729 1483.63119,385 1460.5,385 C1429.29591,385 1404,359.704088 1404,328.5 C1404,326.028471 1404.15869,323.594007 1404.46645,321.206241 C1399.14803,323.642442 1393.23255,325 1387,325 C1372.26843,325 1359.3083,317.415538 1351.81142,305.938414 C1347.88867,320.379516 1334.68461,331 1319,331 C1301.43773,331 1286.98546,317.684476 1285.18816,300.598379 C1280.40703,302.157956 1275.30185,303 1270,303 C1264.05274,303 1258.35295,301.94047 1253.07909,299.999873 L16,300 L15.9989928,214.20308 C-11.5525631,207.473353 -32,182.624554 -32,153 C-32,118.206061 -3.79393924,90 31,90 C65.7939392,90 94,118.206061 94,153 C94,157.771181 93.4696201,162.418485 92.4646028,166.88617 C96.0744722,165.040553 100.165719,164 104.5,164 C115.661409,164 125.211167,170.9003 129.116027,180.667654 C136.967667,174.605382 146.812792,171 157.5,171 C175.545964,171 191.190962,181.279761 198.898638,196.302929 C209.224285,173.703615 232.028255,158 258.5,158 C288.603176,158 313.963252,178.307624 321.62802,205.970664 C324.132929,195.103209 333.870162,187 345.5,187 C352.804311,187 359.362051,190.196452 363.850721,195.266858 C362.014354,190.876267 361,186.056591 361,181 C361,160.565464 377.565464,144 398,144 C399.270227,144 400.525504,144.064008 401.762782,144.188976 C392.599767,134.294153 387,121.051024 387,106.5 C387,75.8481964 411.848196,51 442.5,51 C460.12754,51 475.835663,59.2180018 486.002117,72.0317535 L486,72 C486,32.235498 518.235498,0 558,0 C597.764502,0 630,32.235498 630,72 C630,73.816399 629.932739,75.6170882 629.800571,77.3997129 C635.982354,72.7529411 643.669685,70 652,70 C660.24804,70 667.865735,72.6988306 674.018177,77.2615842 L674.006699,76.8268414 L674.006699,76.8268414 L674,76 C674,48.3857625 696.385763,26 724,26 C751.614237,26 774,48.3857625 774,76 C774,79.6229027 773.614682,83.1558095 772.882792,86.5599752 C775.562051,85.5512581 778.466649,85 781.5,85 C795.030976,85 806,95.9690236 806,109.5 C806,114.189342 804.682552,118.570978 802.397595,122.294967 C820.008658,124.416029 834.140078,137.841177 837.32597,155.102496 C843.521019,152.461203 850.339868,151 857.5,151 C880.976867,151 900.784698,166.709011 906.985574,188.189114 C911.526847,165.828409 931.298181,149 955,149 C979.050651,149 999.054271,166.327399 1003.20826,189.179593 C1009.99649,178.832387 1021.70035,172 1035,172 C1052.23579,172 1066.79144,183.475051 1071.44398,199.20218 C1079.49727,187.028839 1093.31102,179 1109,179 C1118.48651,179 1127.28741,181.935461 1134.54391,186.947599 C1144.24425,165.737206 1165.6511,151 1190.5,151 C1223.1096,151 1249.79138,176.379992 1251.8697,208.464338 C1257.47694,206.22892 1263.59496,205 1270,205 C1297.06195,205 1319,226.938047 1319,254 C1319,257.078517 1318.7161,260.090726 1318.17306,263.011875 L1318.43775,263.004555 L1318.43775,263.004555 L1319,263 C1329.7761,263 1339.38129,268.013258 1345.61053,275.834734 C1349.00888,256.05237 1366.2466,241 1387,241 C1409.72935,241 1428.24169,259.055121 1428.97729,281.605612 L1429.272,281.406984 C1438.2178,275.46301 1448.95449,272 1460.5,272 C1471.93523,272 1482.57701,275.397169 1491.47116,281.237333 C1499.88614,269.298236 1513.78238,261.5 1529.5,261.5 C1540.37646,261.5 1550.38076,265.234206 1558.30076,271.490495 C1559.96344,261.841121 1568.37441,254.5 1578.5,254.5 C1586.66983,254.5 1593.72343,259.279119 1597.01767,266.194215 L1597.00603,265.744157 L1597.00603,265.744157 L1597,265 C1597,240.147186 1617.14719,220 1642,220 C1644.48773,220 1646.92831,220.201869 1649.30625,220.590119 C1649.10471,219.423481 1649,218.223969 1649,217 C1649,205.40202 1658.40202,196 1670,196 C1676.27144,196 1681.90079,198.7491 1685.74871,203.107963 C1696.45007,187.350895 1714.51625,177 1735,177 C1762.10226,177 1784.97226,195.120489 1792.15559,219.907072 C1795.90956,215.670481 1801.39292,213 1807.5,213 C1810.70642,213 1813.74091,213.736145 1816.44367,215.048646 C1821.26002,197.162874 1837.59283,184 1857,184 C1879.36145,184 1897.6413,201.475365 1898.92766,223.514184 C1908.1967,209.922868 1923.80633,201 1941.5,201 C1951.22161,201 1960.31408,203.693674 1968.07176,208.375371 C1968.02389,207.757312 1968,207.131446 1968,206.5 C1968,192.969024 1978.96902,182 1992.5,182 C2004.16896,182 2013.93256,190.157815 2016.39875,201.081399 C2022.91494,180.731502 2041.98711,166 2064.5,166 C2074.25954,166 2083.37246,168.76849 2091.09627,173.562974 C2086.57412,165.394829 2084,155.998024 2084,146 C2084,114.519769 2109.51977,89 2141,89 C2168.40829,89 2191.29836,108.344829 2196.7614,134.125693 C2207.58297,121.211286 2223.83256,113 2242,113 L2241.75228,113.00267 C2239.3929,109.778057 2238,105.801693 2238,101.5 C2238,90.7304474 2246.73045,82 2257.5,82 C2264.12178,82 2269.97266,85.3005811 2273.49725,90.3463361 C2281.73195,79.7890121 2294.57315,73 2309,73 C2313.18301,73 2317.23272,73.5707448 2321.0755,74.6386082 C2320.36848,70.8676414 2320,66.9768523 2320,63 C2320,28.2060608 2348.20606,0 2383,0 Z M1064.97441,233.358253 L1064.9627,233.37447 C1064.60297,233.834933 1064.23286,234.286892 1063.85272,234.729993 L1064.4971,234.869921 C1064.78779,234.932577 1065.07847,234.995172 1065.36916,235.057707 C1065.22628,234.494044 1065.09495,233.928139 1064.97441,233.358253 Z M688.734097,111.444551 L688.688444,111.823502 C688.668664,111.975432 688.647962,112.127073 688.626345,112.278418 C688.805959,112.141326 688.987855,112.006549 689.170585,111.872843 C689.024181,111.731431 688.878701,111.588431 688.734097,111.444551 Z" id="clouds-3" fill="#777777" mask="url(#mask-2)" transform="translate(1508.000000, 192.500000) scale(-1, 1) translate(-1508.000000, -192.500000) "></path>
            <g id="clouds-2" mask="url(#mask-2)">
                <use fill="black" fill-opacity="1" filter="url(#filter-4)" xlink:href="#path-3"></use>
                <use fill="#BEBEBE" fill-rule="evenodd" xlink:href="#path-3"></use>
            </g>
            <g id="clouds-1" mask="url(#mask-2)">
                <use fill="black" fill-opacity="1" filter="url(#filter-6)" xlink:href="#path-5"></use>
                <use fill="#FFFFFF" fill-rule="evenodd" xlink:href="#path-5"></use>
            </g>
        </g>
    </g>
</svg>