<?xml version="1.0" encoding="UTF-8"?>
<svg width="22px" height="22px" viewBox="0 0 22 22" version="1.1" xmlns="http://www.w3.org/2000/svg" xmlns:xlink="http://www.w3.org/1999/xlink">
    <title>facebook button</title>
    <g id="client-card-states" stroke="none" stroke-width="1" fill="none" fill-rule="evenodd">
        <g id="2-copy-4" transform="translate(-622.000000, -618.000000)" fill="#269CCC">
            <g id="client---default" transform="translate(66.000000, 274.000000)">
                <path d="M567,344 C573.075132,344 578,348.924868 578,355 C578,360.501041 573.961939,365.058943 568.688272,365.871249 L568.688314,358.129787 L571.522541,358.129787 L571.932567,354.71123 L568.688314,354.71123 L568.688314,354.71123 L568.688314,352.494397 C568.688314,351.712148 569.244823,351.003056 570.394916,351.003056 L570.394916,351.003056 L572,351.003056 L572,348.220863 C570.877155,348.073621 569.895214,348 569.054177,348 C566.898327,348 565.016571,349.795072 565.078386,351.544041 L565.078386,354.71123 L562,354.71123 L562,358.129787 L565.078386,358.129787 L565.078562,365.832759 C559.919502,364.923918 556,360.419683 556,355 C556,348.924868 560.924868,344 567,344 Z" id="facebook-button"></path>
            </g>
        </g>
    </g>
</svg>