<?xml version="1.0" encoding="UTF-8"?>
<svg width="610px" height="163px" viewBox="0 0 610 163" version="1.1" xmlns="http://www.w3.org/2000/svg" xmlns:xlink="http://www.w3.org/1999/xlink">
    <title>GSW Logo - full color</title>
    <defs>
        <path d="M112.702899,130 C113.252422,130 114.118979,129.903656 115.302568,129.710968 C116.486158,129.518281 117.79656,129.272069 119.233776,128.972332 C120.670992,128.672596 122.118776,128.351449 123.577127,128.008893 C125.035478,127.666337 126.335313,127.323781 127.476632,126.981225 C128.195239,122.570817 129.146338,118.03195 130.329928,113.364625 C131.513517,108.697299 132.802784,104.147727 134.197729,99.7159091 C135.592674,95.2840909 137.008754,91.0770751 138.44597,87.0948617 C139.883186,83.1126482 141.225291,79.6014493 142.472288,76.5612648 C143.719284,73.5210804 144.786628,71.0375494 145.67432,69.1106719 C146.562012,67.1837945 147.132671,66.0704875 147.386297,65.770751 C145.906811,65.7279315 144.511866,65.685112 143.201463,65.6422925 C141.891061,65.599473 140.57009,65.5459486 139.238552,65.4817194 C137.907014,65.4174901 136.55434,65.3639657 135.180531,65.3211462 C133.806722,65.2783267 132.316667,65.256917 130.710367,65.256917 C129.991759,66.627141 129.357693,67.9759552 128.80817,69.3033597 C128.258646,70.6307642 127.603445,71.9153491 126.842566,73.1571146 C126.039416,74.4416996 124.950936,76.0046113 123.577127,77.8458498 C122.203318,79.6870883 120.660424,81.6032609 118.948447,83.5943676 C117.236469,85.5854743 115.397678,87.5551713 113.432074,89.5034585 C111.46647,91.4517457 109.500866,93.2073452 107.535262,94.7702569 C105.569658,96.3331686 103.678029,97.5963439 101.860374,98.5597826 C100.042718,99.5232213 98.4152828,100.004941 96.978067,100.004941 C95.7944775,100.004941 94.8750821,99.4268775 94.2198808,98.270751 C93.5646795,97.1146245 93.2370788,95.187747 93.2370788,92.4901186 C93.2370788,89.5783926 93.7548992,86.1314229 94.79054,82.1492095 C95.8261808,78.166996 97.2422611,73.9064559 99.0387808,69.3675889 C100.835301,64.828722 102.948853,60.1506917 105.379439,55.333498 C107.810024,50.5163043 110.420262,45.8168643 113.210151,41.2351779 C116.000041,36.6534914 118.906176,32.3180171 121.928556,28.2287549 C124.950936,24.1394928 127.952181,20.5640646 130.93229,17.5024704 C133.912399,14.4408762 136.807966,12.0108696 139.618991,10.2124506 C142.430016,8.41403162 145.019118,7.51482213 147.386297,7.51482213 C148.27399,7.51482213 148.960894,7.70750988 149.447011,8.09288538 C149.933128,8.47826087 150.292432,8.94927536 150.524923,9.50592885 C150.757414,10.0625823 150.894795,10.6620553 150.937066,11.3043478 C150.979337,11.9466403 151.000472,12.5247036 151.000472,13.0385375 C151.000472,16.1215415 150.429813,19.1510211 149.288495,22.1269763 C148.147176,25.1029315 146.773367,27.9076087 145.167067,30.5410079 C143.560767,33.1744071 141.869925,35.5401845 140.094541,37.6383399 C138.319157,39.7364954 136.797399,41.4492754 135.529267,42.7766798 L135.529267,42.7766798 L146.688825,53.3102767 C148.929191,51.0836627 151.021608,48.5680171 152.966076,45.7633399 C154.910545,42.9586627 156.601387,40.0576416 158.038603,37.0602767 C159.475819,34.0629117 160.606569,31.044137 161.430855,28.0039526 C162.25514,24.9637681 162.667283,22.0734519 162.667283,19.333004 C162.667283,17.705863 162.318547,16.078722 161.621074,14.451581 C160.923602,12.8244401 160.152155,11.3899868 159.306734,10.1482213 C158.588126,9.12055336 157.711002,8.00724638 156.675361,6.8083004 C155.63972,5.60935441 154.498402,4.50675231 153.251406,3.50049407 C152.00441,2.49423584 150.672872,1.6592556 149.256792,0.99555336 C147.840711,0.33185112 146.392928,0 144.913441,0 C140.982233,0 137.051025,0.802865613 133.119817,2.40859684 C129.188609,4.01432806 125.320808,6.2088274 121.516413,8.99209486 C117.712018,11.7753623 114.045005,15.0403491 110.515372,18.7870553 C106.985739,22.5337615 103.678029,26.5694993 100.592242,30.8942688 C97.5064551,35.2190382 94.6742946,39.7257905 92.0957604,44.4145257 C89.5172262,49.1032609 87.3191314,53.7598814 85.5014761,58.3843874 C83.6838209,63.0088933 82.2677406,67.5049407 81.2532353,71.8725296 C80.2387301,76.2401186 79.7314774,80.2651515 79.7314774,83.9476285 C79.7314774,86.1742424 80.1013491,88.4008564 80.8410926,90.6274704 C81.580836,92.8540843 82.5530702,94.9736495 83.7577952,96.986166 C84.9625202,98.9986825 86.3468972,100.872036 87.9109262,102.606225 C89.4749551,104.340415 91.0812551,105.839097 92.7298262,107.102273 C94.3783972,108.365448 96.0164005,109.361001 97.6438361,110.088933 C99.2712716,110.816864 100.740191,111.18083 102.050593,111.18083 C103.952791,111.18083 105.865556,110.72052 107.788889,109.799901 C109.712222,108.879282 111.614419,107.648221 113.495481,106.106719 C115.376543,104.565217 117.215333,102.809618 119.011853,100.839921 C120.808373,98.870224 122.509783,96.8362978 124.116083,94.7381423 C122.678867,97.6926877 121.421303,100.561594 120.343391,103.344862 C119.26548,106.128129 118.282678,108.943511 117.394985,111.791008 C116.507293,114.638505 115.693576,117.560935 114.953832,120.5583 C114.214089,123.555665 113.463778,126.702899 112.702899,130 Z M165.936526,103.794466 C166.90876,103.794466 168.113485,103.45191 169.550701,102.766798 C170.987917,102.081686 172.541378,101.182477 174.211085,100.06917 C175.880791,98.955863 177.592769,97.6926877 179.347018,96.2796443 C181.101266,94.8666008 182.792109,93.4535573 184.419544,92.0405138 C186.04698,90.6274704 187.55817,89.2465415 188.953114,87.8977273 C190.348059,86.548913 191.510513,85.4034914 192.440476,84.4614625 C191.975495,83.9476285 191.47881,83.390975 190.950422,82.791502 C190.422034,82.192029 189.96762,81.6996047 189.58718,81.3142292 C189.079928,81.7424242 188.340184,82.3847167 187.36795,83.2411067 C186.395716,84.0974967 185.307236,85.0502306 184.102511,86.0993083 C182.897786,87.148386 181.640222,88.2081686 180.32982,89.2786561 C179.019417,90.3491436 177.761853,91.3339921 176.557128,92.2332016 C175.352403,93.1324111 174.285059,93.8603426 173.355096,94.416996 C172.425133,94.9736495 171.72766,95.2519763 171.262679,95.2519763 C171.009053,95.2519763 170.882239,95.1235178 170.882239,94.8666008 C170.882239,94.1386693 171.146433,92.9397233 171.674822,91.2697628 C172.20321,89.5998024 172.847843,87.7371542 173.608722,85.6818182 C174.369601,83.6264822 175.162183,81.5283267 175.986469,79.3873518 C176.810755,77.2463768 177.497659,75.3409091 178.047183,73.6709486 C178.173996,73.2855731 178.163428,72.8359684 178.01548,72.3221344 C177.867531,71.8083004 177.518795,71.3801054 176.969271,71.0375494 C175.447513,69.8814229 173.841213,68.7467062 172.150371,67.6333992 C170.713155,66.6485507 169.127991,65.6101779 167.394878,64.5182806 C165.661764,63.4263834 163.970922,62.4522398 162.322351,61.5958498 C162.28008,60.6110013 162.237809,59.7760211 162.195538,59.0909091 C162.153267,58.4057971 162.110996,57.9561924 162.068725,57.7420949 C161.941912,57.4851779 161.646014,57.1854414 161.181033,56.8428854 C160.716051,56.5003294 160.208799,56.189888 159.659275,55.9115613 C159.109751,55.6332345 158.591931,55.3870224 158.105814,55.1729249 C157.619697,54.9588274 157.334367,54.8517787 157.249825,54.8517787 C157.123012,54.8517787 156.837682,55.1194005 156.393836,55.6546443 C155.94999,56.189888 155.43217,56.8857049 154.840375,57.7420949 C154.24858,58.5984848 153.63565,59.5512187 153.001584,60.6002964 C152.367518,61.6493742 151.775724,62.6770422 151.2262,63.6833004 C150.676676,64.6895586 150.222262,65.6315876 149.862958,66.5093874 C149.503654,67.3871871 149.324002,68.0615942 149.324002,68.5326087 C149.324002,68.9608037 149.450816,69.2391304 149.704442,69.3675889 C150.253966,69.7957839 150.888031,70.2667984 151.606639,70.7806324 C152.198434,71.2516469 152.917042,71.7761858 153.762463,72.354249 C154.607884,72.9323123 155.558983,73.5424901 156.615759,74.1847826 C155.136272,75.7262846 153.625082,77.2570817 152.082189,78.7771739 C150.539295,80.2972661 149.218325,81.592556 148.119277,82.6630435 L148.119277,82.6630435 L151.162793,85.8102767 C151.83913,85.1679842 152.600009,84.4614625 153.44543,83.6907115 C154.290851,82.9199605 155.136272,82.1277997 155.981693,81.3142292 C156.827114,80.5006588 157.661968,79.6870883 158.486253,78.8735178 C159.310539,78.0599473 160.06085,77.2891963 160.737187,76.5612648 L160.737187,76.5612648 L162.132131,77.3320158 C162.597113,77.5889328 163.08323,77.8244401 163.590483,78.0385375 C163.379128,78.509552 163.062095,79.2160738 162.639384,80.1581028 C162.216674,81.1001318 161.730556,82.3311924 161.181033,83.8512846 C160.631509,85.3713768 160.039714,87.2019104 159.405649,89.3428854 C158.771583,91.4838603 158.137517,93.9888011 157.503451,96.8577075 C157.503451,97.6284585 157.820484,98.4206192 158.45455,99.2341897 C159.088616,100.04776 159.849495,100.786397 160.737187,101.450099 C161.624879,102.113801 162.554842,102.670455 163.527076,103.120059 C164.49931,103.569664 165.30246,103.794466 165.936526,103.794466 Z M191.398072,104.886364 C194.10342,104.886364 196.882741,104.543808 199.736037,103.858696 C202.589333,103.173584 205.58001,102.038867 208.708068,100.454545 C211.836126,98.870224 215.122701,96.7720685 218.567791,94.1600791 C222.012882,91.5480896 225.679896,88.3152174 229.568833,84.4614625 L229.568833,84.4614625 L226.46191,81.3142292 C224.390629,83.2839262 222.298212,85.2322134 220.184659,87.1590909 C218.071106,89.0859684 215.873012,90.7987484 213.590375,92.2974308 C211.307738,93.7961133 208.929991,95.016469 206.457135,95.958498 C203.984278,96.900527 201.352905,97.3715415 198.563016,97.3715415 C196.998987,97.3715415 195.931643,97.1360343 195.360983,96.6650198 C194.790324,96.1940053 194.504995,95.2947958 194.504995,93.9673913 C194.504995,92.9825428 194.568401,91.9762846 194.695214,90.9486166 C198.415067,89.2786561 201.817887,87.6194005 204.903674,85.9708498 C207.98946,84.3222991 210.631401,82.705863 212.829496,81.1215415 C215.027591,79.53722 216.729001,77.9850132 217.933726,76.4649209 C219.138451,74.9448287 219.740813,73.4568511 219.740813,72.0009881 C219.740813,71.1017787 219.413212,70.041996 218.758011,68.8216403 C218.10281,67.6012846 217.246821,66.4344532 216.190045,65.3211462 C215.133268,64.2078393 213.960247,63.2658103 212.670979,62.4950593 C211.381712,61.7243083 210.081877,61.3389328 208.771475,61.3389328 C206.95382,61.3389328 204.96708,61.6386693 202.811256,62.2381423 C200.655433,62.8376153 198.489041,63.7368248 196.312082,64.9357708 C194.135123,66.1347167 192.042706,67.6333992 190.034831,69.4318182 C188.026956,71.2302372 186.241004,73.3069829 184.676975,75.6620553 C183.112946,78.0171278 181.855382,80.6612319 180.904283,83.5943676 C179.953185,86.5275033 179.477635,89.7496706 179.477635,93.2608696 C179.477635,94.2028986 179.87921,95.3376153 180.68236,96.6650198 C181.48551,97.9924242 182.489448,99.2663043 183.694173,100.48666 C184.898898,101.707016 186.198733,102.745389 187.593677,103.601779 C188.988622,104.458169 190.256754,104.886364 191.398072,104.886364 Z M196.090159,84.6541502 C196.766496,82.5559947 197.569646,80.5327734 198.499609,78.5844862 C199.429572,76.6361989 200.401806,74.9127141 201.416312,73.4140316 C202.430817,71.9153491 203.445322,70.7056983 204.459827,69.7850791 C205.474333,68.8644598 206.404296,68.4041502 207.249717,68.4041502 C207.714699,68.4041502 208.063435,68.5540184 208.295926,68.8537549 C208.528416,69.1534914 208.644662,69.4960474 208.644662,69.8814229 C208.644662,71.2088274 208.285358,72.5362319 207.56675,73.8636364 C206.848142,75.1910408 205.897043,76.4863307 204.713454,77.7495059 C203.529864,79.0126812 202.187758,80.222332 200.687136,81.3784585 C199.186514,82.534585 197.654188,83.6264822 196.090159,84.6541502 Z M228.399615,104.886364 C231.104963,104.886364 233.884285,104.543808 236.737581,103.858696 C239.590877,103.173584 242.581554,102.038867 245.709612,100.454545 C248.83767,98.870224 252.124244,96.7720685 255.569335,94.1600791 C259.014425,91.5480896 262.681439,88.3152174 266.570376,84.4614625 L266.570376,84.4614625 L263.463454,81.3142292 C261.392172,83.2839262 259.299755,85.2322134 257.186202,87.1590909 C255.07265,89.0859684 252.874555,90.7987484 250.591918,92.2974308 C248.309281,93.7961133 245.931535,95.016469 243.458678,95.958498 C240.985821,96.900527 238.354448,97.3715415 235.564559,97.3715415 C234.00053,97.3715415 232.933186,97.1360343 232.362527,96.6650198 C231.791867,96.1940053 231.506538,95.2947958 231.506538,93.9673913 C231.506538,92.9825428 231.569944,91.9762846 231.696758,90.9486166 C235.41661,89.2786561 238.81943,87.6194005 241.905217,85.9708498 C244.991004,84.3222991 247.632945,82.705863 249.831039,81.1215415 C252.029134,79.53722 253.730544,77.9850132 254.935269,76.4649209 C256.139994,74.9448287 256.742356,73.4568511 256.742356,72.0009881 C256.742356,71.1017787 256.414756,70.041996 255.759554,68.8216403 C255.104353,67.6012846 254.248364,66.4344532 253.191588,65.3211462 C252.134812,64.2078393 250.96179,63.2658103 249.672523,62.4950593 C248.383256,61.7243083 247.083421,61.3389328 245.773018,61.3389328 C243.955363,61.3389328 241.968623,61.6386693 239.8128,62.2381423 C237.656976,62.8376153 235.490585,63.7368248 233.313625,64.9357708 C231.136666,66.1347167 229.044249,67.6333992 227.036374,69.4318182 C225.028499,71.2302372 223.242547,73.3069829 221.678518,75.6620553 C220.114489,78.0171278 218.856925,80.6612319 217.905827,83.5943676 C216.954728,86.5275033 216.479179,89.7496706 216.479179,93.2608696 C216.479179,94.2028986 216.880754,95.3376153 217.683904,96.6650198 C218.487054,97.9924242 219.490991,99.2663043 220.695716,100.48666 C221.900441,101.707016 223.200276,102.745389 224.595221,103.601779 C225.990165,104.458169 227.258297,104.886364 228.399615,104.886364 Z M233.091702,84.6541502 C233.768039,82.5559947 234.571189,80.5327734 235.501152,78.5844862 C236.431116,76.6361989 237.40335,74.9127141 238.417855,73.4140316 C239.43236,71.9153491 240.446866,70.7056983 241.461371,69.7850791 C242.475876,68.8644598 243.405839,68.4041502 244.25126,68.4041502 C244.716242,68.4041502 245.064978,68.5540184 245.297469,68.8537549 C245.52996,69.1534914 245.646205,69.4960474 245.646205,69.8814229 C245.646205,71.2088274 245.286901,72.5362319 244.568293,73.8636364 C243.849685,75.1910408 242.898587,76.4863307 241.714997,77.7495059 C240.531408,79.0126812 239.189302,80.222332 237.688679,81.3784585 C236.188057,82.534585 234.655731,83.6264822 233.091702,84.6541502 Z M265.401159,104.500988 C265.992954,104.500988 266.394529,104.32971 266.605884,103.987154 C266.817239,103.644598 267.04973,103.173584 267.303356,102.574111 C269.332367,97.7355072 271.403648,93.5499012 273.517201,90.0172925 C275.630754,86.4846838 277.638629,83.4659091 279.540826,80.9609684 C281.443023,78.4560277 283.144433,76.4006917 284.645056,74.7949605 C286.145678,73.1892292 287.297564,71.8939394 288.100714,70.9090909 L288.100714,70.9090909 L288.227527,70.7806324 C287.466648,72.7075099 286.674066,74.8163702 285.849781,77.1072134 C285.025495,79.3980567 284.232913,81.7103096 283.472034,84.0439723 C282.711155,86.377635 282.003115,88.6577734 281.347914,90.8843874 C280.692712,93.1110013 280.174892,95.102108 279.794452,96.8577075 C279.794452,97.6284585 280.111485,98.4206192 280.745551,99.2341897 C281.379617,100.04776 282.151064,100.786397 283.059891,101.450099 C283.968719,102.113801 284.90925,102.670455 285.881484,103.120059 C286.853718,103.569664 287.656868,103.794466 288.290934,103.794466 C289.263168,103.794466 290.467893,103.45191 291.905109,102.766798 C293.342325,102.081686 294.885218,101.182477 296.533789,100.06917 C298.18236,98.955863 299.88377,97.6926877 301.638019,96.2796443 C303.392268,94.8666008 305.08311,93.4535573 306.710545,92.0405138 C308.337981,90.6274704 309.849171,89.2465415 311.244116,87.8977273 C312.63906,86.548913 313.801514,85.4034914 314.731477,84.4614625 C314.266496,83.9476285 313.780379,83.390975 313.273126,82.791502 C312.765873,82.192029 312.300892,81.6996047 311.878181,81.3142292 C311.370929,81.7424242 310.631185,82.3847167 309.658951,83.2411067 C308.686717,84.0974967 307.598237,85.0502306 306.393512,86.0993083 C305.188787,87.148386 303.931223,88.2081686 302.620821,89.2786561 C301.310418,90.3491436 300.052854,91.3339921 298.848129,92.2332016 C297.643404,93.1324111 296.57606,93.8603426 295.646097,94.416996 C294.716134,94.9736495 294.018662,95.2519763 293.55368,95.2519763 C293.300054,95.2519763 293.173241,95.1235178 293.173241,94.8666008 C293.173241,94.3955863 293.321189,93.6462451 293.617087,92.6185771 C293.912984,91.5909091 294.293423,90.3919631 294.758405,89.0217391 C295.223387,87.6515152 295.751775,86.1849473 296.343569,84.6220356 L296.343569,84.6220356 L298.118954,79.9333004 C298.710748,78.3703887 299.27084,76.8610013 299.799228,75.4051383 C300.327616,73.9492754 300.760894,72.6861001 301.099063,71.6156126 C301.183605,71.3158762 301.247012,71.069664 301.289283,70.8769763 C301.331554,70.6842885 301.352689,70.5237154 301.352689,70.3952569 C301.352689,69.7529644 300.940546,69.0036232 300.116261,68.1472332 C299.291975,67.2908432 298.319741,66.455863 297.199558,65.6422925 C296.079375,64.828722 294.96976,64.14361 293.870713,63.5869565 C292.771666,63.030303 291.94738,62.7519763 291.397856,62.7519763 C290.932875,62.7519763 290.288241,62.9553689 289.463956,63.3621542 C288.63967,63.7689394 287.561758,64.5289855 286.23022,65.6422925 C284.898682,66.7555995 283.271246,68.2863966 281.347914,70.2346838 C279.424581,72.182971 277.131376,74.6986166 274.4683,77.7816206 C274.975552,76.2829381 275.482805,74.8270751 275.990058,73.4140316 C276.49731,72.0009881 277.004563,70.6093544 277.511815,69.2391304 C275.651889,67.56917 273.633446,66.113307 271.456487,64.8715415 C269.279528,63.629776 267.303356,62.5806983 265.527972,61.7243083 C264.428925,64.2078393 263.403852,66.7877141 262.452753,69.4639328 C261.501654,72.1401515 260.62453,74.7628458 259.82138,77.3320158 C259.01823,79.9011858 258.299622,82.3526021 257.665556,84.6862648 C257.03149,87.0199275 256.503102,89.0966733 256.080392,90.916502 C255.657681,92.7363307 255.330081,94.2457181 255.09759,95.444664 C254.865099,96.64361 254.748854,97.3715415 254.748854,97.6284585 C255.509732,98.442029 256.365721,99.2555995 257.31682,100.06917 C258.267919,100.88274 259.219017,101.621377 260.170116,102.285079 C261.121215,102.948781 262.051178,103.484025 262.960006,103.89081 C263.868833,104.297596 264.682551,104.500988 265.401159,104.500988 Z" id="path-1"></path>
        <filter x="-0.4%" y="-0.8%" width="101.7%" height="102.3%" filterUnits="objectBoundingBox" id="filter-2">
            <feOffset dx="2" dy="1" in="SourceAlpha" result="shadowOffsetOuter1"></feOffset>
            <feColorMatrix values="0 0 0 0 0.261755017   0 0 0 0 0.261755017   0 0 0 0 0.261755017  0 0 0 1 0" type="matrix" in="shadowOffsetOuter1"></feColorMatrix>
        </filter>
        <path d="M316.443841,110 C319.985594,110 323.717084,109.487231 327.63831,108.461694 C331.559537,107.436156 335.406977,106.03389 339.18063,104.254896 C342.954284,102.475902 346.548741,100.382969 349.964003,97.9760945 C353.379265,95.5692204 356.38343,92.9739823 358.9765,90.1903802 C361.569569,87.406778 363.635591,84.5185292 365.174567,81.5256336 C366.713543,78.5327381 367.483031,75.5503072 367.483031,72.578341 C367.483031,71.531874 367.12464,70.1505376 366.407856,68.4343318 C365.691073,66.718126 364.784553,65.0437788 363.688296,63.4112903 C362.592039,61.7788018 361.411455,60.3765361 360.146543,59.2044931 C358.881631,58.0324501 357.701047,57.4464286 356.60479,57.4464286 C354.538767,57.4464286 352.409499,57.5301459 350.216985,57.6975806 C348.024472,57.8650154 345.726549,58.0533794 343.323216,58.2626728 C340.919884,58.4719662 338.39006,58.6707949 335.733746,58.859159 C333.077431,59.047523 330.273543,59.1626344 327.322082,59.2044931 C328.671321,54.516321 330.621394,50.1002304 333.172299,45.9562212 C335.723205,41.812212 338.632502,38.0030722 341.90019,34.5288018 C345.167879,31.0545315 348.667469,27.9360599 352.398958,25.1733871 C356.130448,22.4107143 359.830315,20.0770929 363.498559,18.172523 C367.166803,16.2679531 370.687474,14.8133641 374.060573,13.8087558 C377.433671,12.8041475 380.406213,12.3018433 382.978201,12.3018433 C383.694984,12.3018433 384.190408,12.3960253 384.464472,12.5843894 C384.738536,12.7727535 384.938814,13.0971582 385.065305,13.5576037 C385.23396,14.4784946 385.00206,15.7133257 384.369604,17.2620968 C383.737148,18.8108679 382.86225,20.5375384 381.744912,22.4421083 C380.627573,24.3466782 379.309956,26.3245008 377.792062,28.375576 C376.274168,30.4266513 374.724651,32.4149386 373.143512,34.3404378 C371.562372,36.265937 370.002314,38.0135369 368.463338,39.5832373 C366.924362,41.1529378 365.5435,42.4191628 364.320752,43.3819124 C365.121863,44.219086 365.986219,45.0771889 366.913821,45.9562212 C367.841423,46.8352535 368.769025,47.703821 369.696627,48.561924 C370.624229,49.4200269 371.499126,50.2258065 372.321319,50.9792627 C373.143512,51.7327189 373.849754,52.3815284 374.440046,52.9256912 C376.042268,51.9210829 377.676112,50.5711406 379.341579,48.8758641 C381.007046,47.1805876 382.619809,45.296947 384.179867,43.2249424 C385.739925,41.1529378 387.215655,38.9658218 388.607058,36.6635945 C389.998461,34.3613671 391.210668,32.1009985 392.243679,29.8824885 C393.276691,27.6639785 394.088342,25.5605799 394.678635,23.5722926 C395.268927,21.5840054 395.564073,19.8782642 395.564073,18.4550691 C395.564073,18.2876344 395.511368,18.0050883 395.405959,17.6074309 C395.30055,17.2097734 395.184599,16.812116 395.058108,16.4144585 C394.931617,16.0168011 394.805126,15.6610023 394.678635,15.3470622 C394.552143,15.0331221 394.467816,14.8342934 394.425652,14.750576 C394.046179,14.2901306 393.582378,13.6308564 393.034249,12.7727535 C392.486121,11.9146505 391.832583,10.9832949 391.073636,9.97868664 C390.314689,8.97407834 389.450333,7.93807604 388.480567,6.87067972 C387.510801,5.80328341 386.414544,4.83006912 385.191796,3.95103687 C383.969048,3.07200461 382.609268,2.36040707 381.112456,1.81624424 C379.615644,1.27208141 377.960717,1 376.147677,1 C370.961539,1 365.838646,1.87903226 360.778999,3.63709677 C355.719352,5.39516129 350.902146,7.73924731 346.327382,10.6693548 C341.752617,13.5994624 337.525704,16.937692 333.646641,20.6840438 C329.767578,24.4303955 326.405021,28.2918587 323.55897,32.2684332 C320.712918,36.2450077 318.488782,40.1901882 316.88656,44.1039747 C315.284338,48.0177611 314.483228,51.5652842 314.483228,54.7465438 C314.483228,55.7930108 314.73621,56.8813364 315.242175,58.0115207 C315.748139,59.1417051 316.422759,60.2614247 317.266034,61.3706797 C318.109308,62.4799347 319.057992,63.5682604 320.112085,64.6356567 C321.166178,65.703053 322.262435,66.718126 323.400856,67.6808756 C323.90682,68.141321 324.560358,68.4971198 325.361469,68.7482719 C326.16258,68.999424 327.005854,69.1773233 327.891292,69.28197 C328.776731,69.3866167 329.662169,69.4494048 330.547607,69.4703341 C331.433045,69.4912634 332.255238,69.5017281 333.014185,69.5017281 C335.375354,69.5017281 337.525704,69.4180108 339.465235,69.250576 C341.404767,69.0831413 343.302134,68.8843126 345.157338,68.6540899 C347.012542,68.4238671 348.930992,68.2145737 350.912687,68.0262097 C352.894382,67.8378456 355.107978,67.7227343 357.553474,67.6808756 C356.457217,71.5737327 354.68634,74.9956797 352.240844,77.9467166 C349.795348,80.8977535 346.970379,83.4406682 343.765935,85.5754608 C340.561492,87.7102535 337.114608,89.4787826 333.425282,90.8810484 C329.735956,92.2833141 326.078252,93.3611751 322.452172,94.1146313 C318.826091,94.8680876 315.379207,95.328533 312.111518,95.4959677 C308.843829,95.6634025 306.050482,95.5796851 303.731477,95.2448157 C303.942296,95.6634025 304.342851,96.2703533 304.933144,97.0656682 C305.523436,97.8609831 306.208596,98.7400154 306.988625,99.702765 C307.768654,100.665515 308.611929,101.670123 309.518449,102.71659 C310.424969,103.763057 311.310407,104.7572 312.174764,105.699021 C313.03912,106.640841 313.850772,107.498944 314.609719,108.273329 C315.368666,109.047715 315.98004,109.623272 316.443841,110 Z M385.480196,102.151498 C386.449962,102.151498 387.651628,101.816628 389.085195,101.146889 C390.518761,100.477151 392.068278,99.5981183 393.733746,98.5097926 C395.399213,97.421467 397.106844,96.1866359 398.856638,94.8052995 C400.606433,93.4239631 402.292982,92.0426267 403.916285,90.6612903 C405.539589,89.2799539 407.046942,87.9300115 408.438345,86.6114631 C409.829748,85.2929147 410.98925,84.1731951 411.916852,83.2523041 C411.453051,82.75 410.957628,82.2058372 410.430581,81.6198157 C409.903535,81.0337942 409.450274,80.5524194 409.070801,80.1756912 C408.564836,80.594278 407.837512,81.2116935 406.888828,82.0279378 C405.940144,82.844182 404.87551,83.7441436 403.694926,84.7278226 C402.514342,85.7115015 401.270512,86.7056452 399.963436,87.7102535 C398.656361,88.7148618 397.423072,89.6357527 396.263569,90.4729263 C395.104067,91.3100998 394.060514,91.9903034 393.132912,92.5135369 C392.20531,93.0367704 391.509609,93.2983871 391.045808,93.2983871 C390.792826,93.2983871 390.666334,93.1728111 390.666334,92.921659 C390.666334,91.1217358 390.993103,88.8195084 391.646641,86.014977 C392.300179,83.2104455 393.175076,80.1338326 394.271333,76.7851382 C395.36759,73.4364439 396.61142,69.8993856 398.002823,66.1739631 C399.394226,62.4485407 400.848874,58.764977 402.366768,55.1232719 L402.366768,55.1232719 L414.889395,55.1232719 C415.268869,55.1232719 415.585097,55.0814132 415.838079,54.9976959 C416.091061,54.9139785 416.259716,54.8302611 416.344044,54.7465438 C416.765681,54.3698157 417.282187,53.8256528 417.893561,53.1140553 C418.504935,52.4024578 419.042522,51.7117896 419.506323,51.0420507 C419.970124,50.3723118 420.286352,49.7862903 420.455007,49.2839862 C420.623662,48.781682 420.497171,48.53053 420.075533,48.53053 L420.075533,48.53053 L404.896592,49.0956221 C406.161504,46.0817972 407.394793,43.2249424 408.596459,40.5250576 C409.798125,37.8251728 410.894382,35.4182988 411.88523,33.3044355 C412.876077,31.1905722 413.708811,29.4325077 414.38343,28.0302419 C415.05805,26.6279762 415.521851,25.7175499 415.774833,25.2989631 C415.859161,25.1315284 415.901325,25.0268817 415.901325,24.985023 L415.901325,24.985023 L415.901325,24.859447 C415.901325,24.6920123 415.690506,24.6082949 415.268869,24.6082949 C414.805068,24.6082949 414.046121,24.765265 412.992027,25.0792051 C411.937934,25.3931452 410.767891,25.7803379 409.481897,26.2407834 C408.195904,26.7012289 406.888828,27.203533 405.560671,27.7476959 C404.232513,28.2918587 403.104634,28.7941628 402.177032,29.2546083 C400.91212,29.8406298 399.910731,30.4161866 399.172866,30.9812788 C398.435001,31.546371 397.844709,32.0905338 397.40199,32.6137673 C396.959271,33.1370008 396.621961,33.6602343 396.39006,34.1834677 C396.15816,34.7067012 395.9368,35.1985407 395.725982,35.6589862 C394.882707,37.375192 393.923482,39.436732 392.848307,41.843606 C391.773132,44.25048 390.645253,46.8771121 389.464668,49.7235023 L389.464668,49.7235023 L381.242742,50.1002304 C380.905432,50.2258065 380.557581,50.5083525 380.199189,50.9478687 C379.840798,51.3873848 379.52457,51.8687596 379.250506,52.3919931 C378.976441,52.9152266 378.744541,53.4175307 378.554804,53.8989055 C378.365067,54.3802803 378.270199,54.7465438 378.270199,54.9976959 C378.270199,55.0814132 378.291281,55.1232719 378.333445,55.1232719 L378.333445,55.1232719 L387.314318,55.1232719 C385.838588,58.9324117 384.373398,62.8252688 382.91875,66.8018433 C381.464101,70.7784178 380.167567,74.5143049 379.029146,78.0095046 C377.890725,81.5047043 376.973664,84.6127112 376.277963,87.3335253 C375.582261,90.0543395 375.234411,92.0426267 375.234411,93.2983871 C375.234411,94.0099846 375.634966,94.8680876 376.436077,95.8726959 C377.237188,96.8773041 378.185872,97.8505184 379.282128,98.7923387 C380.378385,99.734159 381.506265,100.529474 382.665767,101.178283 C383.82527,101.827093 384.763413,102.151498 385.480196,102.151498 Z M410.877095,102.151498 C412.394989,102.151498 413.997211,101.900346 415.68376,101.398041 C417.370309,100.895737 419.067399,100.18414 420.77503,99.2632488 C422.482661,98.3423579 424.158669,97.2540323 425.803054,95.9982719 C427.447439,94.7425115 428.986415,93.3611751 430.419982,91.8542627 C432.275186,91.8542627 434.088226,91.6972926 435.859103,91.3833525 C437.629979,91.0694124 439.369233,90.5566436 441.076864,89.8450461 C442.784495,89.1334485 444.492126,88.1706989 446.199757,86.9567972 C447.907387,85.7428955 449.646641,84.2150538 451.417518,82.3732719 C451.038044,81.9128264 450.54262,81.3581989 449.931246,80.7093894 C449.319872,80.0605799 448.824448,79.5478111 448.444975,79.1710829 C446.083806,81.6826037 443.817506,83.4929916 441.646074,84.6022465 C439.474642,85.7115015 437.124014,86.3498464 434.594191,86.5172811 C435.690448,84.7592166 436.565345,82.9802227 437.218883,81.1802995 C437.872421,79.3803763 438.199189,77.5804531 438.199189,75.78053 C438.072698,75.4875192 437.745929,74.9642857 437.218883,74.2108295 C436.691836,73.4573733 436.080462,72.6306644 435.384761,71.7307028 C434.689059,70.8307412 433.993358,69.9517089 433.297656,69.093606 C432.601955,68.2355031 432.043285,67.5552995 431.621648,67.0529954 L431.621648,67.0529954 L431.242175,67.4297235 C430.230245,68.3924731 429.302643,69.4284754 428.459369,70.5377304 C427.616094,71.6469854 426.899311,72.6829877 426.309019,73.6457373 C425.592235,74.734063 424.980861,75.843318 424.474897,76.9735023 C423.71595,78.4385561 423.241608,79.7466398 423.051871,80.8977535 C422.862134,82.0488671 422.767266,83.0430108 422.767266,83.8801843 C422.767266,84.1731951 422.777807,84.4975998 422.798889,84.8533986 C422.81997,85.2091974 422.872675,85.6173195 422.957002,86.077765 C421.22829,88.421851 419.562823,90.3578149 417.960601,91.8856567 C416.358379,93.4134985 415.072386,94.1774194 414.10262,94.1774194 C413.175018,94.1774194 412.711217,93.5495392 412.711217,92.2937788 C412.711217,90.7868664 413.111772,88.6625384 413.912883,85.9207949 C414.713994,83.1790515 416.25297,80.1129032 418.529811,76.7223502 C420.047705,74.4201229 421.439108,72.5678763 422.70402,71.1656106 C423.968932,69.7633449 425.065189,68.6854839 425.992791,67.9320276 C426.920393,67.1785714 427.658258,66.6448733 428.206386,66.3309332 C428.754515,66.0169931 429.070743,65.7553763 429.15507,65.5460829 C429.15507,65.3786482 428.965333,65.0333141 428.58586,64.5100806 C428.206386,63.9868472 427.732044,63.453149 427.162834,62.9089862 C426.593624,62.3648233 425.98225,61.8729839 425.328712,61.4334677 C424.675174,60.9939516 424.053259,60.7741935 423.462967,60.7741935 C423.252149,60.7741935 422.988625,60.7951229 422.672397,60.8369816 C422.356169,60.8788402 422.13481,60.9416283 422.008319,61.0253456 C418.087092,62.1136713 414.703453,63.7043011 411.857402,65.797235 C409.01135,67.890169 406.671263,70.3075077 404.837141,73.0492512 C403.003019,75.7909946 401.65378,78.7315668 400.789423,81.8709677 C399.925067,85.0103687 399.492889,88.1706989 399.492889,91.3519585 C399.492889,92.3147081 399.851281,93.4239631 400.568064,94.6797235 C401.284847,95.9354839 402.191367,97.1179916 403.287624,98.2272465 C404.383881,99.3365015 405.606629,100.267857 406.955868,101.021313 C408.305108,101.77477 409.612183,102.151498 410.877095,102.151498 Z M449.492322,102.842166 C450.082614,102.842166 450.483169,102.674731 450.693988,102.339862 C450.904807,102.004992 451.136707,101.544547 451.38969,100.958525 C453.413548,96.2284946 455.479571,92.1368088 457.587757,88.6834677 C459.695944,85.2301267 461.698721,82.2790899 463.596088,79.8303571 C465.493456,77.3816244 467.190546,75.3724078 468.687358,73.8027074 C470.18417,72.2330069 471.333132,70.9667819 472.134243,70.0040323 L472.134243,70.0040323 L472.260734,69.8784562 C471.501787,71.7620968 470.711217,73.8236367 469.889024,76.063076 C469.066832,78.3025154 468.276262,80.562884 467.517315,82.844182 C466.758368,85.12548 466.052125,87.3544547 465.398588,89.531106 C464.74505,91.7077573 464.228544,93.6541859 463.849071,95.3703917 C463.849071,96.1238479 464.165299,96.8982335 464.797754,97.6935484 C465.43021,98.4888633 466.199698,99.2109255 467.106218,99.859735 C468.012739,100.508545 468.950881,101.052707 469.920647,101.492224 C470.890413,101.93174 471.691524,102.151498 472.32398,102.151498 C473.293745,102.151498 474.495411,101.816628 475.928978,101.146889 C477.362545,100.477151 478.901521,99.5981183 480.545906,98.5097926 C482.190291,97.421467 483.887381,96.1866359 485.637176,94.8052995 C487.386971,93.4239631 489.07352,92.0426267 490.696823,90.6612903 C492.320127,89.2799539 493.82748,87.9300115 495.218883,86.6114631 C496.610286,85.2929147 497.769788,84.1731951 498.69739,83.2523041 C498.233589,82.75 497.748706,82.2058372 497.242742,81.6198157 C496.736777,81.0337942 496.272976,80.5524194 495.851339,80.1756912 C495.345374,80.594278 494.607509,81.2221582 493.637743,82.0593318 C492.667977,82.8965054 491.582261,83.827861 490.380595,84.8533986 C489.178929,85.8789363 487.924558,86.9149386 486.617483,87.9614055 C485.310407,89.0078725 484.056036,89.9706221 482.85437,90.8496544 C481.652704,91.7286866 480.58807,92.4402842 479.660468,92.984447 C478.732866,93.5286098 478.037164,93.8006912 477.573363,93.8006912 C477.320381,93.8006912 477.19389,93.6751152 477.19389,93.4239631 C477.19389,92.9635177 477.341463,92.2309908 477.636609,91.2263825 C477.931755,90.2217742 478.311229,89.0497312 478.77503,87.7102535 C479.238831,86.3707757 479.765877,84.937116 480.356169,83.4092742 L480.356169,83.4092742 L482.127046,78.8257488 C482.717338,77.2979071 483.276007,75.8223886 483.803054,74.3991935 C484.330101,72.9759985 484.762279,71.7411674 485.099589,70.6947005 C485.183916,70.4016897 485.247162,70.1610023 485.289325,69.9726382 C485.331489,69.7842742 485.352571,69.6273041 485.352571,69.5017281 C485.352571,68.8738479 484.941475,68.141321 484.119282,67.3041475 C483.297089,66.4669739 482.327324,65.6507296 481.209985,64.8554147 C480.092646,64.0600998 478.985848,63.390361 477.889591,62.8461982 C476.793335,62.3020353 475.971142,62.0299539 475.423013,62.0299539 C474.959212,62.0299539 474.316216,62.2287826 473.494023,62.6264401 C472.67183,63.0240975 471.596655,63.7670891 470.268498,64.8554147 C468.940341,65.9437404 467.317037,67.4401882 465.398588,69.3447581 C463.480138,71.249328 461.192756,73.7085253 458.536441,76.7223502 C459.042406,75.2572965 459.548371,73.8341014 460.054335,72.452765 C460.5603,71.0714286 461.066265,69.7110215 461.572229,68.3715438 C459.717025,66.7390553 457.703708,65.3158602 455.532276,64.1019585 C453.360844,62.8880568 451.38969,61.8625192 449.618813,61.0253456 C448.522556,63.453149 447.500086,65.9751344 446.551402,68.5913018 C445.602718,71.2074693 444.727821,73.7713134 443.92671,76.2828341 C443.125599,78.7943548 442.408816,81.1907642 441.77636,83.4720622 C441.143904,85.7533602 440.616858,87.7835061 440.19522,89.5625 C439.773583,91.3414939 439.446814,92.8170123 439.214914,93.9890553 C438.983013,95.1610983 438.867063,95.8726959 438.867063,96.1238479 C439.62601,96.9191628 440.479825,97.7144777 441.428509,98.5097926 C442.377193,99.3051075 443.325877,100.02717 444.274561,100.675979 C445.223245,101.324789 446.150847,101.848022 447.057367,102.24568 C447.963887,102.643337 448.775539,102.842166 449.492322,102.842166 Z M497.657633,103.218894 C500.356111,103.218894 503.128376,102.884025 505.974428,102.214286 C508.820479,101.544547 511.803563,100.435292 514.923679,98.8865207 C518.043794,97.3377496 521.322024,95.2866743 524.758368,92.7332949 C528.194711,90.1799155 531.852415,87.0195853 535.731477,83.2523041 L535.731477,83.2523041 L532.632444,80.1756912 C530.566421,82.1011905 528.479317,84.0057604 526.37113,85.8894009 C524.262944,87.7730415 522.07043,89.4473886 519.793589,90.9124424 C517.516748,92.3774962 515.145038,93.5704685 512.67846,94.4913594 C510.211882,95.4122504 507.58719,95.8726959 504.804384,95.8726959 C503.244326,95.8726959 502.179692,95.6424731 501.610482,95.1820276 C501.041272,94.7215822 500.756667,93.8425499 500.756667,92.5449309 C500.756667,91.5821813 500.819912,90.5985023 500.946403,89.593894 C504.656811,87.9614055 508.050991,86.3393817 511.128943,84.7278226 C514.206895,83.1162634 516.842128,81.5360983 519.034642,79.9873272 C521.227156,78.4385561 522.924246,76.921179 524.125912,75.4351959 C525.327578,73.9492127 525.928411,72.4946237 525.928411,71.0714286 C525.928411,70.1923963 525.601642,69.156394 524.948104,67.9634217 C524.294567,66.7704493 523.440751,65.6298003 522.386658,64.5414747 C521.332565,63.453149 520.162522,62.5322581 518.876528,61.7788018 C517.590534,61.0253456 516.294,60.6486175 514.986924,60.6486175 C513.173884,60.6486175 511.192189,60.9416283 509.041839,61.5276498 C506.891489,62.1136713 504.730598,62.9927035 502.559166,64.1647465 C500.387734,65.3367896 498.30063,66.8018433 496.297853,68.5599078 C494.295076,70.3179724 492.513658,72.3481183 490.9536,74.6503456 C489.393542,76.952573 488.139172,79.5373464 487.190488,82.4046659 C486.241804,85.2719854 485.767462,88.421851 485.767462,91.8542627 C485.767462,92.7751536 486.168017,93.8844086 486.969128,95.1820276 C487.770239,96.4796467 488.771627,97.7249424 489.973294,98.9179147 C491.17496,100.110887 492.471494,101.12596 493.862897,101.963134 C495.2543,102.800307 496.519212,103.218894 497.657633,103.218894 Z M502.337806,83.4406682 C503.012426,81.3895929 503.813537,79.4117704 504.741139,77.5072005 C505.668741,75.6026306 506.638506,73.9178187 507.650436,72.452765 C508.662365,70.9877112 509.674295,69.8052035 510.686224,68.9052419 C511.698154,68.0052803 512.625756,67.5552995 513.46903,67.5552995 C513.932831,67.5552995 514.280682,67.7018049 514.512582,67.9948157 C514.744483,68.2878264 514.860433,68.6226959 514.860433,68.999424 C514.860433,70.297043 514.502041,71.5946621 513.785258,72.8922811 C513.068475,74.1899002 512.119791,75.4561252 510.939206,76.6909562 C509.758622,77.9257873 508.419924,79.1082949 506.923112,80.2384793 C505.426299,81.3686636 503.897864,82.4360599 502.337806,83.4406682 Z" id="path-3"></path>
        <filter x="-0.4%" y="-0.9%" width="101.7%" height="102.8%" filterUnits="objectBoundingBox" id="filter-4">
            <feOffset dx="2" dy="1" in="SourceAlpha" result="shadowOffsetOuter1"></feOffset>
            <feColorMatrix values="0 0 0 0 0.261755017   0 0 0 0 0.261755017   0 0 0 0 0.261755017  0 0 0 1 0" type="matrix" in="shadowOffsetOuter1"></feColorMatrix>
        </filter>
        <linearGradient x1="50%" y1="50%" x2="100%" y2="50%" id="linearGradient-5">
            <stop stop-color="#468400" offset="0%"></stop>
            <stop stop-color="#0E870B" offset="100%"></stop>
        </linearGradient>
        <linearGradient x1="0%" y1="50%" x2="100%" y2="50%" id="linearGradient-6">
            <stop stop-color="#539D00" offset="0%"></stop>
            <stop stop-color="#64BC00" offset="1.12502045%"></stop>
            <stop stop-color="#63BB00" offset="49.7086345%"></stop>
            <stop stop-color="#10880B" offset="98.6544207%"></stop>
            <stop stop-color="#026B00" offset="100%"></stop>
        </linearGradient>
    </defs>
    <g id="client-card-states" stroke="none" stroke-width="1" fill="none" fill-rule="evenodd">
        <g id="2-copy-4" transform="translate(-65.000000, -294.000000)">
            <g id="client---GWS-full-logo" transform="translate(66.000000, 274.000000)">
                <g id="GSW-Logo---full-color" transform="translate(-1.000000, 20.000000)">
                    <g id="Green" fill-rule="nonzero">
                        <use fill="black" fill-opacity="1" filter="url(#filter-2)" xlink:href="#path-1"></use>
                        <use fill="#64BC00" xlink:href="#path-1"></use>
                    </g>
                    <g id="Stone" fill-rule="nonzero">
                        <use fill="black" fill-opacity="1" filter="url(#filter-4)" xlink:href="#path-3"></use>
                        <use fill="#0E870B" xlink:href="#path-3"></use>
                    </g>
                    <path d="M144.046527,124.813706 L146.775618,115.750499 C147.080971,114.77556 147.303624,113.878244 147.443578,113.05855 C147.449939,113.182746 147.53582,113.552229 147.701219,114.166999 C147.866619,114.78177 148.016114,115.290974 148.149706,115.694611 L148.149706,115.694611 L150.964679,124.813706 L152.567781,124.813706 L156.298812,111.195609 L154.581202,111.195609 L152.386478,119.588157 C152.049318,120.854957 151.820303,121.929253 151.699434,122.811045 C151.489504,121.600133 151.231862,120.513418 150.926509,119.550898 L150.926509,119.550898 L148.302383,111.195609 L146.584773,111.195609 L144.084696,119.476381 C143.747535,120.563096 143.493074,121.674651 143.321313,122.811045 C143.18136,121.854735 142.958707,120.786649 142.653354,119.606786 L142.653354,119.606786 L140.449088,111.195609 L138.731477,111.195609 L142.443424,124.813706 L144.046527,124.813706 Z M206.388395,124.813706 L206.388395,123.397871 L200.233626,123.397871 L200.233626,118.38656 L206.016246,118.38656 L206.016246,116.989355 L200.233626,116.989355 L200.233626,112.602129 L206.388395,112.602129 L206.388395,111.195609 L198.611438,111.195609 L198.611438,124.813706 L206.388395,124.813706 Z M257.384495,124.813706 L257.384495,123.379242 L251.229725,123.379242 L251.229725,111.195609 L249.607538,111.195609 L249.607538,124.813706 L257.384495,124.813706 Z M307.655381,124.813706 L307.655381,123.379242 L301.500611,123.379242 L301.500611,111.195609 L299.878424,111.195609 L299.878424,124.813706 L307.655381,124.813706 Z M351.647448,124.813706 L351.647448,117.073187 C351.647448,115.955422 351.596556,114.725882 351.494772,113.384564 L351.494772,113.384564 L351.57111,113.384564 L359.195391,124.813706 L361.046593,124.813706 L361.046593,111.195609 L359.52937,111.195609 L359.52937,119.010645 C359.516647,119.401863 359.532551,120.05234 359.577082,120.962076 C359.621612,121.871812 359.650239,122.410512 359.662962,122.578177 L359.662962,122.578177 L359.586624,122.578177 L351.981428,111.195609 L350.14931,111.195609 L350.14931,124.813706 L351.647448,124.813706 Z M412.78699,124.813706 L412.78699,123.397871 L406.63222,123.397871 L406.63222,118.38656 L412.414841,118.38656 L412.414841,116.989355 L406.63222,116.989355 L406.63222,112.602129 L412.78699,112.602129 L412.78699,111.195609 L405.010033,111.195609 L405.010033,124.813706 L412.78699,124.813706 Z M458.916527,125 C460.443292,125 461.65198,124.664671 462.542593,123.994012 C463.433206,123.323353 463.878512,122.388778 463.878512,121.190286 C463.878512,120.258816 463.603376,119.50122 463.053105,118.917498 C462.502834,118.333777 461.496123,117.787314 460.032974,117.27811 C459.161446,116.97383 458.514161,116.695941 458.09112,116.444444 C457.668079,116.192947 457.367497,115.916611 457.189375,115.615436 C457.011252,115.31426 456.922191,114.9277 456.922191,114.455755 C456.922191,113.816145 457.163929,113.316256 457.647404,112.956088 C458.13088,112.595919 458.80202,112.415835 459.660825,112.415835 C460.748645,112.415835 461.868272,112.651807 463.019707,113.123752 L463.019707,113.123752 L463.525448,111.745176 C462.36129,111.248392 461.085805,111 459.698994,111 C458.369437,111 457.300701,111.31049 456.492789,111.93147 C455.684876,112.552451 455.280919,113.387669 455.280919,114.437126 C455.280919,115.436904 455.559236,116.247283 456.115869,116.868263 C456.672501,117.489244 457.599693,118.026392 458.897443,118.479707 C459.826224,118.802617 460.51804,119.091373 460.972888,119.345975 C461.427737,119.600577 461.752174,119.878465 461.946201,120.179641 C462.140227,120.480816 462.23724,120.867376 462.23724,121.339321 C462.23724,122.053449 461.963695,122.610778 461.416604,123.011311 C460.869514,123.411843 460.055239,123.612109 458.973781,123.612109 C458.312183,123.612109 457.644223,123.543801 456.969902,123.407186 C456.295581,123.27057 455.672153,123.084276 455.099616,122.848303 L455.099616,122.848303 L455.099616,124.375915 C455.990229,124.791972 457.262532,125 458.916527,125 Z M509.769493,125 C511.296257,125 512.504946,124.664671 513.395558,123.994012 C514.286171,123.323353 514.731477,122.388778 514.731477,121.190286 C514.731477,120.258816 514.456342,119.50122 513.90607,118.917498 C513.355799,118.333777 512.349089,117.787314 510.885939,117.27811 C510.014411,116.97383 509.367127,116.695941 508.944085,116.444444 C508.521044,116.192947 508.220463,115.916611 508.04234,115.615436 C507.864218,115.31426 507.775156,114.9277 507.775156,114.455755 C507.775156,113.816145 508.016894,113.316256 508.50037,112.956088 C508.983845,112.595919 509.654985,112.415835 510.51379,112.415835 C511.60161,112.415835 512.721237,112.651807 513.872672,113.123752 L513.872672,113.123752 L514.378413,111.745176 C513.214255,111.248392 511.938771,111 510.551959,111 C509.222402,111 508.153667,111.31049 507.345754,111.93147 C506.537841,112.552451 506.133884,113.387669 506.133884,114.437126 C506.133884,115.436904 506.412201,116.247283 506.968834,116.868263 C507.525467,117.489244 508.452658,118.026392 509.750408,118.479707 C510.67919,118.802617 511.371005,119.091373 511.825854,119.345975 C512.280702,119.600577 512.60514,119.878465 512.799166,120.179641 C512.993192,120.480816 513.090206,120.867376 513.090206,121.339321 C513.090206,122.053449 512.81666,122.610778 512.26957,123.011311 C511.722479,123.411843 510.908204,123.612109 509.826746,123.612109 C509.165148,123.612109 508.497189,123.543801 507.822868,123.407186 C507.148547,123.27057 506.525118,123.084276 505.952581,122.848303 L505.952581,122.848303 L505.952581,124.375915 C506.843194,124.791972 508.115498,125 509.769493,125 Z" id="WELLNESS" fill="url(#linearGradient-5)"></path>
                    <path d="M121.28456,74 C123.565382,74 126.036272,73.9806763 128.697231,73.942029 C131.35819,73.9033816 133.871318,73.8743961 136.236614,73.8550725 C138.601911,73.8357488 140.660987,73.8164251 142.41384,73.7971014 C144.031859,73.7792642 145.119036,73.7696595 145.675371,73.7682875 L145.803395,73.7681159 C146.05682,73.4202899 146.38416,72.7342995 146.785416,71.7101449 C147.186672,70.6859903 147.577368,69.5652174 147.957505,68.3478261 C148.337642,67.1304348 148.686101,65.942029 149.002882,64.7826087 C149.319662,63.6231884 149.562528,62.6956522 149.731477,62 C149.435815,62 148.432676,62.0483092 146.72206,62.1449275 C145.011443,62.2415459 142.952368,62.3574879 140.544834,62.4927536 C138.137299,62.6280193 135.550256,62.7826087 132.783703,62.9565217 C130.017151,63.1304348 127.419548,63.3140097 124.990895,63.5072464 C122.562242,63.7004831 120.492608,63.884058 118.781991,64.057971 C117.071375,64.2318841 116.047117,64.3768116 115.709217,64.4927536 C115.49803,64.8019324 115.244605,65.3816425 114.948943,66.2318841 C114.653281,67.0821256 114.357619,67.9903382 114.061957,68.9565217 C113.766295,69.9227053 113.502311,70.8502415 113.270005,71.7391304 C113.037699,72.6280193 112.85819,73.3043478 112.731477,73.7681159 C112.984902,73.8454106 113.903566,73.9033816 115.487471,73.942029 C117.071375,73.9806763 119.003738,74 121.28456,74 Z" id="-" fill="#64BC00" fill-rule="nonzero"></path>
                    <rect id="Rectangle" fill="url(#linearGradient-6)" x="0.731477437" y="138" width="609" height="25"></rect>
                    <path d="M87.1540609,154.394495 L88.294922,150.46789 L89.429445,154.394495 L91.2358085,154.394495 L92.8520284,147.776758 L90.8048165,147.776758 L90.1139617,151.678899 L89.0364817,147.776758 L87.5470241,147.776758 L86.4568679,151.770642 L85.7786894,147.776758 L83.7314774,147.776758 L85.3476974,154.394495 L87.1540609,154.394495 Z M107.482432,154.394495 L108.623293,150.46789 L109.757816,154.394495 L111.564179,154.394495 L113.180399,147.776758 L111.133187,147.776758 L110.442333,151.678899 L109.364853,147.776758 L107.875395,147.776758 L106.785239,151.770642 L106.10706,147.776758 L104.059848,147.776758 L105.676068,154.394495 L107.482432,154.394495 Z M127.810802,154.394495 L128.951664,150.46789 L130.086187,154.394495 L131.89255,154.394495 L133.50877,147.776758 L131.461558,147.776758 L130.770703,151.678899 L129.693223,147.776758 L128.203766,147.776758 L127.11361,151.770642 L126.435431,147.776758 L124.388219,147.776758 L126.004439,154.394495 L127.810802,154.394495 Z M145.711674,154.461774 C145.884916,154.461774 146.044426,154.43527 146.190202,154.382263 C146.335979,154.329256 146.460629,154.256881 146.564151,154.165138 C146.667674,154.073394 146.747957,153.964322 146.805,153.83792 C146.862043,153.711519 146.890564,153.574924 146.890564,153.428135 C146.890564,153.281346 146.862043,153.14475 146.805,153.018349 C146.747957,152.891947 146.667674,152.782875 146.564151,152.691131 C146.460629,152.599388 146.335979,152.527013 146.190202,152.474006 C146.044426,152.420999 145.884916,152.394495 145.711674,152.394495 C145.534207,152.394495 145.373641,152.420999 145.229977,152.474006 C145.086313,152.527013 144.96272,152.599388 144.859198,152.691131 C144.755675,152.782875 144.675392,152.891947 144.618349,153.018349 C144.561306,153.14475 144.532784,153.281346 144.532784,153.428135 C144.532784,153.574924 144.561306,153.711519 144.618349,153.83792 C144.675392,153.964322 144.755675,154.073394 144.859198,154.165138 C144.96272,154.256881 145.086313,154.329256 145.229977,154.382263 C145.373641,154.43527 145.534207,154.461774 145.711674,154.461774 Z M161.977312,157 C162.497038,157 162.97134,156.936799 163.400219,156.810398 C163.829099,156.683996 164.196709,156.49949 164.503052,156.256881 C164.809394,156.014271 165.047073,155.715596 165.21609,155.360856 C165.385106,155.006116 165.469615,154.598369 165.469615,154.137615 L165.469615,154.137615 L165.469615,147.776758 L163.530151,147.776758 L163.454093,148.351682 C163.26395,148.131498 163.034721,147.960245 162.766408,147.83792 C162.498094,147.715596 162.169568,147.654434 161.78083,147.654434 C161.345613,147.654434 160.953706,147.735984 160.605109,147.899083 C160.256513,148.062181 159.960734,148.292559 159.717773,148.590214 C159.474812,148.88787 159.288894,149.244648 159.160019,149.66055 C159.031144,150.076453 158.966706,150.535168 158.966706,151.036697 L158.966706,151.036697 L158.966706,151.165138 C158.966706,151.646279 159.031144,152.091743 159.160019,152.501529 C159.288894,152.911315 159.473755,153.265036 159.714604,153.562691 C159.955452,153.860347 160.249119,154.093782 160.595602,154.262997 C160.942086,154.432212 161.332937,154.51682 161.768154,154.51682 C162.101962,154.51682 162.395628,154.459735 162.649152,154.345566 C162.902677,154.231397 163.126624,154.070336 163.320993,153.862385 L163.320993,153.862385 L163.320993,154.125382 C163.320993,154.557594 163.200569,154.890928 162.95972,155.125382 C162.718872,155.359837 162.36605,155.477064 161.901254,155.477064 C161.54632,155.477064 161.237865,155.411825 160.975889,155.281346 C160.713914,155.150866 160.498418,154.989806 160.329401,154.798165 L160.329401,154.798165 L159.435727,156.009174 C159.575165,156.172273 159.743125,156.314985 159.939607,156.437309 C160.136089,156.559633 160.346303,156.662589 160.57025,156.746177 C160.794197,156.829766 161.027651,156.892966 161.270612,156.93578 C161.513573,156.978593 161.74914,157 161.977312,157 Z M162.313232,152.926606 C162.110412,152.926606 161.932945,152.881753 161.78083,152.792049 C161.628715,152.702345 161.503009,152.577982 161.403712,152.41896 C161.304415,152.259939 161.23047,152.073394 161.181878,151.859327 C161.133286,151.64526 161.10899,151.413863 161.10899,151.165138 L161.10899,151.165138 L161.10899,151.036697 C161.10899,150.779817 161.135399,150.542304 161.188216,150.324159 C161.241034,150.106014 161.318148,149.916412 161.419558,149.755352 C161.520967,149.594292 161.64773,149.468909 161.799845,149.379205 C161.951959,149.289501 162.127314,149.244648 162.325908,149.244648 C162.562531,149.244648 162.762182,149.283384 162.92486,149.360856 C163.087539,149.438328 163.219583,149.550459 163.320993,149.697248 L163.320993,149.697248 L163.320993,152.480122 C163.219583,152.622834 163.086482,152.732926 162.921691,152.810398 C162.7569,152.88787 162.554081,152.926606 162.313232,152.926606 Z M179.738745,154.394495 L179.738745,150.204893 C179.83593,149.996942 179.990157,149.843017 180.201428,149.743119 C180.412698,149.643221 180.689463,149.593272 181.031721,149.593272 C181.078201,149.593272 181.133131,149.595311 181.196512,149.599388 C181.259893,149.603466 181.324331,149.607543 181.389825,149.611621 C181.455319,149.615698 181.5187,149.620795 181.579968,149.626911 C181.641237,149.633028 181.692998,149.638124 181.735252,149.642202 L181.735252,149.642202 L181.773281,147.727829 C181.688773,147.703364 181.594757,147.685015 181.491235,147.672783 C181.387712,147.66055 181.283133,147.654434 181.177498,147.654434 C180.847916,147.654434 180.557419,147.740061 180.306007,147.911315 C180.054595,148.082569 179.84438,148.321101 179.675364,148.626911 L179.675364,148.626911 L179.605645,147.776758 L177.6028,147.776758 L177.6028,154.394495 L179.738745,154.394495 Z M196.606504,154.51682 C196.936086,154.51682 197.242428,154.48318 197.525531,154.415902 C197.808633,154.348624 198.064271,154.260958 198.292443,154.152905 C198.520615,154.044852 198.720266,153.921509 198.891395,153.782875 C199.062524,153.644241 199.203019,153.501529 199.31288,153.35474 L199.31288,153.35474 L198.33681,152.24159 C198.13399,152.486239 197.892085,152.66157 197.611095,152.767584 C197.330106,152.873598 197.043834,152.926606 196.752281,152.926606 C196.342416,152.926606 196.008608,152.820591 195.750858,152.608563 C195.493108,152.396534 195.326204,152.104995 195.250147,151.733945 L195.250147,151.733945 L199.496685,151.733945 L199.496685,150.896024 C199.496685,150.398573 199.42591,149.950051 199.284358,149.550459 C199.142807,149.150866 198.937875,148.810398 198.669561,148.529052 C198.401247,148.247706 198.073778,148.0316 197.687153,147.880734 C197.300528,147.729867 196.864254,147.654434 196.378332,147.654434 C195.829028,147.654434 195.348388,147.7421 194.93641,147.917431 C194.524432,148.092762 194.180061,148.333333 193.903297,148.639144 C193.626532,148.944954 193.419487,149.30683 193.282161,149.724771 C193.144835,150.142712 193.076172,150.592253 193.076172,151.073394 L193.076172,151.073394 L193.076172,151.30581 C193.076172,151.7421 193.155399,152.153925 193.313852,152.541284 C193.472305,152.928644 193.701533,153.269113 194.001538,153.562691 C194.301542,153.856269 194.671265,154.088685 195.110708,154.259939 C195.550151,154.431193 196.04875,154.51682 196.606504,154.51682 Z M197.405107,150.443425 L195.250147,150.443425 C195.275499,150.272171 195.313528,150.11315 195.364233,149.966361 C195.414938,149.819572 195.483601,149.69317 195.570222,149.587156 C195.656843,149.481142 195.765647,149.397554 195.896635,149.336391 C196.027622,149.275229 196.183963,149.244648 196.365655,149.244648 C196.703688,149.244648 196.963551,149.335372 197.145244,149.51682 C197.326937,149.698267 197.413557,149.954128 197.405107,150.284404 L197.405107,150.284404 L197.405107,150.443425 Z M214.577095,154.51682 C214.906677,154.51682 215.213019,154.48318 215.496122,154.415902 C215.779225,154.348624 216.034862,154.260958 216.263034,154.152905 C216.491206,154.044852 216.690857,153.921509 216.861986,153.782875 C217.033115,153.644241 217.17361,153.501529 217.283471,153.35474 L217.283471,153.35474 L216.307401,152.24159 C216.104581,152.486239 215.862676,152.66157 215.581687,152.767584 C215.300697,152.873598 215.014425,152.926606 214.722872,152.926606 C214.313007,152.926606 213.979199,152.820591 213.721449,152.608563 C213.463699,152.396534 213.296795,152.104995 213.220738,151.733945 L213.220738,151.733945 L217.467277,151.733945 L217.467277,150.896024 C217.467277,150.398573 217.396501,149.950051 217.25495,149.550459 C217.113398,149.150866 216.908466,148.810398 216.640152,148.529052 C216.371839,148.247706 216.044369,148.0316 215.657744,147.880734 C215.271119,147.729867 214.834845,147.654434 214.348923,147.654434 C213.799619,147.654434 213.318979,147.7421 212.907001,147.917431 C212.495023,148.092762 212.150652,148.333333 211.873888,148.639144 C211.597123,148.944954 211.390078,149.30683 211.252752,149.724771 C211.115427,150.142712 211.046764,150.592253 211.046764,151.073394 L211.046764,151.073394 L211.046764,151.30581 C211.046764,151.7421 211.12599,152.153925 211.284443,152.541284 C211.442896,152.928644 211.672124,153.269113 211.972129,153.562691 C212.272133,153.856269 212.641856,154.088685 213.081299,154.259939 C213.520742,154.431193 214.019341,154.51682 214.577095,154.51682 Z M215.375698,150.443425 L213.220738,150.443425 C213.24609,150.272171 213.284119,150.11315 213.334824,149.966361 C213.385529,149.819572 213.454192,149.69317 213.540813,149.587156 C213.627434,149.481142 213.736238,149.397554 213.867226,149.336391 C213.998214,149.275229 214.154554,149.244648 214.336247,149.244648 C214.674279,149.244648 214.934142,149.335372 215.115835,149.51682 C215.297528,149.698267 215.384149,149.954128 215.375698,150.284404 L215.375698,150.284404 L215.375698,150.443425 Z M231.324429,154.394495 L231.324429,149.721713 C231.417389,149.574924 231.538869,149.458716 231.688871,149.373089 C231.838873,149.287462 232.02796,149.244648 232.256133,149.244648 C232.408248,149.244648 232.544517,149.2579 232.664941,149.284404 C232.785366,149.310907 232.886775,149.360856 232.969171,149.434251 C233.051566,149.507645 233.114948,149.607543 233.159314,149.733945 C233.203681,149.860347 233.225865,150.023445 233.225865,150.223242 L233.225865,150.223242 L233.225865,154.394495 L235.368148,154.394495 L235.368148,150.229358 C235.368148,149.748216 235.316387,149.343527 235.212864,149.015291 C235.109342,148.687054 234.962509,148.422018 234.772365,148.220183 C234.582222,148.018349 234.355106,147.873598 234.091018,147.785933 C233.826929,147.698267 233.536432,147.654434 233.219527,147.654434 C232.809662,147.654434 232.438882,147.730887 232.107187,147.883792 C231.775492,148.036697 231.493446,148.259939 231.261048,148.553517 L231.261048,148.553517 L231.191329,147.776758 L229.188484,147.776758 L229.188484,154.394495 L231.324429,154.394495 Z M250.112638,154.51682 C250.573208,154.51682 250.987298,154.464832 251.354909,154.360856 C251.72252,154.256881 252.036256,154.114169 252.296119,153.932722 C252.555982,153.751274 252.755633,153.536188 252.895071,153.287462 C253.03451,153.038736 253.104229,152.767584 253.104229,152.474006 C253.104229,152.123344 253.031341,151.827727 252.885564,151.587156 C252.739787,151.346585 252.544362,151.14577 252.299288,150.984709 C252.054214,150.823649 251.772168,150.695209 251.45315,150.599388 C251.134131,150.503568 250.80138,150.425076 250.454896,150.363914 C250.053482,150.29052 249.762985,150.196738 249.583405,150.082569 C249.403825,149.9684 249.314035,149.821611 249.314035,149.642202 C249.314035,149.54842 249.335162,149.462793 249.377416,149.385321 C249.41967,149.307849 249.476713,149.24159 249.548545,149.186544 C249.620377,149.131498 249.703829,149.088685 249.798901,149.058104 C249.893973,149.027523 249.996439,149.012232 250.1063,149.012232 C250.423205,149.012232 250.647152,149.081549 250.77814,149.220183 C250.909128,149.358818 250.974622,149.554536 250.974622,149.807339 L250.974622,149.807339 L253.116905,149.807339 C253.116905,149.489297 253.047186,149.198777 252.907748,148.93578 C252.768309,148.672783 252.568658,148.446483 252.308795,148.256881 C252.048933,148.067278 251.733083,147.91947 251.361247,147.813456 C250.989411,147.707441 250.573208,147.654434 250.112638,147.654434 C249.664744,147.654434 249.265443,147.710499 248.914734,147.82263 C248.564024,147.93476 248.268246,148.086646 248.027397,148.278287 C247.786549,148.469929 247.6038,148.692151 247.47915,148.944954 C247.3545,149.197757 247.292175,149.464832 247.292175,149.746177 C247.292175,150.035678 247.3545,150.292559 247.47915,150.51682 C247.6038,150.741081 247.774929,150.93578 247.992537,151.100917 C248.210146,151.266055 248.465784,151.404689 248.75945,151.51682 C249.053116,151.62895 249.366853,151.719674 249.70066,151.788991 C249.966861,151.846075 250.186582,151.901121 250.359824,151.954128 C250.533066,152.007136 250.670392,152.063201 250.771802,152.122324 C250.873212,152.181448 250.943987,152.243629 250.984129,152.308869 C251.02427,152.374108 251.044341,152.449541 251.044341,152.535168 C251.044341,152.718654 250.971453,152.867482 250.825676,152.981651 C250.679899,153.095821 250.461234,153.152905 250.169681,153.152905 C249.852775,153.152905 249.592912,153.082569 249.390092,152.941896 C249.187273,152.801223 249.081637,152.577982 249.073186,152.272171 L249.073186,152.272171 L247.076679,152.272171 C247.076679,152.537207 247.142173,152.803262 247.273161,153.070336 C247.404149,153.337411 247.597461,153.577982 247.853099,153.792049 C248.108736,154.006116 248.425642,154.180428 248.803816,154.314985 C249.181991,154.449541 249.618265,154.51682 250.112638,154.51682 Z M267.512798,154.51682 C267.740971,154.51682 267.952241,154.501529 268.14661,154.470948 C268.340979,154.440367 268.531123,154.396534 268.717041,154.33945 L268.717041,154.33945 L268.717041,152.865443 C268.645209,152.877676 268.569151,152.88685 268.488868,152.892966 C268.408586,152.899083 268.307176,152.902141 268.184639,152.902141 C268.053651,152.902141 267.94379,152.891947 267.855057,152.87156 C267.766323,152.851172 267.695547,152.815494 267.64273,152.764526 C267.589912,152.713558 267.551883,152.64526 267.528644,152.559633 C267.505404,152.474006 267.493784,152.365953 267.493784,152.235474 L267.493784,152.235474 L267.493784,149.207951 L268.621969,149.207951 L268.621969,147.776758 L267.493784,147.776758 L267.493784,146.131498 L265.357838,146.131498 L265.357838,147.776758 L264.483178,147.776758 L264.483178,149.207951 L265.357838,149.207951 L265.357838,152.492355 C265.357838,152.851172 265.405374,153.159021 265.500446,153.415902 C265.595518,153.672783 265.734956,153.882773 265.918762,154.045872 C266.102567,154.20897 266.328627,154.328236 266.59694,154.40367 C266.865254,154.479103 267.17054,154.51682 267.512798,154.51682 Z M283.220682,154.51682 C283.757309,154.51682 284.231611,154.432212 284.643589,154.262997 C285.055567,154.093782 285.400994,153.859327 285.679871,153.559633 C285.958748,153.259939 286.168962,152.905199 286.310514,152.495413 C286.452065,152.085627 286.522841,151.638124 286.522841,151.152905 L286.522841,151.152905 L286.522841,151.024465 C286.522841,150.543323 286.451009,150.09684 286.307345,149.685015 C286.163681,149.273191 285.95241,148.916412 285.673533,148.614679 C285.394656,148.312946 285.049228,148.077472 284.637251,147.908257 C284.225273,147.739042 283.748858,147.654434 283.208005,147.654434 C282.675603,147.654434 282.203414,147.739042 281.791436,147.908257 C281.379458,148.077472 281.034031,148.312946 280.755154,148.614679 C280.476277,148.916412 280.265006,149.273191 280.121342,149.685015 C279.977678,150.09684 279.905846,150.543323 279.905846,151.024465 L279.905846,151.024465 L279.905846,151.152905 C279.905846,151.638124 279.977678,152.085627 280.121342,152.495413 C280.265006,152.905199 280.477333,153.259939 280.758323,153.559633 C281.039313,153.859327 281.385797,154.093782 281.797774,154.262997 C282.209752,154.432212 282.684054,154.51682 283.220682,154.51682 Z M283.220682,152.926606 C282.992509,152.926606 282.802366,152.880734 282.650251,152.788991 C282.498136,152.697248 282.376656,152.571865 282.285809,152.412844 C282.194963,152.253823 282.131582,152.066259 282.095666,151.850153 C282.05975,151.634047 282.041792,151.401631 282.041792,151.152905 L282.041792,151.152905 L282.041792,151.024465 C282.041792,150.783894 282.060806,150.555556 282.098835,150.33945 C282.136863,150.123344 282.200245,149.93476 282.288978,149.7737 C282.377712,149.61264 282.49708,149.4842 282.647082,149.388379 C282.797084,149.292559 282.984058,149.244648 283.208005,149.244648 C283.436178,149.244648 283.626321,149.292559 283.778436,149.388379 C283.930551,149.4842 284.052031,149.61264 284.142878,149.7737 C284.233724,149.93476 284.297105,150.123344 284.333021,150.33945 C284.368937,150.555556 284.386895,150.783894 284.386895,151.024465 L284.386895,151.024465 L284.386895,151.152905 C284.386895,151.401631 284.367881,151.634047 284.329852,151.850153 C284.291823,152.066259 284.228442,152.253823 284.139709,152.412844 C284.050975,152.571865 283.931607,152.697248 283.781605,152.788991 C283.631603,152.880734 283.444628,152.926606 283.220682,152.926606 Z M300.462389,154.394495 L300.462389,149.721713 C300.555348,149.574924 300.676829,149.458716 300.826831,149.373089 C300.976833,149.287462 301.16592,149.244648 301.394092,149.244648 C301.546207,149.244648 301.682477,149.2579 301.802901,149.284404 C301.923325,149.310907 302.024735,149.360856 302.107131,149.434251 C302.189526,149.507645 302.252907,149.607543 302.297274,149.733945 C302.341641,149.860347 302.363824,150.023445 302.363824,150.223242 L302.363824,150.223242 L302.363824,154.394495 L304.506108,154.394495 L304.506108,150.229358 C304.506108,149.748216 304.454347,149.343527 304.350824,149.015291 C304.247302,148.687054 304.100469,148.422018 303.910325,148.220183 C303.720182,148.018349 303.493066,147.873598 303.228977,147.785933 C302.964889,147.698267 302.674392,147.654434 302.357486,147.654434 C301.947621,147.654434 301.576841,147.730887 301.245147,147.883792 C300.913452,148.036697 300.631406,148.259939 300.399008,148.553517 L300.399008,148.553517 L300.329289,147.776758 L298.326444,147.776758 L298.326444,154.394495 L300.462389,154.394495 Z M319.909762,154.51682 C320.239344,154.51682 320.545686,154.48318 320.828789,154.415902 C321.111891,154.348624 321.367529,154.260958 321.595701,154.152905 C321.823873,154.044852 322.023524,153.921509 322.194653,153.782875 C322.365782,153.644241 322.506277,153.501529 322.616138,153.35474 L322.616138,153.35474 L321.640068,152.24159 C321.437248,152.486239 321.195343,152.66157 320.914353,152.767584 C320.633363,152.873598 320.347092,152.926606 320.055538,152.926606 C319.645673,152.926606 319.311866,152.820591 319.054116,152.608563 C318.796366,152.396534 318.629462,152.104995 318.553405,151.733945 L318.553405,151.733945 L322.799943,151.733945 L322.799943,150.896024 C322.799943,150.398573 322.729168,149.950051 322.587616,149.550459 C322.446065,149.150866 322.241133,148.810398 321.972819,148.529052 C321.704505,148.247706 321.377036,148.0316 320.990411,147.880734 C320.603785,147.729867 320.167512,147.654434 319.681589,147.654434 C319.132286,147.654434 318.651645,147.7421 318.239668,147.917431 C317.82769,148.092762 317.483319,148.333333 317.206555,148.639144 C316.92979,148.944954 316.722745,149.30683 316.585419,149.724771 C316.448093,150.142712 316.37943,150.592253 316.37943,151.073394 L316.37943,151.073394 L316.37943,151.30581 C316.37943,151.7421 316.458657,152.153925 316.61711,152.541284 C316.775563,152.928644 317.004791,153.269113 317.304795,153.562691 C317.6048,153.856269 317.974523,154.088685 318.413966,154.259939 C318.853409,154.431193 319.352007,154.51682 319.909762,154.51682 Z M320.708364,150.443425 L318.553405,150.443425 C318.578757,150.272171 318.616786,150.11315 318.667491,149.966361 C318.718196,149.819572 318.786858,149.69317 318.873479,149.587156 C318.9601,149.481142 319.068905,149.397554 319.199892,149.336391 C319.33088,149.275229 319.48722,149.244648 319.668913,149.244648 C320.006946,149.244648 320.266809,149.335372 320.448502,149.51682 C320.630194,149.698267 320.716815,149.954128 320.708364,150.284404 L320.708364,150.284404 L320.708364,150.443425 Z M337.525418,154.394495 L338.666279,150.46789 L339.800802,154.394495 L341.607166,154.394495 L343.223386,147.776758 L341.176174,147.776758 L340.485319,151.678899 L339.407839,147.776758 L337.918381,147.776758 L336.828225,151.770642 L336.150047,147.776758 L334.102835,147.776758 L335.719055,154.394495 L337.525418,154.394495 Z M358.208724,154.51682 C358.538306,154.51682 358.844648,154.48318 359.127751,154.415902 C359.410853,154.348624 359.666491,154.260958 359.894663,154.152905 C360.122835,154.044852 360.322486,153.921509 360.493615,153.782875 C360.664744,153.644241 360.805239,153.501529 360.9151,153.35474 L360.9151,153.35474 L359.93903,152.24159 C359.73621,152.486239 359.494305,152.66157 359.213315,152.767584 C358.932325,152.873598 358.646054,152.926606 358.3545,152.926606 C357.944635,152.926606 357.610828,152.820591 357.353078,152.608563 C357.095328,152.396534 356.928424,152.104995 356.852366,151.733945 L356.852366,151.733945 L361.098905,151.733945 L361.098905,150.896024 C361.098905,150.398573 361.02813,149.950051 360.886578,149.550459 C360.745027,149.150866 360.540094,148.810398 360.271781,148.529052 C360.003467,148.247706 359.675998,148.0316 359.289373,147.880734 C358.902747,147.729867 358.466474,147.654434 357.980551,147.654434 C357.431248,147.654434 356.950607,147.7421 356.53863,147.917431 C356.126652,148.092762 355.782281,148.333333 355.505517,148.639144 C355.228752,148.944954 355.021707,149.30683 354.884381,149.724771 C354.747055,150.142712 354.678392,150.592253 354.678392,151.073394 L354.678392,151.073394 L354.678392,151.30581 C354.678392,151.7421 354.757619,152.153925 354.916072,152.541284 C355.074525,152.928644 355.303753,153.269113 355.603757,153.562691 C355.903762,153.856269 356.273485,154.088685 356.712928,154.259939 C357.152371,154.431193 357.650969,154.51682 358.208724,154.51682 Z M359.007326,150.443425 L356.852366,150.443425 C356.877719,150.272171 356.915748,150.11315 356.966453,149.966361 C357.017158,149.819572 357.08582,149.69317 357.172441,149.587156 C357.259062,149.481142 357.367867,149.397554 357.498854,149.336391 C357.629842,149.275229 357.786182,149.244648 357.967875,149.244648 C358.305908,149.244648 358.565771,149.335372 358.747464,149.51682 C358.929156,149.698267 359.015777,149.954128 359.007326,150.284404 L359.007326,150.284404 L359.007326,150.443425 Z M375.114511,154.394495 L375.114511,145 L372.972227,145 L372.972227,154.394495 L375.114511,154.394495 Z M389.586461,154.394495 L389.586461,145 L387.444178,145 L387.444178,154.394495 L389.586461,154.394495 Z M403.899959,154.394495 L403.899959,149.721713 C403.992918,149.574924 404.114398,149.458716 404.2644,149.373089 C404.414403,149.287462 404.60349,149.244648 404.831662,149.244648 C404.983777,149.244648 405.120046,149.2579 405.240471,149.284404 C405.360895,149.310907 405.462305,149.360856 405.5447,149.434251 C405.627096,149.507645 405.690477,149.607543 405.734844,149.733945 C405.779211,149.860347 405.801394,150.023445 405.801394,150.223242 L405.801394,150.223242 L405.801394,154.394495 L407.943678,154.394495 L407.943678,150.229358 C407.943678,149.748216 407.891916,149.343527 407.788394,149.015291 C407.684871,148.687054 407.538038,148.422018 407.347895,148.220183 C407.157751,148.018349 406.930635,147.873598 406.666547,147.785933 C406.402459,147.698267 406.111962,147.654434 405.795056,147.654434 C405.385191,147.654434 405.014411,147.730887 404.682716,147.883792 C404.351021,148.036697 404.068975,148.259939 403.836578,148.553517 L403.836578,148.553517 L403.766858,147.776758 L401.764013,147.776758 L401.764013,154.394495 L403.899959,154.394495 Z M423.347331,154.51682 C423.676913,154.51682 423.983256,154.48318 424.266358,154.415902 C424.549461,154.348624 424.805098,154.260958 425.03327,154.152905 C425.261443,154.044852 425.461093,153.921509 425.632223,153.782875 C425.803352,153.644241 425.943847,153.501529 426.053707,153.35474 L426.053707,153.35474 L425.077637,152.24159 C424.874817,152.486239 424.632913,152.66157 424.351923,152.767584 C424.070933,152.873598 423.784661,152.926606 423.493108,152.926606 C423.083243,152.926606 422.749435,152.820591 422.491685,152.608563 C422.233935,152.396534 422.067031,152.104995 421.990974,151.733945 L421.990974,151.733945 L426.237513,151.733945 L426.237513,150.896024 C426.237513,150.398573 426.166737,149.950051 426.025186,149.550459 C425.883635,149.150866 425.678702,148.810398 425.410388,148.529052 C425.142075,148.247706 424.814605,148.0316 424.42798,147.880734 C424.041355,147.729867 423.605081,147.654434 423.119159,147.654434 C422.569855,147.654434 422.089215,147.7421 421.677237,147.917431 C421.26526,148.092762 420.920889,148.333333 420.644124,148.639144 C420.36736,148.944954 420.160314,149.30683 420.022989,149.724771 C419.885663,150.142712 419.817,150.592253 419.817,151.073394 L419.817,151.073394 L419.817,151.30581 C419.817,151.7421 419.896226,152.153925 420.054679,152.541284 C420.213132,152.928644 420.442361,153.269113 420.742365,153.562691 C421.042369,153.856269 421.412093,154.088685 421.851535,154.259939 C422.290978,154.431193 422.789577,154.51682 423.347331,154.51682 Z M424.145934,150.443425 L421.990974,150.443425 C422.016327,150.272171 422.054355,150.11315 422.10506,149.966361 C422.155765,149.819572 422.224428,149.69317 422.311049,149.587156 C422.39767,149.481142 422.506474,149.397554 422.637462,149.336391 C422.76845,149.275229 422.92479,149.244648 423.106483,149.244648 C423.444516,149.244648 423.704378,149.335372 423.886071,149.51682 C424.067764,149.698267 424.154385,149.954128 424.145934,150.284404 L424.145934,150.284404 L424.145934,150.443425 Z M440.658758,154.51682 C441.119328,154.51682 441.533418,154.464832 441.901029,154.360856 C442.26864,154.256881 442.582377,154.114169 442.84224,153.932722 C443.102102,153.751274 443.301753,153.536188 443.441192,153.287462 C443.58063,153.038736 443.65035,152.767584 443.65035,152.474006 C443.65035,152.123344 443.577461,151.827727 443.431684,151.587156 C443.285908,151.346585 443.090482,151.14577 442.845409,150.984709 C442.600335,150.823649 442.318289,150.695209 441.99927,150.599388 C441.680251,150.503568 441.3475,150.425076 441.001016,150.363914 C440.599602,150.29052 440.309105,150.196738 440.129525,150.082569 C439.949945,149.9684 439.860155,149.821611 439.860155,149.642202 C439.860155,149.54842 439.881282,149.462793 439.923536,149.385321 C439.965791,149.307849 440.022834,149.24159 440.094666,149.186544 C440.166498,149.131498 440.24995,149.088685 440.345021,149.058104 C440.440093,149.027523 440.542559,149.012232 440.65242,149.012232 C440.969326,149.012232 441.193273,149.081549 441.32426,149.220183 C441.455248,149.358818 441.520742,149.554536 441.520742,149.807339 L441.520742,149.807339 L443.663026,149.807339 C443.663026,149.489297 443.593306,149.198777 443.453868,148.93578 C443.314429,148.672783 443.114779,148.446483 442.854916,148.256881 C442.595053,148.067278 442.279203,147.91947 441.907367,147.813456 C441.535531,147.707441 441.119328,147.654434 440.658758,147.654434 C440.210864,147.654434 439.811563,147.710499 439.460854,147.82263 C439.110145,147.93476 438.814366,148.086646 438.573517,148.278287 C438.332669,148.469929 438.14992,148.692151 438.02527,148.944954 C437.900621,149.197757 437.838296,149.464832 437.838296,149.746177 C437.838296,150.035678 437.900621,150.292559 438.02527,150.51682 C438.14992,150.741081 438.321049,150.93578 438.538658,151.100917 C438.756267,151.266055 439.011904,151.404689 439.30557,151.51682 C439.599236,151.62895 439.912973,151.719674 440.24678,151.788991 C440.512981,151.846075 440.732703,151.901121 440.905945,151.954128 C441.079187,152.007136 441.216512,152.063201 441.317922,152.122324 C441.419332,152.181448 441.490108,152.243629 441.530249,152.308869 C441.570391,152.374108 441.590461,152.449541 441.590461,152.535168 C441.590461,152.718654 441.517573,152.867482 441.371796,152.981651 C441.22602,153.095821 441.007355,153.152905 440.715801,153.152905 C440.398895,153.152905 440.139032,153.082569 439.936213,152.941896 C439.733393,152.801223 439.627758,152.577982 439.619307,152.272171 L439.619307,152.272171 L437.6228,152.272171 C437.6228,152.537207 437.688294,152.803262 437.819281,153.070336 C437.950269,153.337411 438.143582,153.577982 438.399219,153.792049 C438.654857,154.006116 438.971763,154.180428 439.349937,154.314985 C439.728111,154.449541 440.164385,154.51682 440.658758,154.51682 Z M458.211033,154.51682 C458.671603,154.51682 459.085694,154.464832 459.453305,154.360856 C459.820915,154.256881 460.134652,154.114169 460.394515,153.932722 C460.654378,153.751274 460.854028,153.536188 460.993467,153.287462 C461.132906,153.038736 461.202625,152.767584 461.202625,152.474006 C461.202625,152.123344 461.129737,151.827727 460.98396,151.587156 C460.838183,151.346585 460.642758,151.14577 460.397684,150.984709 C460.15261,150.823649 459.870564,150.695209 459.551545,150.599388 C459.232527,150.503568 458.899776,150.425076 458.553292,150.363914 C458.151878,150.29052 457.861381,150.196738 457.681801,150.082569 C457.502221,149.9684 457.412431,149.821611 457.412431,149.642202 C457.412431,149.54842 457.433558,149.462793 457.475812,149.385321 C457.518066,149.307849 457.575109,149.24159 457.646941,149.186544 C457.718773,149.131498 457.802225,149.088685 457.897297,149.058104 C457.992368,149.027523 458.094835,149.012232 458.204695,149.012232 C458.521601,149.012232 458.745548,149.081549 458.876536,149.220183 C459.007524,149.358818 459.073017,149.554536 459.073017,149.807339 L459.073017,149.807339 L461.215301,149.807339 C461.215301,149.489297 461.145582,149.198777 461.006143,148.93578 C460.866705,148.672783 460.667054,148.446483 460.407191,148.256881 C460.147328,148.067278 459.831479,147.91947 459.459643,147.813456 C459.087806,147.707441 458.671603,147.654434 458.211033,147.654434 C457.76314,147.654434 457.363838,147.710499 457.013129,147.82263 C456.66242,147.93476 456.366641,148.086646 456.125793,148.278287 C455.884944,148.469929 455.702195,148.692151 455.577546,148.944954 C455.452896,149.197757 455.390571,149.464832 455.390571,149.746177 C455.390571,150.035678 455.452896,150.292559 455.577546,150.51682 C455.702195,150.741081 455.873325,150.93578 456.090933,151.100917 C456.308542,151.266055 456.564179,151.404689 456.857845,151.51682 C457.151512,151.62895 457.465248,151.719674 457.799056,151.788991 C458.065257,151.846075 458.284978,151.901121 458.45822,151.954128 C458.631462,152.007136 458.768788,152.063201 458.870198,152.122324 C458.971608,152.181448 459.042383,152.243629 459.082525,152.308869 C459.122666,152.374108 459.142737,152.449541 459.142737,152.535168 C459.142737,152.718654 459.069848,152.867482 458.924072,152.981651 C458.778295,153.095821 458.55963,153.152905 458.268077,153.152905 C457.951171,153.152905 457.691308,153.082569 457.488488,152.941896 C457.285668,152.801223 457.180033,152.577982 457.171582,152.272171 L457.171582,152.272171 L455.175075,152.272171 C455.175075,152.537207 455.240569,152.803262 455.371557,153.070336 C455.502545,153.337411 455.695857,153.577982 455.951495,153.792049 C456.207132,154.006116 456.524038,154.180428 456.902212,154.314985 C457.280387,154.449541 457.71666,154.51682 458.211033,154.51682 Z M474.425966,154.461774 C474.599208,154.461774 474.758717,154.43527 474.904494,154.382263 C475.050271,154.329256 475.17492,154.256881 475.278443,154.165138 C475.381965,154.073394 475.462248,153.964322 475.519291,153.83792 C475.576334,153.711519 475.604856,153.574924 475.604856,153.428135 C475.604856,153.281346 475.576334,153.14475 475.519291,153.018349 C475.462248,152.891947 475.381965,152.782875 475.278443,152.691131 C475.17492,152.599388 475.050271,152.527013 474.904494,152.474006 C474.758717,152.420999 474.599208,152.394495 474.425966,152.394495 C474.248499,152.394495 474.087933,152.420999 473.944269,152.474006 C473.800605,152.527013 473.677012,152.599388 473.573489,152.691131 C473.469967,152.782875 473.389684,152.891947 473.332641,153.018349 C473.275598,153.14475 473.247076,153.281346 473.247076,153.428135 C473.247076,153.574924 473.275598,153.711519 473.332641,153.83792 C473.389684,153.964322 473.469967,154.073394 473.573489,154.165138 C473.677012,154.256881 473.800605,154.329256 473.944269,154.382263 C474.087933,154.43527 474.248499,154.461774 474.425966,154.461774 Z M490.881747,154.51682 C491.291612,154.51682 491.674012,154.457696 492.028946,154.33945 C492.383881,154.221203 492.690223,154.053007 492.947973,153.834862 C493.205724,153.616718 493.407487,153.355759 493.553264,153.051988 C493.69904,152.748216 493.771929,152.408767 493.771929,152.033639 L493.771929,152.033639 L491.769084,152.033639 C491.773309,152.314985 491.693026,152.534149 491.528235,152.691131 C491.363444,152.848114 491.131046,152.926606 490.831042,152.926606 C490.607095,152.926606 490.426459,152.880734 490.289133,152.788991 C490.151807,152.697248 490.047228,152.570846 489.975396,152.409786 C489.903564,152.248726 489.856028,152.061162 489.832789,151.847095 C489.809549,151.633028 489.797929,151.40367 489.797929,151.159021 L489.797929,151.159021 L489.797929,151.018349 C489.797929,150.781855 489.809549,150.555556 489.832789,150.33945 C489.856028,150.123344 489.903564,149.93476 489.975396,149.7737 C490.047228,149.61264 490.149695,149.4842 490.282795,149.388379 C490.415896,149.292559 490.592306,149.244648 490.812028,149.244648 C490.976819,149.244648 491.119427,149.272171 491.239851,149.327217 C491.360275,149.382263 491.460629,149.457696 491.540911,149.553517 C491.621194,149.649337 491.679294,149.762487 491.71521,149.892966 C491.751126,150.023445 491.769084,150.16208 491.769084,150.308869 L491.769084,150.308869 L493.771929,150.308869 C493.771929,149.888889 493.701153,149.513761 493.559602,149.183486 C493.41805,148.853211 493.219456,148.574924 492.963819,148.348624 C492.708181,148.122324 492.401839,147.950051 492.044792,147.831804 C491.687744,147.713558 491.293725,147.654434 490.862733,147.654434 C490.330331,147.654434 489.864479,147.740061 489.465178,147.911315 C489.065877,148.082569 488.733125,148.318043 488.466924,148.617737 C488.200723,148.917431 488.000016,149.273191 487.864803,149.685015 C487.72959,150.09684 487.661984,150.541284 487.661984,151.018349 L487.661984,151.018349 L487.661984,151.159021 C487.661984,151.636086 487.72959,152.079511 487.864803,152.489297 C488.000016,152.899083 488.20178,153.253823 488.470093,153.553517 C488.738407,153.853211 489.073271,154.088685 489.474685,154.259939 C489.876099,154.431193 490.34512,154.51682 490.881747,154.51682 Z M508.624166,154.51682 C509.160793,154.51682 509.635096,154.432212 510.047073,154.262997 C510.459051,154.093782 510.804478,153.859327 511.083356,153.559633 C511.362233,153.259939 511.572447,152.905199 511.713998,152.495413 C511.85555,152.085627 511.926325,151.638124 511.926325,151.152905 L511.926325,151.152905 L511.926325,151.024465 C511.926325,150.543323 511.854493,150.09684 511.710829,149.685015 C511.567165,149.273191 511.355895,148.916412 511.077018,148.614679 C510.79814,148.312946 510.452713,148.077472 510.040735,147.908257 C509.628758,147.739042 509.152343,147.654434 508.61149,147.654434 C508.079088,147.654434 507.606898,147.739042 507.194921,147.908257 C506.782943,148.077472 506.437516,148.312946 506.158638,148.614679 C505.879761,148.916412 505.668491,149.273191 505.524827,149.685015 C505.381163,150.09684 505.309331,150.543323 505.309331,151.024465 L505.309331,151.024465 L505.309331,151.152905 C505.309331,151.638124 505.381163,152.085627 505.524827,152.495413 C505.668491,152.905199 505.880818,153.259939 506.161807,153.559633 C506.442797,153.859327 506.789281,154.093782 507.201259,154.262997 C507.613236,154.432212 508.087539,154.51682 508.624166,154.51682 Z M508.624166,152.926606 C508.395994,152.926606 508.20585,152.880734 508.053735,152.788991 C507.901621,152.697248 507.78014,152.571865 507.689294,152.412844 C507.598447,152.253823 507.535066,152.066259 507.49915,151.850153 C507.463234,151.634047 507.445276,151.401631 507.445276,151.152905 L507.445276,151.152905 L507.445276,151.024465 C507.445276,150.783894 507.464291,150.555556 507.502319,150.33945 C507.540348,150.123344 507.603729,149.93476 507.692463,149.7737 C507.781196,149.61264 507.900564,149.4842 508.050566,149.388379 C508.200569,149.292559 508.387543,149.244648 508.61149,149.244648 C508.839662,149.244648 509.029806,149.292559 509.18192,149.388379 C509.334035,149.4842 509.455516,149.61264 509.546362,149.7737 C509.637209,149.93476 509.70059,150.123344 509.736506,150.33945 C509.772422,150.555556 509.79038,150.783894 509.79038,151.024465 L509.79038,151.024465 L509.79038,151.152905 C509.79038,151.401631 509.771365,151.634047 509.733337,151.850153 C509.695308,152.066259 509.631927,152.253823 509.543193,152.412844 C509.454459,152.571865 509.335092,152.697248 509.185089,152.788991 C509.035087,152.880734 508.848113,152.926606 508.624166,152.926606 Z M525.922917,154.394495 L525.922917,149.788991 C526.024327,149.617737 526.154258,149.4842 526.312711,149.388379 C526.471164,149.292559 526.653913,149.244648 526.860958,149.244648 C526.991946,149.244648 527.109201,149.256881 527.212724,149.281346 C527.316246,149.30581 527.402867,149.35474 527.472586,149.428135 C527.542306,149.501529 527.595123,149.603466 527.631039,149.733945 C527.666955,149.864424 527.684913,150.033639 527.684913,150.24159 L527.684913,150.24159 L527.684913,154.394495 L529.827197,154.394495 L529.827197,149.883792 C529.827197,149.853211 529.825084,149.821611 529.820859,149.788991 C529.918043,149.617737 530.044806,149.4842 530.201146,149.388379 C530.357486,149.292559 530.545517,149.244648 530.765238,149.244648 C530.892001,149.244648 531.007143,149.2579 531.110666,149.284404 C531.214188,149.310907 531.300809,149.359837 531.370529,149.431193 C531.440248,149.502548 531.494122,149.602446 531.532151,149.730887 C531.570179,149.859327 531.589194,150.025484 531.589194,150.229358 L531.589194,150.229358 L531.589194,154.394495 L533.731477,154.394495 L533.731477,150.229358 C533.731477,149.748216 533.67866,149.343527 533.573025,149.015291 C533.467389,148.687054 533.3195,148.422018 533.129356,148.220183 C532.939213,148.018349 532.713153,147.873598 532.451178,147.785933 C532.189202,147.698267 531.901874,147.654434 531.589194,147.654434 C531.132849,147.654434 530.737773,147.7421 530.403966,147.917431 C530.070158,148.092762 529.793394,148.337411 529.573672,148.651376 C529.413107,148.300714 529.180709,148.046891 528.876479,147.889908 C528.57225,147.732926 528.219428,147.654434 527.818014,147.654434 C527.387022,147.654434 527.009904,147.733945 526.68666,147.892966 C526.363416,148.051988 526.087708,148.272171 525.859536,148.553517 L525.859536,148.553517 L525.789816,147.776758 L523.786971,147.776758 L523.786971,154.394495 L525.922917,154.394495 Z" id="www.greenstonewellness.com" fill="#FFFFFF" fill-rule="nonzero"></path>
                </g>
            </g>
        </g>
    </g>
</svg>