<?xml version="1.0" encoding="UTF-8"?>
<svg width="991px" height="669px" viewBox="0 0 991 669" version="1.1" xmlns="http://www.w3.org/2000/svg" xmlns:xlink="http://www.w3.org/1999/xlink">
    <title>logo v3 grad + red</title>
    <defs>
        <rect id="path-1" x="0" y="0" width="991" height="669"></rect>
        <radialGradient cx="37.2150683%" cy="58.8795631%" fx="37.2150683%" fy="58.8795631%" r="57.5987777%" gradientTransform="translate(0.372151,0.588796),scale(1.000000,0.854903),rotate(-28.653931),scale(1.000000,1.610851),translate(-0.372151,-0.588796)" id="radialGradient-3">
            <stop stop-color="#D0A590" offset="0%"></stop>
            <stop stop-color="#C67A56" offset="100%"></stop>
        </radialGradient>
        <radialGradient cx="23.7789805%" cy="55.0029157%" fx="23.7789805%" fy="55.0029157%" r="56.9597499%" gradientTransform="translate(0.237790,0.550029),scale(1.000000,0.944680),rotate(12.126645),scale(1.000000,1.938950),translate(-0.237790,-0.550029)" id="radialGradient-4">
            <stop stop-color="#D6A790" offset="0%"></stop>
            <stop stop-color="#C78666" offset="100%"></stop>
        </radialGradient>
        <path d="M214.528326,161.660866 C262.234975,181.763226 311.688148,231.651993 344.072862,232.445171 C356.785072,218.385609 385.023341,182.671516 451.097804,164.577818 C596.401695,124.788095 491.527943,262.700002 353.372115,249.53181 C344.0219,262.211653 373.143582,266.015122 404.365694,267.357713 C441.379016,268.949333 431.733255,289.483774 373.862194,296.46616 C214.04178,315.749164 208.597017,451.308054 305.426594,451.521073 C338.735075,451.594349 360.707485,437.379107 372.222725,419.516385 L372.551244,418.999121 L369.076701,421.056827 C255.020693,486.515953 215.732269,307.172827 366.016916,334.089579 C367.645942,334.381346 369.178416,334.715051 370.615843,335.084393 C374.483066,335.914165 378.388412,337.142706 382.119918,338.836097 C393.895455,344.179938 403.035497,351.75007 409.444522,360.648055 C428.771274,336.549944 447.254271,307.347358 478.52383,286.600209 C512.904125,263.789107 525.597646,267.080918 516.604392,296.475641 C552.920097,254.066429 592.784019,222.344207 636.196156,201.308973 C701.314362,169.756123 718.506517,209.939726 620.314259,311.220422 C593.916007,338.448978 554.914654,370.324084 544.641679,414.147521 C558.633221,406.681413 598.520897,377.111126 652.157781,376.074717 C717.33516,374.815316 667.784223,439.404732 594.358212,467.03908 C545.133393,485.565155 520.093996,478.715871 514.825584,454.761499 C493.385387,476.508931 491.978372,497.213661 493.760481,524.769336 C467.706861,474.164423 511.544824,439.196413 514.543165,435.213774 C515.312181,430.93318 517.552811,414.692045 534.903433,380.741016 C548.896246,353.360418 573.105049,318.727198 607.434159,281.803463 C675.907875,208.154442 587.174401,256.68656 537.818659,309.681925 C511.931498,337.478073 494.00586,367.298135 481.96571,387.3735 L480.159533,390.383549 C462.849887,419.195153 458.766267,424.323561 460.720859,365.022542 C461.566038,339.380405 467.528679,346.466661 485.29898,317.918848 C497.793162,297.847068 452.90455,342.031649 427.203893,371.147546 C424.753627,373.923416 422.322254,376.594809 419.910467,379.16445 L418.717244,380.427121 L419.065194,381.856277 C429.96884,429.296079 382.098978,490.869801 266.272297,480.202821 C129.63608,467.6194 178.82666,271.556005 352.508644,279.822243 C330.740669,276.726901 326.637603,259.307799 334.666079,247.396566 C283.176602,241.061713 195.470065,164.581225 130.230542,192.350917 C92.7652508,208.298299 102.613067,250.402451 87.4192791,266.748795 C83.2524029,271.231758 80.7978438,266.31009 78.6104821,259.980161 L78.4405538,259.484209 L78.4405538,259.484209 L78.2551686,258.93448 L78.2089737,258.796264 L78.2089737,258.796264 L77.9787503,258.101346 C77.2744117,255.961791 76.5836825,253.754475 75.8556883,251.760904 C54.2183344,192.508235 97.1651886,112.207045 214.528326,161.660866 Z M581.240695,413.691716 C567.996197,418.439483 561.155768,422.482811 554.60553,426.89338 L553.891816,427.376042 C550.207202,429.877851 546.544149,432.508708 541.807908,435.460507 C541.968551,458.04532 588.536324,444.044329 612.94324,431.348995 C658.783898,407.504834 625.880714,397.689571 581.240695,413.691716 Z M338.830318,403.983288 C356.323266,403.144169 370.035122,397.39501 381.877848,388.637163 C382.159971,372.365012 374.865513,357.752948 360.575564,351.841273 L360.44638,351.78591 C302.14532,337.193496 289.082978,406.36962 338.830318,403.983288 Z M456.611548,210.991083 C482.326796,196.941206 492.754188,176.677963 443.716261,192.385309 C417.492242,200.785129 382.030317,220.719677 366.459185,235.375001 C375.687315,235.584113 417.329265,232.453497 456.611548,210.991083 Z" id="path-5"></path>
        <filter x="-0.5%" y="-0.8%" width="101.0%" height="101.6%" filterUnits="objectBoundingBox" id="filter-6">
            <feMorphology radius="3" operator="erode" in="SourceAlpha" result="shadowSpreadInner1"></feMorphology>
            <feOffset dx="0" dy="-3" in="shadowSpreadInner1" result="shadowOffsetInner1"></feOffset>
            <feComposite in="shadowOffsetInner1" in2="SourceAlpha" operator="arithmetic" k2="-1" k3="1" result="shadowInnerInner1"></feComposite>
            <feColorMatrix values="0 0 0 0 1   0 0 0 0 0.596969925   0 0 0 0 0  0 0 0 1 0" type="matrix" in="shadowInnerInner1"></feColorMatrix>
        </filter>
        <radialGradient cx="90.6756081%" cy="23.3773205%" fx="90.6756081%" fy="23.3773205%" r="139.148358%" gradientTransform="translate(0.906756,0.233773),scale(0.581330,1.000000),rotate(160.528448),scale(1.000000,0.151273),translate(-0.906756,-0.233773)" id="radialGradient-7">
            <stop stop-color="#FF7100" offset="0%"></stop>
            <stop stop-color="#9D0000" offset="100%"></stop>
        </radialGradient>
        <path d="M652.689572,448.891137 C666.125114,456.473235 681.929008,456.978834 700.101255,450.407935 C691.308486,484.038554 678.285663,505.98232 661.032787,516.239232 C592.096284,557.22229 576.66996,476.801424 645.270315,483.473264 C594.881863,498.434713 641.720192,532.538955 663.02273,489.03987 C677.577069,459.320386 604.556148,459.19664 564.041529,520.685351 C538.046272,560.138143 508.963494,578.590139 476.793195,576.04134 C502.795435,570.155435 514.920086,555.915663 513.167147,533.322025 C511.435436,511.001982 527.100787,498.528307 538.644967,508.675801 C524.702163,510.535716 528.517128,526.650992 543.010309,522.129444 C556.279607,517.98972 553.371996,491.649476 525.012298,497.149668 C512.893526,499.500031 505.734361,517.511163 503.534803,551.183063 C497.269244,511.95054 500.072307,485.427567 511.94399,471.614145 C529.751354,508.149168 591.293515,486.835429 652.689572,448.891137 Z M477.565995,476.133246 C474.908855,482.795985 474.238157,490.841284 475.103717,499.395226 C471.180802,492.016237 455.827456,495.32619 455.481554,507.689888 C455.108221,521.034065 474.412104,522.840332 476.031313,505.904006 C475.968028,520.056084 472.224596,531.960264 460.445414,538.896388 C449.965569,545.067401 436.18465,536.395591 440.857746,525.912839 C438.912178,531.986724 447.142105,533.156385 449.509767,527.454443 C454.027598,516.574341 439.352947,512.028642 431.485106,519.380788 C418.871241,531.167885 429.802755,552.370054 449.983203,552.405849 C457.129125,552.418524 464.299619,547.629564 468.425952,546.02085 C482.199728,540.650932 482.161774,555.939218 472.608017,556.187971 C478.695539,551.323825 469.587753,546.263838 465.502624,552.657804 C458.374271,563.814964 483.023967,573.275753 486.513193,553.004473 C488.160996,543.431275 476.588048,538.811064 481.477024,520.659282 C483.468143,535.518285 513.929848,559.285216 480.158949,568.895743 C465.24939,573.138707 439.008257,571.755743 414.001669,535.484156 C392.526083,504.334222 347.799935,532.417124 375.52593,543.848556 C394.150756,551.527575 392.959647,531.178026 382.199211,532.892127 C408.895227,520.724501 417.203546,552.135805 393.485214,553.71706 C336.438323,557.520264 261.408761,528.844489 221.502025,496.475883 C319.935197,555.387522 453.097575,499.516207 477.565995,476.133246 Z M476.709184,420.531991 C537.254844,307.913578 617.02607,256.106231 570.2507,308.392044 C543.961976,337.777752 522.009729,371.276574 504.210576,424.15409 C479.513781,497.523044 303.788431,558.448864 188.952227,468.548194 C141.094625,431.082392 102.514302,391.580431 166.181897,350.813056 C185.247223,338.605224 165.986293,329.905874 163.75391,341.46903 C158.198238,324.481864 192.271448,324.896872 177.552713,347.799272 C161.139563,373.338188 131.257281,385.022534 156.921044,424.870614 C136.748768,382.909196 177.022131,374.1565 184.483723,340.372597 C190.449141,313.362935 151.883134,318.15005 159.566851,343.550082 C139.487764,300.800486 217.636084,297.846449 189.811059,349.093128 C178.193214,370.490268 159.801369,416.71121 195.836276,460.38384 C239.457967,513.251301 423.032581,520.373562 476.709184,420.531991 Z M449.746851,363.7005 C448.694794,379.921182 450.511799,392.172214 449.967678,400.770174 C449.320366,410.998729 447.08284,416.386028 443.136338,415.56898 C437.652507,414.433658 436.922358,400.79918 442.525212,395.49569 C439.292293,401.752811 444.329263,407.205681 446.17655,398.378482 C447.79297,390.654468 444.660222,381.493985 441.280422,384.448704 C433.179927,391.530391 437.848637,422.409774 440.377145,428.427502 C444.414192,438.035483 451.848793,421.505529 451.962906,412.069708 C453.678009,425.742327 454.022249,433.32346 449.77038,439.424974 C429.495921,468.519215 366.534864,490.092039 317.341184,491.017326 C381.268965,484.007022 406.677051,460.297819 419.484836,443.957194 C432.292621,427.61657 434.482474,402.324671 431.696553,384.539945 C435.404281,379.984462 438.675355,376.320938 441.87807,372.733216 L443.076603,371.389779 C445.270677,368.927482 447.4542,366.452792 449.746851,363.7005 Z M690.745675,245.107837 C706.189818,268.902108 723.753991,273.859609 743.438194,259.980341 C772.964499,239.161437 744.322831,314.380283 720.731597,346.844063 C727.805999,317.227629 723.901915,280.778803 702.449263,272.167114 C680.996611,263.555425 676.964845,282.669433 682.458613,304.329419 C687.95238,325.989404 675.725555,361.024127 717.46895,377.871686 C758.767912,394.539874 755.20663,349.22917 731.797869,359.877384 C750.289748,331.102391 778.661394,356.248604 758.57346,391.872756 C739.115164,426.380303 697.200121,455.470801 659.991417,441.398784 C680.658658,437.820491 705.274118,427.664845 709.067419,407.049589 C702.411393,421.178307 684.049327,428.623391 668.837197,431.373242 C695.945722,418.692735 709.020921,372.95499 680.858774,365.795317 C641.416636,355.767927 580.029355,380.670567 567.106953,388.896034 C575.432337,375.585927 607.544217,334.899483 630.148063,322.136837 C661.152312,304.631132 678.395825,346.74861 643.674022,346.417054 C655.453494,337.431783 643.695502,326.353417 633.094568,332.271165 C623.753461,337.485641 621.317385,353.089106 639.018637,357.009545 C684.67586,367.121618 691.68595,298.546321 643.209846,307.424241 C659.024287,292.782504 674.869564,272.01037 690.745675,245.107837 Z M484.154295,229.032819 C477.119313,238.100654 472.092791,261.187557 469.298641,269.831355 C464.009046,286.194892 440.321838,276.193109 453.56114,262.594179 C448.906083,274.363823 473.068504,264.372627 458.845471,254.545037 C451.935556,249.770541 441.024632,255.188215 443.039054,269.84803 C445.053477,284.507845 455.958221,288.612614 468.332465,282.927831 C455.330073,294.872423 423.131282,320.843574 410.859803,344.674278 C376.375438,320.377359 332.008898,320.002389 314.03415,323.93287 C373.333433,291.695469 384.808346,339.196387 422.86299,305.51377 C401.409841,315.801077 380.174507,308.158869 370.116691,304.476355 C447.313558,298.744913 443.482743,273.927285 433.140637,266.341551 C422.798531,258.755818 414.652667,261.211305 392.269573,258.631339 C434.955017,256.102422 458.270955,244.028631 484.154295,229.032819 Z M112.3455,231.860395 C112.187424,247.631677 119.384701,264.033052 140.470573,268.932807 C161.556445,273.832563 179.465577,261.36018 192.332651,246.996718 C194.515587,258.35236 209.876049,283.259363 240.143617,287.974941 C233.955757,290.225405 216.134414,287.838576 211.160861,283.395075 C218.512946,293.353431 237.13281,291.684997 246.854618,289.582118 C229.470916,304.63073 211.164119,304.234304 204.847423,301.661554 C209.180893,308.68827 208.310276,320.442661 202.898881,327.962698 C203.739675,293.727176 144.866259,293.851826 150.486518,331.407168 C135.299915,308.546815 151.369238,287.411153 182.373437,292.294022 C217.459691,297.819776 210.560936,262.894634 171.981747,270.425079 C155.326358,273.676119 168.504271,283.060511 183.205894,281.652697 C187.046997,281.284877 189.241169,278.053911 184.706854,275.782773 C180.172539,273.511635 175.003611,275.400027 174.901318,277.843302 L174.901,277.837 L174.905439,277.713499 C175.173928,273.47842 188.496886,269.785744 194.978782,277.335687 L195.17505,277.57033 C198.817709,282.040481 194.570448,289.329021 178.001674,286.76308 C149.240245,282.308911 135.197349,296.618993 139.299342,316.86331 C131.235364,309.279829 133.325722,295.418061 136.763254,289.488831 C130.379315,293.554939 109.786036,303.360526 95.5320289,300.051583 C113.726794,299.307459 132.229089,282.506374 123.694947,270.120148 C118.534415,262.63029 106.210285,261.785651 98.9263695,272.322217 C92.8224421,281.151868 102.162138,285.611044 106.212411,281.531747 C110.383566,277.330702 105.348282,272.546214 102.72595,278.407172 C100.875519,265.743905 123.666623,270.898181 111.966641,288.01209 C107.2172,294.959239 87.6066205,302.683478 71.2721274,291.722978 C77.2410397,293.744027 84.8160581,292.821196 87.9890154,290.170102 C83.3079486,291.098235 65.3368666,294.234998 60.695795,274.978267 C65.5495329,280.122508 74.042893,283.57672 81.9165209,281.560122 C56.7660045,277.177768 53.1115847,254.436703 54.7285697,232.545048 C56.7701981,251.642919 74.2093358,281.529519 88.9561229,274.382281 C103.70291,267.235042 105.205137,252.278414 112.3455,231.860395 Z M128.835233,254.759937 C106.44254,236.015097 118.511747,173.184966 210.683457,207.611599 C263.244642,227.243487 269.332741,237.387113 309.330436,249.042592 C293.627183,249.916934 274.372403,268.019939 269.370331,256.822768 C266.490225,250.375631 277.658885,247.057425 275.149314,254.903219 C285.8275,251.225003 276.12075,237.850243 266.271843,244.966713 C261.500697,248.414174 257.686791,260.518545 266.036107,266.206933 C279.69877,275.515301 306.227763,250.661144 322.917925,254.568766 C319.293496,263.301377 321.823518,267.791254 324.19313,271.572305 L324.425467,271.94205 C324.502591,272.06462 324.579321,272.186552 324.655433,272.307971 C295.144929,275.683851 268.887062,282.826101 244.060124,266.25761 C219.233186,249.68912 235.518974,229.596651 244.430922,244.373652 C240.607709,240.837024 236.924139,246.202522 241.022441,249.996634 C253.08665,261.165397 264.426411,243.057869 242.755235,235.257073 C211.549545,224.024216 207.700229,277.942452 274.675235,280.767359 C226.503282,287.006626 199.331261,268.616374 193.15917,225.596602 C191.138063,236.786804 186.829794,243.871625 180.234364,246.851065 C194.533077,214.912635 161.742994,199.858544 143.663814,213.950089 C125.584634,228.041635 136.66835,245.794419 148.122402,244.176115 C165.540336,241.715195 151.153795,223.02881 143.850911,235.509498 C135.439668,222.699645 161.133602,215.764102 168.198075,234.637896 C175.262549,253.511691 151.227927,273.504777 128.835233,254.759937 Z M524.377324,154.054411 C576.635193,167.668321 581.849114,222.143314 538.292597,212.790273 C568.347479,202.380783 536.008059,186.655314 528.13076,210.187202 C519.273874,236.645418 545.493505,229.51564 556.76022,221.63111 C561.129424,218.573509 590.815118,195.954765 572.47161,173.86915 C589.450203,179.280772 595.702762,188.201778 591.229285,200.632168 C599.957293,196.126739 611.657535,195.490388 626.330011,198.723116 C593.405939,204.547334 547.092889,241.47994 530.540989,264.830866 C526.634226,249.804033 497.87489,258.277749 477.119564,277.100902 C488.388866,223.76598 503.348979,219.022966 522.823237,191.786766 C542.297495,164.550566 524.86593,160.201749 524.377324,154.054411 Z M565.901921,127.163026 C619.063328,115.695307 650.962767,119.033553 691.738453,143.403653 C741.900755,173.383783 737.785087,199.679025 757.579239,201.625351 C778.876827,203.719508 770.319465,174.745478 752.606229,185.612866 C769.550987,165.039727 798.637781,179.231243 791.223429,196.21216 C777.451548,227.753576 740.469219,212.733147 727.978817,219.754578 C704.848703,232.757082 740.622396,254.968607 751.947298,225.535103 C757.724167,271.96068 682.830357,261.749824 704.565628,212.478542 C711.595383,196.542922 719.773371,159.727954 650.494568,182.763443 C604.3087,198.120436 588.43794,186.365516 602.88229,147.498684 C608.177318,155.775329 616.468693,157.09173 627.756414,151.447888 C644.65876,142.996742 618.92657,128.870551 565.901921,127.163026 Z M59.5948296,142.18398 C14.7707896,122.769907 46.283125,70.135986 91.0458244,88.2511771 C46.4128674,110.122608 74.4472207,143.994186 109.160609,142.334945 C95.0974407,147.679375 75.746964,158.254576 64.8788922,187.219885 C54.0108205,216.185193 62.7892074,243.727375 66.6441845,254.456389 C61.0763708,243.988942 47.4481734,213.823493 59.8419481,178.760346 C51.0260475,191.079107 47.0332249,203.076006 47.8634801,214.751043 C44.3986156,204.623569 43.2786817,195.234332 44.5036785,186.583331 C25.4305995,199.818075 -8.99580378,193.512738 2.18445528,153.666299 C4.07084155,169.643042 24.8725385,171.37327 43.7813474,164.365089 C-11.4451719,167.395457 4.2934411,114.4601 31.3065563,101.584782 C26.3989946,109.947629 21.4345164,138.298338 59.5948296,142.18398 Z M345.618944,18.0099005 C366.984091,13.2835656 403.154879,16.7185035 399.494263,31.6934072 C395.833647,46.668311 366.495327,47.8300324 335.463627,90.6361031 C279.009329,168.510878 310.424474,221.342664 347.246333,204.378297 C344.089469,207.266277 341.721884,220.217282 321.212742,215.637189 C334.658436,218.969129 328.689051,220.867804 338.061378,225.456995 C294.296469,211.289023 275.349961,179.58245 285.083488,138.367715 C275.684722,164.242979 278.163455,184.854723 292.519686,200.202947 C278.011985,189.11537 271.569621,175.247687 273.192595,158.599898 C276.672086,122.908737 322.997367,98.3424839 313.293397,93.6901717 C306.824085,90.5886302 305.546102,84.449971 309.45945,75.2741939 C307.812899,80.3699002 310.035702,83.9647178 316.127861,86.0586469 C307.592031,64.23808 326.485136,46.9069169 344.23265,56.3521197 C326.743472,55.6097467 325.967377,68.8563246 335.358583,68.131062 C344.749788,67.4057994 360.724267,53.8463113 348.593637,48.6768594 C336.463008,43.5074074 322.942127,50.0556795 309.45945,40.7675439 C295.976773,31.4794084 320.0058,17.8642437 341.868124,19.2991321 C328.679422,21.4927097 313.181286,35.8390412 348.311032,36.670151 C329.952167,33.447544 342.605346,14.5780828 366.853063,25.328675 C346.027935,22.5432664 363.106966,44.112317 379.98093,30.7238116 C391.524585,21.5645956 364.270415,15.8317209 345.618944,18.0099005 Z M401.905861,43.8542388 C382.262115,80.4197102 379.279823,129.831356 426.251113,134.033982 C473.222402,138.236607 503.11639,133.624906 512.593294,149.920085 C499.451822,147.125984 469.537199,145.853232 435.80322,157.103163 C400.636106,168.831029 365.603944,193.526124 346.521723,217.400149 C351.18029,205.8776 352.56487,203.54033 360.413481,197.492824 C343.273586,201.339522 319.420205,207.859233 314.048759,179.447847 C323.955199,191.597029 358.868127,194.080995 364.94078,186.984103 C327.893539,190.808682 296.89774,175.214411 318.399258,141.270412 C317.183932,177.036874 368.202927,176.632553 374.583562,173.210169 C336.377161,169.096146 301.479737,145.905903 335.213708,104.286578 C323.591829,155.768633 376.626838,163.217915 384.41493,161.14585 C326.078676,144.058908 327.823827,90.0205032 367.417974,66.4926252 C344.080297,104.269993 367.472296,147.653071 399.477168,145.125943 C360.467918,127.078062 342.629525,71.8359731 401.905861,43.8542388 Z M684.018299,52.3983959 C708.587371,54.4754615 745.206009,62.186007 766.112163,121.422117 C779.783403,99.9661427 830.075218,62.5863084 883.209184,140.795502 C872.824724,124.294376 893.486221,97.3730997 930.285376,113.41605 C918.192875,115.921178 906.482872,135.510608 930.317353,157.565787 C900.67364,110.684919 965.593743,110.36713 954.713946,138.689409 C947.135892,120.727187 934.992903,132.912415 938.695296,141.739602 C943.819243,153.956037 961.969602,155.309372 963.469066,141.940062 C967.291204,107.861675 933.046626,103.939778 921.319151,103.168875 C984.245794,90.1699127 1013.79496,152.588092 971.526647,193.636969 C950.983611,213.587338 893.413636,227.49262 858.916091,175.346325 C859.951533,183.723838 863.779549,189.927236 869.387833,198.083534 C854.079633,186.361642 848.043985,175.315733 842.943589,163.98585 L842.495769,162.985393 L842.495769,162.985393 L842.05153,161.983316 L842.05153,161.983316 L841.6096,160.979472 C841.241934,160.142158 840.875347,159.30285 840.506525,158.461168 L840.062653,157.449986 C838.652317,154.244142 837.190561,151.001801 835.495514,147.702021 L835.541,147.792 L835.623568,147.954219 C839.922847,156.61501 855.309087,206.368761 793.093518,210.398401 L791.164625,210.507382 C849.712745,191.875966 824.207945,134.346275 799.602975,137.930734 C821.232118,144.303593 823.80588,175.600168 800.710557,192.901028 C799.138793,149.768191 754.159187,164.627305 746.635877,181.813281 C687.640865,106.40495 610.281217,106.727149 577.035838,119.907773 C609.287798,99.5056755 621.215736,98.2165124 651.054172,98.6767022 C593.810919,82.6696935 570.095033,130.419944 534.05562,124.524551 C491.561822,117.573338 523.290302,85.1011445 528.284924,105.531192 C519.558308,99.8275029 516.753099,113.490779 527.924773,113.804108 C557.799845,114.642005 570.413905,56.4782282 652.907448,57.9858515 C688.348099,58.6335525 720.620471,79.8608842 747.861242,138.79829 C742.313006,86.8198942 707.623932,60.4820505 684.018299,52.3983959 Z M159.995919,107.546036 C181.338874,94.641962 153.320743,85.2994775 125.779851,92.3942389 C100.767953,98.8375103 96.7019679,109.946686 107.676879,116.970325 C99.1625931,106.719616 116.706691,93.7863948 134.982377,99.1239468 C116.270142,101.208191 116.019352,120.032669 136.317712,120.51402 C146.034104,120.744433 164.490719,117.964817 183.307819,110.804083 C202.12492,103.643348 205.792361,86.604684 191.235712,81.2855588 C215.589375,84.1033238 238.200612,102.179079 249.810032,121.418525 C228.602624,99.3915454 186.9962,110.030507 202.417445,129.266802 C219.563291,150.654343 248.665195,126.762865 217.501091,119.022839 C256.346146,113.753386 265.574406,166.375904 266.82564,178.851666 C253.966089,169.46581 211.58481,134.988735 148.594245,139.001015 C50.5922017,145.243404 61.5865189,95.6927388 119.075558,82.6183128 C176.564598,69.5438868 217.336051,100.456764 159.995919,107.546036 Z M409.401904,3.56307557 C469.201573,17.0344016 450.941873,42.4062114 442.276078,57.8678169 C422.933847,92.378437 428.960634,121.647094 470.136141,117.598134 C442.279725,110.785915 430.08349,81.0630246 517.369054,92.8024226 C489.839144,93.3333189 493.198077,120.574644 527.247218,128.785246 C549.946646,134.258982 573.595188,137.977186 598.192847,139.939858 C588.408607,153.804144 585.375746,164.39847 589.094262,171.722838 C515.258956,141.55091 520.701102,128.572061 470.735868,127.340234 C357.741393,128.916572 406.999944,66.975122 409.231399,36.2962853 C411.462854,5.61744872 359.852025,4.97801191 319.051521,16.4530599 C278.251017,27.9281079 297.976051,51.6915474 328.497638,50.2267208 C292.067612,65.7798733 253.155574,60.5693022 271.399216,38.2924131 C288.259951,17.7041595 349.602236,-9.90825049 409.401904,3.56307557 Z M655.93381,46.9854131 C732.414679,29.4526123 772.109224,-4.80488011 834.393852,40.3465486 C745.371618,1.21154441 754.96423,84.0475914 791.741171,77.3907503 C833.13849,69.8975939 795.262455,33.056751 788.89559,63.5465067 C774.908687,32.6689773 824.868545,28.2805958 840.142942,62.4175365 C848.922051,82.038077 864.487915,85.9939825 880.723961,89.8077676 L882.349573,90.1892473 C892.656395,92.6095671 903.150254,95.1804227 912.277313,101.845108 C900.28567,99.7443784 877.19081,106.065903 876.213415,120.824924 C873.77397,114.265135 865.713452,102.974546 836.723857,91.2175315 C807.734261,79.4605169 776.933124,90.490566 770.185608,104.816771 C746.353214,33.9535397 677.465593,42.4768411 655.93381,46.9854131 Z" id="path-8"></path>
        <filter x="-0.1%" y="-0.1%" width="100.1%" height="100.2%" filterUnits="objectBoundingBox" id="filter-9">
            <feMorphology radius="1" operator="erode" in="SourceAlpha" result="shadowSpreadInner1"></feMorphology>
            <feOffset dx="0" dy="0" in="shadowSpreadInner1" result="shadowOffsetInner1"></feOffset>
            <feComposite in="shadowOffsetInner1" in2="SourceAlpha" operator="arithmetic" k2="-1" k3="1" result="shadowInnerInner1"></feComposite>
            <feColorMatrix values="0 0 0 0 0.395418913   0 0 0 0 0   0 0 0 0 0  0 0 0 1 0" type="matrix" in="shadowInnerInner1" result="shadowMatrixInner1"></feColorMatrix>
            <feMorphology radius="0.5" operator="erode" in="SourceAlpha" result="shadowSpreadInner2"></feMorphology>
            <feOffset dx="0" dy="0" in="shadowSpreadInner2" result="shadowOffsetInner2"></feOffset>
            <feComposite in="shadowOffsetInner2" in2="SourceAlpha" operator="arithmetic" k2="-1" k3="1" result="shadowInnerInner2"></feComposite>
            <feColorMatrix values="0 0 0 0 0.189742821   0 0 0 0 0   0 0 0 0 0  0 0 0 1 0" type="matrix" in="shadowInnerInner2" result="shadowMatrixInner2"></feColorMatrix>
            <feMerge>
                <feMergeNode in="shadowMatrixInner1"></feMergeNode>
                <feMergeNode in="shadowMatrixInner2"></feMergeNode>
            </feMerge>
        </filter>
    </defs>
    <g id="logo-(no-menu)" stroke="none" stroke-width="1" fill="none" fill-rule="evenodd">
        <g id="Final" transform="translate(-6094.000000, -1631.000000)">
            <g id="logo-v3-grad-+-red" transform="translate(6094.000000, 1631.000000)">
                <mask id="mask-2" fill="white">
                    <use xlink:href="#path-1"></use>
                </mask>
                <g id="mask"></g>
                <g id="skin" mask="url(#mask-2)">
                    <g transform="translate(628.005336, 165.543997)">
                        <path d="M113.545353,250.819171 C118.524023,254.85683 132.61334,267.865045 158.145278,273.402436 C199.613234,354.890238 225.819453,339.202492 235.03481,354.513298 C237.736335,359.001732 257.611595,391.975991 195.868977,453.826102 C134.126359,515.676214 73.8735704,534.575652 71.1040925,452.426889 C70.4654913,433.484584 83.7161094,431.845891 55.4939385,397.752332 C50.4305709,391.635574 38.8322407,373.430914 20.6989479,343.138355 C89.9015106,289.708793 108.566683,246.781512 113.545353,250.819171 Z" id="neck-copy" fill="url(#radialGradient-3)" transform="translate(130.454767, 378.939859) scale(-1, 1) rotate(10.000000) translate(-130.454767, -378.939859) "></path>
                        <path d="M293.808827,224.561005 C324.521661,223.201732 334.107837,199.484477 339.337594,172.168664 C341.284555,161.999394 348.009474,153.322789 346.818167,141.725708 C345.626859,130.128626 325.246552,138.956537 316.734193,162.703647 C311.592334,177.047999 309.019986,198.55928 308.906389,212.443327 C281.556156,190.489256 261.337382,104.544878 286.14576,74.3337823 C261.737911,61.9194963 219.536862,62.565321 207.695139,23.3359577 C188.026216,39.0560396 137.349425,55.9198942 95.2402628,24.3065283 C90.0483977,33.758451 83.6634107,47.9993423 81.3420326,56.0432131 C78.1687566,67.0390189 71.4029265,62.9724509 66.5292546,92.2928606 C61.6555827,121.61327 79.0528347,123.970649 66.5292546,143.279431 C54.0056745,162.588212 56.2259263,176.732083 53.1832594,211.516031 C50.1405925,246.299978 57.34565,261.690675 57.34565,270.782345 C57.34565,279.874015 51.5742626,292.18663 54.3610148,307.607253 C57.1477669,323.027876 72.4265871,329.404651 93.0260943,332.044281 C113.625601,334.683911 145.363125,344.129664 233.775238,307.607253 C258.217304,297.510411 268.956169,285.347689 265.991834,271.119087 C245.61431,233.614346 243.297714,207.434293 259.042047,192.578929 C272.898313,179.505025 295.237106,194.736311 296.975044,211.039467 C298.490613,225.256637 280.650688,220.875355 286.542699,213.776879 C276.435432,211.78686 276.17797,225.341302 293.808827,224.561005 Z" id="face-copy" fill="url(#radialGradient-4)" transform="translate(199.696208, 179.222030) scale(-1, 1) rotate(-10.000000) translate(-199.696208, -179.222030) "></path>
                    </g>
                </g>
                <g id="EN" mask="url(#mask-2)">
                    <use fill="#FFD037" fill-rule="evenodd" xlink:href="#path-5"></use>
                    <use fill="black" fill-opacity="1" filter="url(#filter-6)" xlink:href="#path-5"></use>
                </g>
                <g id="Combined-Shape" mask="url(#mask-2)">
                    <use fill="url(#radialGradient-7)" fill-rule="evenodd" xlink:href="#path-8"></use>
                    <use fill="black" fill-opacity="1" filter="url(#filter-9)" xlink:href="#path-8"></use>
                </g>
                <g id="face" mask="url(#mask-2)">
                    <g transform="translate(834.074509, 300.877219)">
                        <path d="M38.4357872,29.1673536 C54.6942839,29.1673536 63.8494847,37.0729728 63.8494847,26.1709575 C63.8494847,15.2689423 60.931137,4.39086598 44.6726403,4.39086598 C28.4141436,4.39086598 2.04281037e-12,-5.89030742 2.04281037e-12,5.01170784 C2.04281037e-12,15.9137231 22.1772904,29.1673536 38.4357872,29.1673536 Z" id="Oval" fill="#000000"></path>
                        <path d="M97.4184893,92.9107545 C103.067843,92.9107545 101.740545,91.5958635 105.708456,89.5441151 C109.676368,87.4923666 105.234968,86.4405764 99.5856141,86.4405764 C93.93626,86.4405764 91.2509202,88.6801637 91.2509202,91.5271339 C91.2509202,94.3741041 91.7691351,92.9107545 97.4184893,92.9107545 Z" id="Oval-Copy-8" fill="#000000"></path>
                        <path d="M120.545506,89.1945021 C122.019302,88.2370195 121.441103,87.7352588 119.097125,88.0364224 C116.753146,88.3375861 117.187647,89.5193952 117.7385,90.6399536 C118.289353,91.7605121 119.07171,90.1519847 120.545506,89.1945021 Z" id="Oval-Copy-9" fill="#000000" transform="translate(119.328120, 89.485583) scale(-1, 1) translate(-119.328120, -89.485583) "></path>
                        <path d="M124.490306,28.3208981 C127.918794,28.3208981 129.849384,34.082861 129.849384,26.1369929 C129.849384,18.1911248 129.233981,10.2627044 125.805493,10.2627044 C122.377005,10.2627044 116.385212,2.76933311 116.385212,10.7152012 C116.385212,18.6610694 121.061818,28.3208981 124.490306,28.3208981 Z" id="Oval-Copy-2" fill="#000000" transform="translate(123.117298, 18.700969) scale(-1, 1) translate(-123.117298, -18.700969) "></path>
                        <path d="M119.28756,126.393584 C113.032067,126.254972 118.175844,130.908287 103.468538,128.798827 C94.6206224,127.529776 80.6197769,133.482276 69.0725602,137.12667 C57.5253435,140.771063 77.5179918,138.107169 91.4185004,134.09993 C106.458902,129.764082 101.927618,136.472561 114.18056,132.076711 C117.952149,130.72362 119.28756,126.393584 119.28756,126.393584 Z" id="Path-44" fill="#652323"></path>
                    </g>
                </g>
            </g>
        </g>
    </g>
</svg>