<?xml version="1.0" encoding="UTF-8"?>
<svg width="2037px" height="1170px" viewBox="0 0 2037 1170" version="1.1" xmlns="http://www.w3.org/2000/svg" xmlns:xlink="http://www.w3.org/1999/xlink">
    <title>og image v11</title>
    <defs>
        <rect id="path-1" x="0" y="0" width="700" height="472.552977"></rect>
        <radialGradient cx="37.2150683%" cy="58.8795631%" fx="37.2150683%" fy="58.8795631%" r="57.5987777%" gradientTransform="translate(0.372151,0.588796),scale(1.000000,0.854903),rotate(-28.653931),scale(1.000000,1.610851),translate(-0.372151,-0.588796)" id="radialGradient-3">
            <stop stop-color="#D0A590" offset="0%"></stop>
            <stop stop-color="#C67A56" offset="100%"></stop>
        </radialGradient>
        <radialGradient cx="23.7789805%" cy="55.0029157%" fx="23.7789805%" fy="55.0029157%" r="56.9597499%" gradientTransform="translate(0.237790,0.550029),scale(1.000000,0.944680),rotate(12.126645),scale(1.000000,1.938950),translate(-0.237790,-0.550029)" id="radialGradient-4">
            <stop stop-color="#D6A790" offset="0%"></stop>
            <stop stop-color="#C78666" offset="100%"></stop>
        </radialGradient>
        <radialGradient cx="55.6419689%" cy="88.7756924%" fx="55.6419689%" fy="88.7756924%" r="12.8133029%" gradientTransform="translate(0.556420,0.887757),scale(1.000000,0.944680),rotate(-121.888110),scale(1.000000,2.068058),translate(-0.556420,-0.887757)" id="radialGradient-5">
            <stop stop-color="#D17611" offset="0%"></stop>
            <stop stop-color="#AE7558" offset="100%"></stop>
        </radialGradient>
        <path d="M151.533631,114.190319 C185.231567,128.389766 220.163172,163.629056 243.038348,164.189323 C252.01771,154.258251 271.964015,129.031343 318.636188,116.250729 C421.27264,88.144971 347.194309,185.560041 249.606943,176.258594 C243.002351,185.215093 263.572661,187.901701 285.626625,188.85005 C311.771252,189.974302 304.9579,204.478952 264.080258,209.411011 C151.189955,223.0317 147.344008,318.7847 215.740279,318.935167 C239.267532,318.986926 254.787764,308.946258 262.921758,296.329122 L263.154927,295.96236 L260.699865,297.4166 C180.135678,343.653923 152.384099,216.973752 258.53869,235.986585 C259.686098,236.192092 260.765693,236.427054 261.778529,236.687058 C264.512605,237.273441 267.274418,238.141837 269.913161,239.339321 C278.230915,243.113991 284.68706,248.461224 289.214123,254.746398 C302.865359,237.724994 315.921007,217.097206 338.00876,202.442126 C362.293529,186.329339 371.259689,188.654533 364.907239,209.417708 C390.5591,179.461655 418.717269,157.054435 449.381745,142.196046 C495.37846,119.908462 507.522263,148.29244 438.163452,219.832791 C419.516856,239.065877 391.967969,261.581089 384.711579,292.53609 C394.594606,287.26235 422.769554,266.375164 460.656354,265.64309 C506.694866,264.753503 471.694204,310.376703 419.829211,329.896424 C385.058905,342.982451 367.372147,338.14441 363.650766,321.224066 C348.506328,336.585521 347.512473,351.210457 348.771278,370.674607 C330.368116,334.929461 361.333377,310.229555 363.451277,307.416389 C363.994477,304.392761 365.577162,292.920718 377.832899,268.939164 C387.716824,249.598681 404.816886,225.135256 429.065501,199.053909 C477.432404,147.031392 414.754874,181.312403 379.89209,218.746062 C333.005981,269.089677 323.093434,328.832413 325.433503,257.836306 C326.030501,239.723798 330.242255,244.729226 342.794436,224.564272 C351.619791,210.386426 319.912396,241.596523 301.758552,262.162747 C300.07599,264.068896 298.406041,265.9053 296.749153,267.673729 L295.763927,268.71736 L296.009415,269.725594 C303.712495,303.235221 269.899462,346.729526 188.083358,339.194727 C91.5693807,330.306337 126.315501,191.815543 248.997024,197.65446 C233.621058,195.468043 230.722827,183.163935 236.3938,174.750349 C200.023836,170.27568 138.071691,116.253136 91.9892826,135.868458 C65.5254042,147.133007 72.4814802,176.873578 61.7492385,188.419936 C58.850763,191.538281 57.1252331,188.214408 55.5978115,183.842443 L55.4431254,183.394434 L55.4431254,183.394434 L55.2895774,182.940459 C55.2385591,182.78828 55.1876925,182.635317 55.1369396,182.481779 L54.9895125,182.033488 C54.7442201,181.284274 54.500737,180.526351 54.2547291,179.783699 L54.1067866,179.340132 C53.9337528,178.825223 53.759057,178.320148 53.5812127,177.833131 C38.2975117,135.979581 68.633332,79.2582557 151.533631,114.190319 Z M410.563559,292.214128 C401.264911,295.547423 396.435159,298.389145 391.833765,301.482603 L391.161528,301.937188 C388.587096,303.687312 386.01943,305.528066 382.709925,307.590671 C382.823396,323.543617 415.716879,313.653915 432.95688,304.686475 C465.33676,287.843979 442.095358,280.910898 410.563559,292.214128 Z M239.33524,285.35651 C251.691324,284.763801 261.376687,280.702954 269.741797,274.516943 C269.94157,263.022948 264.789075,252.701424 254.695151,248.525621 L254.602203,248.486091 C213.422273,238.180402 204.19633,287.04209 239.33524,285.35651 Z M322.530861,149.035074 C340.695012,139.110842 348.060476,124.797754 313.422182,135.892751 C294.898657,141.826025 269.849871,155.906936 258.851089,166.25883 C265.369446,166.406538 294.783537,164.195205 322.530861,149.035074 Z" id="path-6"></path>
        <filter x="-0.7%" y="-1.1%" width="101.4%" height="102.2%" filterUnits="objectBoundingBox" id="filter-7">
            <feMorphology radius="3" operator="erode" in="SourceAlpha" result="shadowSpreadInner1"></feMorphology>
            <feOffset dx="0" dy="-3" in="shadowSpreadInner1" result="shadowOffsetInner1"></feOffset>
            <feComposite in="shadowOffsetInner1" in2="SourceAlpha" operator="arithmetic" k2="-1" k3="1" result="shadowInnerInner1"></feComposite>
            <feColorMatrix values="0 0 0 0 1   0 0 0 0 0.596969925   0 0 0 0 0  0 0 0 1 0" type="matrix" in="shadowInnerInner1"></feColorMatrix>
        </filter>
        <radialGradient cx="90.6756081%" cy="23.3773205%" fx="90.6756081%" fy="23.3773205%" r="139.148358%" gradientTransform="translate(0.906756,0.233773),scale(0.581330,1.000000),rotate(160.528448),scale(1.000000,0.151273),translate(-0.906756,-0.233773)" id="radialGradient-8">
            <stop stop-color="#FF7100" offset="0%"></stop>
            <stop stop-color="#9D0000" offset="100%"></stop>
        </radialGradient>
        <path d="M461.031988,317.077493 C470.52228,322.433163 481.685475,322.790297 494.521573,318.148894 C488.310737,341.904125 479.111972,357.404262 466.925278,364.649306 C418.231482,393.597985 407.334987,336.792126 455.791343,341.504828 C420.199096,352.072956 453.283688,376.162733 468.330889,345.436841 C478.611451,324.444268 427.032597,324.35686 398.414804,367.789854 C380.052866,395.657619 359.510036,408.69132 336.786313,406.890957 C355.153183,402.733405 363.717518,392.675039 362.479317,376.71586 C361.25611,360.949937 372.321444,352.139067 380.475758,359.306822 C370.627158,360.620587 373.321886,372.003728 383.55925,368.8099 C392.932114,365.885776 390.878302,347.280155 370.846225,351.165255 C362.286043,352.825451 357.229115,365.547743 355.675441,389.332133 C351.249718,361.619958 353.229682,342.885264 361.615331,333.128054 C374.193691,358.934831 417.664441,343.879718 461.031988,317.077493 Z M337.332186,336.320153 C335.455296,341.026427 334.981544,346.709282 335.592938,352.751421 C332.821959,347.539219 321.977012,349.877228 321.732682,358.610415 C321.468975,368.036171 335.104413,369.312041 336.248153,357.348945 C336.203451,367.345367 333.55925,375.753971 325.23894,380.653351 C317.836426,385.012292 308.102175,378.886896 311.40305,371.482328 C310.028783,375.772661 315.842052,376.598859 317.514467,372.571251 C320.70567,364.886013 310.340124,361.675125 304.782618,366.868367 C295.872723,375.194268 303.594277,390.170573 317.848882,390.195857 C322.896456,390.20481 327.961386,386.822094 330.876051,385.685767 C340.605257,381.892687 340.578448,392.691677 333.830083,392.867386 C338.130047,389.431561 331.696697,385.857403 328.811137,390.373827 C323.775974,398.254768 341.187464,404.937465 343.652104,390.6187 C344.816041,383.856602 336.641406,380.593083 340.09477,367.77144 C341.501211,378.267204 363.018056,395.055148 339.163738,401.843612 C328.632263,404.840661 310.09665,403.863794 292.433066,378.243097 C277.263631,356.240116 245.670994,376.076677 265.25545,384.151351 C278.41123,389.575482 277.569882,375.201431 269.96917,376.412199 C288.826093,367.817508 294.694734,390.00511 277.94112,391.12204 C237.645637,393.808461 184.647965,373.55312 156.459554,350.689322 C225.988534,392.301983 320.048741,352.836877 337.332186,336.320153 Z M336.726971,297.045806 C379.493835,217.496977 435.840816,180.902484 402.800696,217.834946 C384.231466,238.591752 368.725338,262.253887 356.152778,299.604302 C338.708019,351.428992 214.58315,394.464385 133.467769,330.962398 C99.6632061,304.498158 72.4117165,276.595663 117.383782,247.799333 C130.850712,239.176243 117.245616,233.031394 115.668756,241.199113 C111.744467,229.200105 135.812325,229.49325 125.41564,245.670525 C113.822093,263.710123 92.7145273,271.963445 110.842311,300.110424 C96.5934788,270.470673 125.040859,264.288143 130.311409,240.42464 C134.525125,221.34617 107.283747,224.727583 112.711196,242.669079 C98.5281882,212.472593 153.728818,210.385988 134.074411,246.58445 C125.868062,261.698474 112.87685,294.34697 138.330366,325.195447 C169.142863,362.538759 298.812116,367.56962 336.726971,297.045806 Z M317.681933,256.902472 C316.938805,268.360068 318.22226,277.013673 317.837916,283.086904 C317.380682,290.311918 315.80019,294.117275 313.01255,293.540147 C309.139006,292.738204 308.62326,283.107392 312.580876,279.361234 C310.297281,283.780997 313.855181,287.632671 315.160025,281.397515 C316.301795,275.941602 314.088956,269.471029 311.70161,271.558116 C305.979767,276.560316 309.277544,298.372192 311.063573,302.622857 C313.915171,309.409524 319.166655,297.733472 319.247259,291.068411 C320.458735,300.726165 320.701891,306.081152 317.698553,310.391001 C303.377542,330.941928 258.904546,346.180048 224.156235,346.833631 C269.312084,341.881852 287.259269,325.134685 296.306141,313.592367 C305.353012,302.050049 306.89983,284.184934 304.931975,271.622564 C309.678877,265.790305 313.412525,262.027831 317.681933,256.902472 Z M487.913191,173.133689 C498.822273,189.940944 511.228853,193.442711 525.132932,183.638989 C545.989051,168.933407 525.757802,222.064781 509.093964,244.995806 C514.091018,224.076025 511.333341,198.330133 496.180105,192.247205 C481.026869,186.164276 478.179003,199.665594 482.059565,214.965281 C485.940127,230.264968 477.303621,255.011997 506.78937,266.912392 C535.961189,278.686086 533.445652,246.680544 516.910705,254.201987 C529.972577,233.876563 550.013093,251.638771 535.823837,276.802148 C522.079329,301.176803 492.472336,321.725087 466.189699,311.785216 C480.788154,309.257663 498.175462,302.084149 500.854887,287.522414 C496.153355,297.502336 483.183177,302.761225 472.43798,304.703602 C491.586282,295.746634 500.822043,263.439448 480.929507,258.382161 C453.069269,251.299242 409.70792,268.889402 400.580088,274.69952 C406.460783,265.29783 429.143241,236.558666 445.109631,227.543679 C467.009706,215.178398 479.189786,244.928382 454.663789,244.694186 C462.984304,238.347375 454.678962,230.522091 447.190916,234.702134 C440.592757,238.385418 438.872018,249.407038 451.375425,252.176268 C483.625734,259.319004 488.577361,210.880348 454.335915,217.15133 C465.50656,206.809034 476.698985,192.136487 487.913191,173.133689 Z M341.98588,161.778984 C337.016669,168.184115 333.466149,184.491715 331.492481,190.597324 C327.756138,202.155827 311.024508,195.090995 320.376184,185.485293 C317.088051,193.798866 334.155351,186.741512 324.108809,179.799723 C319.227941,176.427224 311.520931,180.254037 312.943832,190.609103 C314.366734,200.964169 322.069379,203.863602 330.810016,199.848115 C321.625682,208.285264 298.881834,226.630174 290.213786,243.463163 C265.855506,226.300859 234.51688,226.035996 221.820288,228.81232 C263.706764,206.041199 271.812152,239.593815 298.692324,215.801856 C283.538737,223.068369 268.539006,217.670241 261.434595,215.06907 C315.963159,211.020625 313.257235,193.490514 305.952014,188.132276 C298.646793,182.774039 292.892903,184.50849 277.082443,182.686113 C307.233614,180.899793 323.702995,172.371384 341.98588,161.778984 Z M79.3560545,163.776263 C79.2443964,174.916422 84.3282449,186.501651 99.2224029,189.962629 C114.116561,193.423607 126.766805,184.613649 135.855555,174.467914 C137.397489,182.489054 148.247462,200.082295 169.627176,203.413177 C165.256337,205.002809 152.668103,203.316855 149.154998,200.178156 C154.348196,207.212312 167.500471,206.033802 174.367541,204.548418 C162.088437,215.178114 149.157299,214.898096 144.695455,213.080815 C147.756433,218.044187 147.141466,226.346986 143.319088,231.658818 C143.912989,207.47631 102.327327,207.564358 106.297238,234.091844 C95.5700711,217.944269 106.920753,203.014942 128.820793,206.463992 C153.604222,210.367148 148.731236,185.697521 121.480548,191.016706 C109.715894,193.313101 119.024208,199.941834 129.408805,198.947415 C132.121996,198.687602 133.671865,196.405386 130.469019,194.801151 C127.266173,193.196917 123.615063,194.530796 123.542808,196.256621 L123.542,196.252 L123.547131,196.144837 C123.776985,193.168507 133.114327,190.58866 137.69383,195.862346 L137.863304,196.063806 C140.436323,199.221329 137.43624,204.369641 125.732767,202.55717 C105.416924,199.410936 95.4976229,209.518965 98.3950952,223.818685 C92.6990462,218.462039 94.1755857,208.670679 96.6037115,204.482524 C92.0943696,207.354649 77.5481583,214.280896 67.4797378,211.943601 C80.3317412,211.417983 93.4009713,199.550415 87.3728179,190.801315 C83.7276389,185.5108 75.0224012,184.914184 69.8773548,192.356763 C65.5658017,198.59365 72.1629631,201.743422 75.023903,198.861981 C77.9702283,195.894542 74.4135188,192.514985 72.5612162,196.654915 C71.2541505,187.710125 87.3528117,191.350885 79.0884448,203.439418 C75.7336425,208.346586 61.8815685,213.802658 50.3435814,206.06063 C54.5597657,207.488212 59.9104346,206.836365 62.1516758,204.963745 C58.8451705,205.619339 46.1511671,207.835014 42.8729127,194.232883 C46.3013855,197.866555 52.3007317,200.306462 57.8623255,198.882024 C40.0970769,195.786517 37.515751,179.723201 38.6579201,164.259873 C40.100039,177.749791 52.4182997,198.860407 62.8347992,193.811904 C73.2512987,188.7634 74.3124077,178.198678 79.3560545,163.776263 Z M91.0036964,179.951519 C75.1864559,166.710966 83.7116277,122.33045 148.81778,146.647951 C185.944752,160.515077 190.245125,167.6801 218.497785,175.913032 C214.060943,176.160071 209.222717,178.354244 204.787981,180.39213 L204.125897,180.696377 C197.756954,183.621024 192.320961,185.995953 190.271677,181.408615 C188.237293,176.854634 196.126357,174.510795 194.353703,180.052728 C201.896317,177.454594 195.039884,168.007235 188.083037,173.034005 C184.712904,175.469144 182.018924,184.019154 187.916524,188.037188 C193.320927,191.719206 201.575398,187.83376 209.863415,184.18646 L210.751417,183.796944 C216.966532,181.081694 223.143935,178.65721 228.095406,179.816484 C225.367386,186.389309 227.575431,189.559327 229.322708,192.3467 L229.322708,192.3467 L228.074757,192.492812 C207.736257,194.926377 189.579583,199.542191 172.39363,188.072984 C154.856943,176.369711 166.360527,162.177251 172.655545,172.615092 C169.954991,170.11697 167.353075,173.906928 170.24794,176.586926 C178.769581,184.476062 186.779503,171.685679 171.471912,166.175531 C149.429548,158.241121 146.710555,196.326656 194.018834,198.322049 C159.992228,202.729201 140.799074,189.739114 136.439373,159.351788 C135.01175,167.256067 131.968573,172.260482 127.309843,174.365031 C137.409843,151.805091 114.24833,141.171525 101.477971,151.125189 C88.707612,161.078854 96.536675,173.618661 104.627327,172.475561 C116.930611,170.737272 106.768574,157.538009 101.610129,166.353833 C95.668787,157.305501 113.817882,152.40653 118.807924,165.738171 C123.797966,179.069812 106.820937,193.192072 91.0036964,179.951519 Z M370.397706,108.817445 C407.310429,118.433729 410.99332,156.912533 380.22686,150.305945 C401.456343,142.953126 378.613159,131.845328 373.048973,148.467247 C366.792847,167.156198 385.313273,162.120028 393.271598,156.550733 C396.357817,154.390975 417.326521,138.414062 404.369452,122.813728 C416.362404,126.636267 420.778944,132.937684 417.619071,141.71798 C423.784162,138.535537 432.048713,138.086046 442.412722,140.369506 C419.156566,144.483485 386.443009,170.571098 374.751455,187.065193 C371.991885,176.450881 351.677521,182.436352 337.016847,195.732221 C344.976999,158.058714 355.544183,154.708452 369.299966,135.469966 C383.055748,116.231479 370.742837,113.159661 370.397706,108.817445 Z M399.728905,89.8225207 C437.279848,81.7222151 459.812247,84.0802091 488.614447,101.294205 C524.046951,122.470886 521.139819,141.04472 535.121562,142.419521 C550.165266,143.898744 544.120712,123.432729 531.60884,131.108987 C543.577892,116.577002 564.123559,126.601282 558.886378,138.595875 C552.660542,152.854759 539.719369,153.642188 528.895779,153.661325 L527.887541,153.661256 C522.212401,153.652503 517.212802,153.538955 514.213089,155.225232 C497.874967,164.409644 523.143973,180.098915 531.143399,159.308347 C535.223932,192.101389 482.322149,184.888876 497.675015,150.085751 C502.640533,138.829511 508.417114,112.824993 459.481532,129.096277 C426.85781,139.943799 415.647385,131.640627 425.850255,104.18676 C429.590437,110.033028 435.447109,110.962877 443.420272,106.976308 C455.359366,101.00678 437.183249,91.0286435 399.728905,89.8225207 Z M42.0952378,100.43268 C10.4334538,86.7194099 32.6924193,49.5410597 64.310875,62.3368556 C32.7840638,77.785899 52.5863315,101.711332 77.1063838,100.539316 C67.1727633,104.314392 53.5044145,111.784262 45.8276736,132.244116 C38.1509328,152.703971 44.3516096,172.15859 47.0746006,179.737106 C43.1417352,172.343349 33.5153596,151.035767 42.2697918,126.26866 C36.0426168,134.970106 33.2222577,143.444202 33.8087145,151.690949 C31.3612825,144.537334 30.5702091,137.905179 31.4354944,131.794482 C17.9630874,141.142939 -6.35425091,136.689118 1.54300575,108.543299 C2.8754683,119.828587 17.568897,121.050746 30.9252706,116.100467 C-8.08437976,118.240989 3.0327031,80.8497172 22.1136119,71.7551436 C18.6471203,77.6623011 15.1404253,97.6880287 42.0952378,100.43268 Z M244.130435,12.7214232 C259.22186,9.38294241 284.771357,11.8092355 282.185655,22.3868669 C279.599952,32.9644982 258.876618,33.7850885 236.957153,64.0214653 C197.080253,119.028875 219.270567,156.346988 245.279952,144.364084 C243.050079,146.40403 241.377718,155.552066 226.890938,152.316884 C236.388401,154.670424 232.171883,156.011567 238.792094,159.253175 C207.878434,149.245525 194.495431,126.849359 201.370779,97.7370336 C194.731893,116.014213 196.482763,130.573467 206.623391,141.414796 C196.375771,133.583006 191.825161,123.787468 192.971561,112.028182 C195.429324,86.8174733 228.15152,69.464923 221.297052,66.1787287 C216.727406,63.9879325 215.824694,59.6518463 218.588915,53.17047 C217.425862,56.7698588 218.995955,59.3090842 223.299195,60.7881461 C217.26985,45.3750313 230.615131,33.1330392 243.151216,39.8047263 C230.797609,39.2803458 230.249409,48.6371617 236.882954,48.1248672 C243.5165,47.6125727 254.800188,38.0347305 246.231631,34.3832508 C237.663073,30.7317712 228.112501,35.3571904 218.588915,28.7964488 C209.065329,22.2357072 226.038406,12.6185374 241.481016,13.6320812 C232.165081,15.1815305 221.217861,25.3151653 246.032011,25.9022257 C233.064094,23.625914 242.001758,10.297334 259.129308,17.8910924 C244.419329,15.9235989 256.483225,31.1590534 268.402272,21.701986 C276.556215,15.2323077 257.305036,11.1828503 244.130435,12.7214232 Z M283.889105,30.976758 C270.013603,56.8050425 267.90704,91.7073153 301.085549,94.6758701 C334.264058,97.6444248 355.379892,94.3869163 362.073971,105.897134 C352.791398,103.9235 331.660988,103.024483 307.832749,110.970953 C282.992204,119.255016 258.246983,136.698574 244.768119,153.562164 C248.058732,145.423128 249.03674,143.77218 254.580662,139.500481 C242.473774,142.217624 225.624766,146.822869 221.830607,126.754281 C228.828092,135.335944 253.489091,137.090511 257.778553,132.07757 C231.609967,134.779089 209.715861,123.763963 224.903613,99.7873749 C224.045159,125.051273 260.082794,124.765678 264.589801,122.348253 C237.602435,119.442283 212.952387,103.061687 236.780621,73.6635768 C228.571423,110.028298 266.033084,115.290152 271.534259,113.826534 C230.328026,101.757049 231.560726,63.5866319 259.528337,46.9675455 C243.0436,73.651862 259.566708,104.295812 282.17358,102.510757 C254.619115,89.7625058 242.018837,50.7418579 283.889105,30.976758 Z M483.16126,37.011985 C500.515802,38.4791352 526.381641,43.9255347 541.148854,85.7673885 C550.805633,70.6118062 586.329619,44.2082905 623.861179,99.4519187 C616.526041,87.7962291 631.120438,68.7801915 657.113787,80.1122454 C648.572162,81.8817604 640.300717,95.7188957 657.136375,111.29773 C636.197324,78.1830909 682.054107,77.9586186 674.369084,97.9642649 C669.016271,85.2765198 660.438983,93.8836432 663.054195,100.118791 C666.673532,108.747957 679.494169,109.703896 680.553326,100.260387 C683.253121,76.1888727 659.064216,73.4186122 650.78043,72.8740793 C695.229118,63.6921684 716.101388,107.7817 686.244856,136.77687 C671.734135,150.868957 631.069168,160.691053 606.701578,123.857142 C607.43297,129.774659 610.136917,134.156474 614.098368,139.917734 C602.079751,130.714762 598.152757,122.101681 594.230752,113.147397 L593.868499,112.319852 C592.719918,109.69605 591.550504,107.040648 590.158285,104.330388 L590.185,104.383 L590.248736,104.50853 C593.285563,110.626142 604.153744,145.770063 560.207329,148.616428 L558.844841,148.693408 C600.200728,135.532973 582.185229,94.8964605 564.80533,97.4283692 C580.083232,101.929884 581.901227,124.036445 565.587679,136.257033 C564.477452,105.789842 532.705783,116.285684 527.391638,128.425123 C485.720086,75.1599043 431.076541,75.387492 407.593427,84.6977204 C428.096692,71.7276687 436.97158,69.6930697 453.906363,69.652818 L455.047505,69.652991 C456.585525,69.6568995 458.190684,69.6749959 459.876812,69.7010006 C419.442627,58.3943344 402.69074,92.1230686 377.23404,87.9588152 C347.218239,83.0487757 369.62988,60.1118074 373.157868,74.5427188 C366.993759,70.5138769 365.01228,80.1650309 372.903472,80.3863529 C394.005945,80.9782077 402.915977,39.893804 461.185886,40.9587245 C486.219646,41.4162328 509.015469,56.4103117 528.257184,98.0411737 C524.338147,61.3258587 499.83527,42.7219328 483.16126,37.011985 Z M113.014271,75.9659182 C128.090022,66.8510327 108.299213,60.2519014 88.845505,65.2633372 C71.1781707,69.8145885 68.3061328,77.6616349 76.0583402,82.6228332 C70.0442131,75.3821707 82.4366133,66.2466967 95.3457756,70.016915 C82.1282538,71.4891358 81.9511066,84.7859415 96.2889994,85.1259478 C103.152243,85.2887015 116.189206,83.3252997 129.480801,78.2672633 C142.772395,73.209227 145.362919,61.1738434 135.080725,57.4166409 C152.283111,59.4069895 168.254721,72.17493 176.455118,85.7648509 C161.475113,70.2059352 132.086115,77.7208428 142.979023,91.3085381 C155.090114,106.415782 175.646455,89.5398643 153.633465,84.0726411 C181.07195,80.3505249 187.590398,117.52082 188.474216,126.333164 C179.390779,119.703398 149.454457,95.3502668 104.960617,98.1843697 C35.7361667,102.593727 43.502082,67.5932565 84.1098798,58.3580413 C124.717678,49.1228262 153.516888,70.9583601 113.014271,75.9659182 Z M289.183989,2.51680413 C331.423916,12.0323725 318.526046,29.9539334 312.404899,40.87535 C298.742374,65.2521755 302.999439,85.9263023 332.084055,83.0662905 C312.407474,78.2544307 303.792576,57.2594523 365.447364,65.5516608 C346.001414,65.9266632 348.37402,85.1687694 372.424877,90.968388 C388.458781,94.8348004 405.1631,97.4611806 422.537833,98.8475286 C415.626665,108.640666 413.484381,116.124045 416.110982,121.297665 C363.956881,99.9855064 367.80098,90.8178028 332.507677,89.9476932 C252.693214,91.0611507 287.487347,47.3083606 289.063551,25.638143 C290.639755,3.96792544 254.184074,3.51625463 225.364344,11.6217376 C196.544614,19.7272205 210.477534,36.5126975 232.036677,35.4780066 C206.304065,46.4640881 178.818266,42.7835636 191.704794,27.0481223 C203.614496,12.5054608 246.944062,-6.99876422 289.183989,2.51680413 Z M463.32358,33.1884855 C517.346393,20.8040652 545.384921,-3.39396173 589.380118,28.4990757 C526.49862,0.855783132 533.274431,59.3676226 559.252089,54.6655148 C588.493383,49.3726698 561.739373,23.3498746 557.242092,44.8865335 C547.362342,23.0759678 582.651848,19.9762029 593.441028,44.0890772 C603.77634,67.1875945 627.427966,59.5504785 644.393662,71.9390266 C635.923278,70.4551613 619.610057,74.9204159 618.919667,85.3455567 C617.196548,80.7120028 611.502943,72.7368136 591.025933,64.4321615 C570.548923,56.1275094 548.792317,63.9186642 544.026161,74.0380822 C527.191978,23.9833277 478.53271,30.0038231 463.32358,33.1884855 Z" id="path-9"></path>
        <filter x="-0.1%" y="-0.1%" width="100.1%" height="100.2%" filterUnits="objectBoundingBox" id="filter-10">
            <feMorphology radius="1" operator="erode" in="SourceAlpha" result="shadowSpreadInner1"></feMorphology>
            <feOffset dx="0" dy="0" in="shadowSpreadInner1" result="shadowOffsetInner1"></feOffset>
            <feComposite in="shadowOffsetInner1" in2="SourceAlpha" operator="arithmetic" k2="-1" k3="1" result="shadowInnerInner1"></feComposite>
            <feColorMatrix values="0 0 0 0 0.395418913   0 0 0 0 0   0 0 0 0 0  0 0 0 1 0" type="matrix" in="shadowInnerInner1" result="shadowMatrixInner1"></feColorMatrix>
            <feMorphology radius="0.5" operator="erode" in="SourceAlpha" result="shadowSpreadInner2"></feMorphology>
            <feOffset dx="0" dy="0" in="shadowSpreadInner2" result="shadowOffsetInner2"></feOffset>
            <feComposite in="shadowOffsetInner2" in2="SourceAlpha" operator="arithmetic" k2="-1" k3="1" result="shadowInnerInner2"></feComposite>
            <feColorMatrix values="0 0 0 0 0.189742821   0 0 0 0 0   0 0 0 0 0  0 0 0 1 0" type="matrix" in="shadowInnerInner2" result="shadowMatrixInner2"></feColorMatrix>
            <feMerge>
                <feMergeNode in="shadowMatrixInner1"></feMergeNode>
                <feMergeNode in="shadowMatrixInner2"></feMergeNode>
            </feMerge>
        </filter>
    </defs>
    <g id="seo-+-og" stroke="none" stroke-width="1" fill="none" fill-rule="evenodd">
        <g id="Sample-SEO:-og-image-+-title-+-description" transform="translate(-207.000000, -567.000000)">
            <g id="og-image-v11" transform="translate(207.000000, 567.000000)">
                <rect id="Rectangle" stroke="#979797" fill="#1B1B1B" x="0.5" y="0.5" width="2036" height="1169"></rect>
                <text id="UI-UX-DESIGNER-COPY" font-family="JosefinSans-Thin_Light, Josefin Sans" font-size="60" font-weight="300" fill="#FFFFFF">
                    <tspan x="1095.5" y="654">UI UX DESIGNER</tspan>
                    <tspan x="1095.5" y="714">COPY WRITER</tspan>
                    <tspan x="1095.5" y="774">CONTENT CREATOR</tspan>
                </text>
                <path d="M1100.05092,513.37605 L1155.05092,563.355924 L1155.05092,515.37605 L1170.05092,515.374868 L1170.05092,597.37605 L1115.05092,547.536576 L1115.05092,595.37605 L1100.05092,595.37605 L1100.05092,513.37605 Z M1502.05092,513.37605 C1525.24688,513.37605 1544.05092,532.180091 1544.05092,555.37605 C1544.05092,578.572009 1525.24688,597.37605 1502.05092,597.37605 C1478.85496,597.37605 1460.05092,578.572009 1460.05092,555.37605 C1460.05092,532.180091 1478.85496,513.37605 1502.05092,513.37605 Z M1232.75547,513.37605 L1253.05092,560.37605 L1273.34638,513.37605 L1290.05092,513.37605 L1253.05092,597.37605 L1216.05092,513.37605 L1232.75547,513.37605 Z M1394.05092,541.87605 C1394.05092,557.103475 1382.13836,566.813144 1371.22277,568.125137 L1399.96416,597.37605 L1381.69605,597.37605 L1353.05092,568.37605 L1353.05092,595.37605 L1338.05092,595.37605 L1338.05092,515.375455 L1368.05092,515.375455 C1379.04683,515.291555 1394.05092,524.207152 1394.05092,541.87605 Z M1457.05092,541.87605 C1457.05092,557.103475 1445.13836,566.813144 1434.22277,568.125137 L1462.96416,597.37605 L1444.69605,597.37605 L1416.05092,568.37605 L1416.05092,595.37605 L1401.05092,595.37605 L1401.05092,515.375455 L1431.05092,515.375455 C1442.04683,515.291555 1457.05092,524.207152 1457.05092,541.87605 Z M1207.05092,513.37605 L1242.05092,595.37605 L1225.83141,595.37605 L1222.83595,588.37605 L1191.25439,588.37605 L1188.27044,595.37605 L1172.05092,595.37605 L1207.05092,513.37605 Z M1299.05092,513.37605 L1334.05092,595.37605 L1317.83141,595.37605 L1314.83595,588.37605 L1283.25439,588.37605 L1280.27044,595.37605 L1264.05092,595.37605 L1299.05092,513.37605 Z M1502.05092,528.37605 C1487.13924,528.37605 1475.05092,540.464362 1475.05092,555.37605 C1475.05092,570.287738 1487.13924,582.37605 1502.05092,582.37605 C1516.96261,582.37605 1529.05092,570.287738 1529.05092,555.37605 C1529.05092,540.464362 1516.96261,528.37605 1502.05092,528.37605 Z M1207.05092,551.37605 L1196.81408,575.37605 L1217.30065,575.37605 L1207.05092,551.37605 Z M1299.05092,551.37605 L1288.81408,575.37605 L1309.30065,575.37605 L1299.05092,551.37605 Z M1426.05092,528.37605 L1416.05092,528.37605 L1416.05092,555.37605 L1426.05092,555.37605 C1437.38426,555.37605 1443.05092,550.87605 1443.05092,541.87605 C1443.05092,532.87605 1437.38426,528.37605 1426.05092,528.37605 Z M1363.05092,528.37605 L1353.05092,528.37605 L1353.05092,555.37605 L1363.05092,555.37605 C1374.38426,555.37605 1380.05092,550.87605 1380.05092,541.87605 C1380.05092,532.87605 1374.38426,528.37605 1363.05092,528.37605 Z M1245,420 L1245,502 L1230,502 L1230,468 L1205,504 L1180,468 L1180,502 L1165,502 L1165,420 L1205,478 L1245,420 Z M1440,448.5 C1440,463.727425 1428.08744,473.437094 1417.17185,474.749087 L1445.91324,504 L1427.64513,504 L1399,475 L1399,502 L1384,502 L1384,421.999405 L1414,421.999405 C1424.9959,421.915505 1440,430.831102 1440,448.5 Z M1158,422 L1158,435 L1115,435 L1115,455 L1150,455 L1150,468 L1115,468 L1115,489 L1158,489 L1158,502 L1100,502 L1100,422 L1158,422 Z M1290.40137,422 C1297.53871,422 1309.1612,428.5 1309,441.904768 C1308.89339,450.770406 1302.63118,456.689108 1299.27417,458.37605 C1303.12067,459.402413 1314.00039,466.09685 1314.00039,479.5 C1314.00039,492.018596 1303.82349,501.917891 1291.86298,502.000509 L1252,502 L1252,422 L1290.40137,422 Z M1377,422 L1377,435 L1334,435 L1334,455 L1369,455 L1369,468 L1334,468 L1334,489 L1377,489 L1377,502 L1319,502 L1319,422 L1377,422 Z M1283.3142,465 L1267,465 L1267,489 L1285.48868,489 C1294.49623,489 1299,485 1299,477 C1299,469 1293.7714,465 1283.3142,465 Z M1409,435 L1399,435 L1399,462 L1409,462 C1420.33333,462 1426,457.5 1426,448.5 C1426,439.5 1420.33333,435 1409,435 Z M1282.51028,435 L1267,435 L1267,455 L1280.28948,455 C1289.42983,455 1294,451.666667 1294,445 C1294,438.333333 1290.17009,435 1282.51028,435 Z" id="EN---desktop-orig-+" fill="#FFFFFF"></path>
                <g id="logo-v3-grad-+-red" transform="translate(327.000000, 348.000000)">
                    <mask id="mask-2" fill="white">
                        <use xlink:href="#path-1"></use>
                    </mask>
                    <g id="mask"></g>
                    <g id="skin" mask="url(#mask-2)">
                        <g transform="translate(443.596100, 116.933197)">
                            <path d="M80.2035793,177.167931 C83.7202988,180.01996 93.6723897,189.208407 111.707058,193.119783 C140.998248,250.67928 159.5092,239.598128 166.018534,250.413026 C167.926776,253.583464 181.965809,276.875069 138.353465,320.563342 C94.7411217,364.251614 52.1811294,377.601369 50.2248887,319.574997 C49.7738082,306.194963 59.1334779,305.037461 39.1985438,280.95523 C35.6219976,276.634613 27.4294334,263.775621 14.6208512,242.378253 C63.5025806,204.637896 76.6868599,174.315901 80.2035793,177.167931 Z" id="neck-copy" stroke="#A13B00" fill="url(#radialGradient-3)" transform="translate(92.147666, 267.666903) scale(-1, 1) rotate(10.000000) translate(-92.147666, -267.666903) "></path>
                            <path d="M207.533985,158.620286 C229.228217,157.660154 235.999481,140.9073 239.693558,121.612578 C241.068808,114.429441 245.819003,108.300659 244.977514,100.108976 C244.136025,91.9172941 229.740248,98.1529523 223.727482,114.926895 C220.095493,125.059132 218.278497,140.25378 218.198257,150.060877 C198.879222,134.55346 184.597545,73.8460286 202.121122,52.5062034 C184.880462,43.737283 155.071447,44.1934659 146.70696,16.4835221 C132.813674,27.5875154 97.0177576,39.4994208 67.2736468,17.1690917 C63.6063354,23.8455254 59.0962538,33.9046817 57.4565316,39.5865279 C55.2150652,47.3534947 50.4359723,44.4810451 46.993419,65.191728 C43.5508657,85.9024109 55.8395402,87.5675626 46.993419,101.20646 C38.1472978,114.845357 39.7155887,124.835982 37.566379,149.405874 C35.4171692,173.975767 40.5065136,184.847096 40.5065136,191.269063 C40.5065136,197.69103 36.4298525,206.388134 38.398295,217.280603 C40.3667375,228.173071 51.1590423,232.677352 65.7096529,234.541874 C80.2602634,236.406396 102.678292,243.078471 165.128826,217.280603 C182.393656,210.148625 189.979131,201.557399 187.885251,191.506923 C173.49144,165.015179 171.855096,146.52271 182.976219,136.029516 C192.763692,126.794669 208.54286,137.553399 209.770465,149.06925 C210.840998,159.111651 198.239638,156.016901 202.401503,151.002841 C195.262162,149.597176 195.080302,159.171454 207.533985,158.620286 Z" id="face-copy" stroke="url(#radialGradient-5)" fill="url(#radialGradient-4)" transform="translate(141.056857, 126.594774) scale(-1, 1) rotate(-10.000000) translate(-141.056857, -126.594774) "></path>
                        </g>
                    </g>
                    <g id="EN" mask="url(#mask-2)">
                        <use fill="#FFD037" fill-rule="evenodd" xlink:href="#path-6"></use>
                        <use fill="black" fill-opacity="1" filter="url(#filter-7)" xlink:href="#path-6"></use>
                    </g>
                    <g id="Combined-Shape" mask="url(#mask-2)">
                        <use fill="url(#radialGradient-8)" fill-rule="evenodd" xlink:href="#path-9"></use>
                        <use fill="black" fill-opacity="1" filter="url(#filter-10)" xlink:href="#path-9"></use>
                    </g>
                    <g id="face" mask="url(#mask-2)">
                        <g transform="translate(589.154547, 212.526795)">
                            <path d="M27.1493956,20.6025707 C38.6337021,20.6025707 45.1005442,26.1867618 45.1005442,18.4860447 C45.1005442,10.7853275 43.0391483,3.10151987 31.5548418,3.10151987 C20.0705353,3.10151987 1.44295384e-12,-4.16066115 1.44295384e-12,3.54005599 C1.44295384e-12,11.2407731 15.6650891,20.6025707 27.1493956,20.6025707 Z" id="Oval" fill="#000000"></path>
                            <path d="M68.8122528,65.6281818 C72.8027148,65.6281818 71.8651677,64.6993991 74.6679308,63.2501317 C77.4706938,61.8008644 74.3334791,61.0579248 70.343017,61.0579248 C66.352555,61.0579248 64.4557459,62.6398735 64.4557459,64.6508514 C64.4557459,66.6618293 64.8217907,65.6281818 68.8122528,65.6281818 Z" id="Oval-Copy-8" fill="#000000"></path>
                            <path d="M85.1481878,63.0031801 C86.1892141,62.3268553 85.7807992,61.972433 84.1251132,62.1851622 C82.4694272,62.3978913 82.7763402,63.2326706 83.165439,64.0241852 C83.5545378,64.8156998 84.1071615,63.6795049 85.1481878,63.0031801 Z" id="Oval-Copy-9" fill="#000000" transform="translate(84.288278, 63.208788) scale(-1, 1) translate(-84.288278, -63.208788) "></path>
                            <path d="M87.9346255,20.0046707 C90.3563628,20.0046707 91.7200491,24.0746748 91.7200491,18.4620535 C91.7200491,12.8494322 91.2853551,7.2491353 88.8636179,7.2491353 C86.4418807,7.2491353 82.2095344,1.95613842 82.2095344,7.56875971 C82.2095344,13.181381 85.5128883,20.0046707 87.9346255,20.0046707 Z" id="Oval-Copy-2" fill="#000000" transform="translate(86.964792, 13.209565) scale(-1, 1) translate(-86.964792, -13.209565) "></path>
                            <path d="M84.2596285,89.2790201 C79.841016,89.1811106 83.4743601,92.4680129 73.0857481,90.9779806 C66.8359593,90.0815771 56.9463611,94.2861689 48.7899013,96.8604124 C40.6334414,99.4346559 54.7553928,97.5529953 64.5741174,94.7224529 C75.1980136,91.6597955 71.9973083,96.3983778 80.6522621,93.2933376 C83.3163514,92.3375723 84.2596285,89.2790201 84.2596285,89.2790201 Z" id="Path-44" fill="#652323"></path>
                        </g>
                    </g>
                </g>
                <rect id="Rectangle" fill="#FFFFFF" x="1057" y="235" width="3" height="700"></rect>
            </g>
        </g>
    </g>
</svg>