<?xml version="1.0" encoding="UTF-8"?>
<svg width="192px" height="192px" viewBox="0 0 192 192" version="1.1" xmlns="http://www.w3.org/2000/svg" xmlns:xlink="http://www.w3.org/1999/xlink">
    <title>192</title>
    <defs>
        <filter x="-6.5%" y="-6.5%" width="112.9%" height="112.9%" filterUnits="objectBoundingBox" id="filter-1">
            <feOffset dx="0" dy="3" in="SourceAlpha" result="shadowOffsetOuter1"></feOffset>
            <feGaussianBlur stdDeviation="1.5" in="shadowOffsetOuter1" result="shadowBlurOuter1"></feGaussianBlur>
            <feColorMatrix values="0 0 0 0 0   0 0 0 0 0   0 0 0 0 0  0 0 0 0.8 0" type="matrix" in="shadowBlurOuter1" result="shadowMatrixOuter1"></feColorMatrix>
            <feMerge>
                <feMergeNode in="shadowMatrixOuter1"></feMergeNode>
                <feMergeNode in="SourceGraphic"></feMergeNode>
            </feMerge>
        </filter>
        <path d="M160.018827,47.8630095 C186.861167,34.8566263 201.143247,51.6131776 160.31921,90.1199325 C150.433755,99.4442619 124.870698,119.009152 121.111099,135.04721 C130.433492,128.880209 147.074195,120.838264 167.392575,119.704092 C200.720081,117.843749 183.760731,146.441661 153.493835,157.8328 C133.202899,165.469424 112.399153,163.079849 110.227463,153.20563 C99.1458116,164.44608 99.1458116,176.596858 101.305495,185.705705 C89.5595702,162.891159 105.609837,148.403185 108.925649,143.998854 C108.938,143.930108 108.951001,143.848755 108.964929,143.755212 L108.994099,143.551992 C109.360894,140.921244 110.366043,131.42735 115.799357,120.795649 C122.752569,107.189872 128.723529,101.167678 148.16286,81.0435995 C169.273444,59.1893979 144.972381,64.1652637 114.734091,98.3503968 C92.8800759,123.0569 86.610562,147.982948 87.6862504,115.347291 C88.0346409,104.777359 90.4924979,107.698381 97.8175841,95.9307026 C101.434643,90.1199325 93.1794345,99.1938838 77.4838973,115.347291 C57.8141828,135.590809 34.7148551,130.766811 30.8146989,112.744477 C25.8132111,89.6329698 57.5176212,70.647929 76.8271362,93.9960196 C77.1835574,94.4269861 75.4842324,97.6401444 73.674605,100.583672 L73.35451,101.099698 C71.6454535,103.830283 69.9400602,106.163005 69.8602594,105.553541 C69.3230183,101.450462 66.6867451,94.1340431 59.6082221,92.8870238 C46.0681863,90.5016835 41.1797149,107.349895 51.4596552,111.936639 C64.266079,117.650659 86.672489,92.3476047 95.0248031,83.0208636 C105.969329,70.7994893 111.201718,72.1564048 110.721971,87.0916101 C125.691648,69.6101319 142.123934,56.5339317 160.018827,47.8630095 Z M137.118844,137.042611 C128.675855,140.114219 123.897413,142.99953 121.111099,145.055007 C121.180089,154.754284 147.317429,146.321262 155.612239,141.221062 C174.945023,129.333982 154.620091,130.675555 137.118844,137.042611 Z" id="path-2"></path>
        <filter x="-1.0%" y="-1.1%" width="102.1%" height="102.3%" filterUnits="objectBoundingBox" id="filter-3">
            <feMorphology radius="1.7" operator="erode" in="SourceAlpha" result="shadowSpreadInner1"></feMorphology>
            <feOffset dx="0" dy="-1.5" in="shadowSpreadInner1" result="shadowOffsetInner1"></feOffset>
            <feComposite in="shadowOffsetInner1" in2="SourceAlpha" operator="arithmetic" k2="-1" k3="1" result="shadowInnerInner1"></feComposite>
            <feColorMatrix values="0 0 0 0 1   0 0 0 0 0.596969925   0 0 0 0 0  0 0 0 1 0" type="matrix" in="shadowInnerInner1"></feColorMatrix>
        </filter>
        <path d="M0.279643367,12.0319434 C2.95577151,-3.47058207 31.7387009,-3.5222573 43.2940925,9.17239978 C56.1904193,23.3401971 34.2490677,8.32995583 22.6755337,12.0319581 C10.4512068,15.942128 25.0744075,35.9103467 67.468284,43.8809932 C68.3721929,42.8808364 69.5723713,41.568346 71.0850991,40.0466641 L71.6009399,39.5318304 C78.6337587,32.5678498 91.8761254,21.6980648 112.757292,15.977471 C169.493702,0.433992686 139.910769,57.4229611 73.6040782,52.3072446 C69.9104538,57.318398 78.2476971,57.2441489 90.50428,58.6427826 C109.23244,60.7799065 101.317839,68.2747649 78.4544536,70.1466228 C10.7314085,75.6912049 8.90714316,130.779644 44.878689,133.25045 C56.2573847,134.032028 69.8257928,124.696677 70.3602381,112.620011 C70.6111141,106.951057 69.0410712,98.1820933 64.5904125,94.8106205 C51.1136875,84.601702 61.0342542,83.7691836 65.1215974,85.3376605 C99.0318958,98.3503968 81.4074865,160.904801 28.240734,148.978968 C-20.1798819,138.11774 -6.26497073,59.9365577 70.0191404,63.5688428 C61.4201162,62.3455442 59.6655174,55.6857357 62.8370141,50.978342 C44.2344193,48.6886121 -4.10316342,37.4223892 0.279643367,12.0319434 Z M115.585182,36.0320033 C125.003679,29.9373678 125.420471,22.8055787 106.048972,29.0132202 C95.6896728,32.3328814 84.141306,39.2018218 77.9902267,44.9936976 C81.6356239,45.0763398 102.124964,44.7420048 115.585182,36.0320033 Z" id="path-4"></path>
        <filter x="-1.1%" y="-1.1%" width="102.2%" height="102.1%" filterUnits="objectBoundingBox" id="filter-5">
            <feMorphology radius="1.7" operator="erode" in="SourceAlpha" result="shadowSpreadInner1"></feMorphology>
            <feOffset dx="0" dy="-1.5" in="shadowSpreadInner1" result="shadowOffsetInner1"></feOffset>
            <feComposite in="shadowOffsetInner1" in2="SourceAlpha" operator="arithmetic" k2="-1" k3="1" result="shadowInnerInner1"></feComposite>
            <feColorMatrix values="0 0 0 0 1   0 0 0 0 0.596969925   0 0 0 0 0  0 0 0 1 0" type="matrix" in="shadowInnerInner1"></feColorMatrix>
        </filter>
    </defs>
    <g id="192" stroke="none" stroke-width="1" fill="none" fill-rule="evenodd">
        <g id="EN-favicon" filter="url(#filter-1)" transform="translate(3.000000, 3.000000)">
            <g id="Combined-Shape">
                <use fill="#FFD037" fill-rule="evenodd" xlink:href="#path-2"></use>
                <use fill="black" fill-opacity="1" filter="url(#filter-3)" xlink:href="#path-2"></use>
            </g>
            <g id="Combined-Shape">
                <use fill="#FFD037" fill-rule="evenodd" xlink:href="#path-4"></use>
                <use fill="black" fill-opacity="1" filter="url(#filter-5)" xlink:href="#path-4"></use>
            </g>
            <path d="M58.6297887,89.6210147 C59.9410025,89.7822079 65.4918065,90.441893 68.3765798,95.1820085 C64.8595247,88.5308439 65.5066794,86.2844705 70.3180439,88.4428882 C68.0794105,86.7458209 65.6218384,85.5118049 62.9453278,84.7408401 C61.3597617,84.2841203 59.2457055,84.6855777 56.6031593,85.9452124 C54.9756377,88.0295741 55.6511809,89.2548415 58.6297887,89.6210147 Z" id="e-cover" fill="#FFD037"></path>
        </g>
    </g>
</svg>