<?xml version="1.0" encoding="UTF-8"?>
<svg width="512px" height="512px" viewBox="0 0 512 512" version="1.1" xmlns="http://www.w3.org/2000/svg" xmlns:xlink="http://www.w3.org/1999/xlink">
    <title>512</title>
    <defs>
        <filter x="-3.5%" y="-3.5%" width="107.0%" height="107.0%" filterUnits="objectBoundingBox" id="filter-1">
            <feOffset dx="0" dy="4" in="SourceAlpha" result="shadowOffsetOuter1"></feOffset>
            <feGaussianBlur stdDeviation="2.5" in="shadowOffsetOuter1" result="shadowBlurOuter1"></feGaussianBlur>
            <feColorMatrix values="0 0 0 0 0   0 0 0 0 0   0 0 0 0 0  0 0 0 0.8 0" type="matrix" in="shadowBlurOuter1" result="shadowMatrixOuter1"></feColorMatrix>
            <feMerge>
                <feMergeNode in="shadowMatrixOuter1"></feMergeNode>
                <feMergeNode in="SourceGraphic"></feMergeNode>
            </feMerge>
        </filter>
        <path d="M430.158137,128.664004 C502.314966,93.7006082 540.707654,138.745101 430.965617,242.257883 C404.391815,267.323285 335.67392,319.917074 325.56747,363.030134 C350.627668,346.452174 395.360738,324.834044 449.98004,321.785192 C539.570109,316.784271 493.980459,393.660378 412.617835,424.281722 C358.072308,444.810279 302.14826,438.386691 296.310386,411.843092 C266.520999,442.059355 266.520999,474.722738 272.326599,499.208885 C240.751533,437.87946 283.897412,398.933292 292.810885,387.093695 C293.663024,382.350412 295.668628,355.284038 311.288595,324.719488 C329.980025,288.144818 346.030993,271.956123 398.287258,217.859138 C455.03614,159.111285 389.710702,172.487268 308.424975,264.382787 C249.677623,330.798118 232.824091,397.803623 235.715727,310.073362 C236.65226,281.659568 243.259403,289.511777 262.950495,257.878233 C272.673773,242.257883 250.482351,266.650225 208.290046,310.073362 C155.41447,364.491422 93.3195029,351.523686 82.8352122,303.07655 C69.3903526,240.948844 154.617261,189.913788 206.52456,252.677472 C208.440803,254.994496 188.252248,287.227561 187.796396,283.746077 C186.3522,272.716296 179.265444,253.048503 160.237156,249.6963 C123.83921,243.284095 110.698158,288.574986 138.332406,300.904944 C172.758277,316.265213 232.990562,248.246249 255.443019,223.174365 C284.863787,190.321208 298.92935,193.96883 297.639707,234.117232 C337.880775,187.124011 382.053585,151.972935 430.158137,128.664004 Z M368.599044,368.394114 C345.902836,376.651128 333.057562,384.407339 325.56747,389.932814 C325.752926,416.00614 396.014594,393.336727 418.31247,379.626511 C470.282319,347.671994 415.645405,351.278373 368.599044,368.394114 Z" id="path-2"></path>
        <filter x="-1.0%" y="-1.0%" width="101.9%" height="102.1%" filterUnits="objectBoundingBox" id="filter-3">
            <feMorphology radius="4" operator="erode" in="SourceAlpha" result="shadowSpreadInner1"></feMorphology>
            <feOffset dx="0" dy="-4" in="shadowSpreadInner1" result="shadowOffsetInner1"></feOffset>
            <feComposite in="shadowOffsetInner1" in2="SourceAlpha" operator="arithmetic" k2="-1" k3="1" result="shadowInnerInner1"></feComposite>
            <feColorMatrix values="0 0 0 0 1   0 0 0 0 0.596969925   0 0 0 0 0  0 0 0 1 0" type="matrix" in="shadowInnerInner1"></feColorMatrix>
        </filter>
        <path d="M0.751729481,32.3439338 C7.94562235,-9.32952169 85.3190885,-9.46843359 116.381969,24.6569886 C151.049514,62.7424653 92.0673863,22.3923544 60.9557357,32.3439733 C28.0946421,42.8551829 67.4043212,96.53319 181.366355,117.959659 C194.865592,103.023029 232.94579,62.1726163 303.111,42.9501908 C455.628232,1.16664701 376.104219,154.362799 197.860425,140.610873 C187.931327,154.081715 210.343272,153.882121 243.291075,157.641889 C293.635592,163.386845 272.359781,183.534314 210.899069,188.56619 C28.8478722,203.470981 23.9439332,351.558183 120.641637,358.200136 C151.229529,360.301151 187.703744,335.206122 189.140425,302.741964 C189.814823,287.502843 185.594277,263.930358 173.630141,254.867259 C137.402386,227.42393 164.070576,225.185977 175.058058,229.402313 C266.214774,264.382787 218.837329,432.539788 75.9159515,400.481096 C-54.2469943,371.284248 -16.8413192,161.119779 188.223496,170.883986 C165.107839,167.595549 160.391176,149.692838 168.916705,137.038554 C118.909729,130.883366 -11.0300092,100.59782 0.751729481,32.3439338 Z M310.712855,96.860224 C336.031396,80.4767951 337.151804,61.3053192 285.077882,77.9925273 C257.230303,86.9163478 226.186306,105.381242 209.651147,120.9508 C219.450602,121.172957 274.529472,120.274206 310.712855,96.860224 Z" id="path-4"></path>
        <filter x="-1.0%" y="-1.0%" width="102.1%" height="102.0%" filterUnits="objectBoundingBox" id="filter-5">
            <feMorphology radius="4" operator="erode" in="SourceAlpha" result="shadowSpreadInner1"></feMorphology>
            <feOffset dx="0" dy="-4" in="shadowSpreadInner1" result="shadowOffsetInner1"></feOffset>
            <feComposite in="shadowOffsetInner1" in2="SourceAlpha" operator="arithmetic" k2="-1" k3="1" result="shadowInnerInner1"></feComposite>
            <feColorMatrix values="0 0 0 0 1   0 0 0 0 0.596969925   0 0 0 0 0  0 0 0 1 0" type="matrix" in="shadowInnerInner1"></feColorMatrix>
        </filter>
    </defs>
    <g id="512" stroke="none" stroke-width="1" fill="none" fill-rule="evenodd">
        <g id="EN-favicon-Copy" filter="url(#filter-1)" transform="translate(6.000000, 6.000000)">
            <g id="Combined-Shape">
                <use fill="#FFD037" fill-rule="evenodd" xlink:href="#path-2"></use>
                <use fill="black" fill-opacity="1" filter="url(#filter-3)" xlink:href="#path-2"></use>
            </g>
            <g id="Combined-Shape">
                <use fill="#FFD037" fill-rule="evenodd" xlink:href="#path-4"></use>
                <use fill="black" fill-opacity="1" filter="url(#filter-5)" xlink:href="#path-4"></use>
            </g>
            <path d="M156.822066,241.397678 C160.324638,241.920237 174.645966,241.920237 184.931357,258.820678 C175.476907,240.941203 176.842122,233.72036 189.027,237.158148 C183.009168,232.59614 176.402791,229.278892 169.20787,227.206406 C164.945596,225.978665 159.262649,227.057851 152.15903,230.443966 C146.968342,236.508233 148.522687,240.15947 156.822066,241.397678 Z" id="e-cover" fill="#FFD037"></path>
        </g>
    </g>
</svg>