<?xml version="1.0" encoding="UTF-8"?>
<svg width="180px" height="180px" viewBox="0 0 180 180" version="1.1" xmlns="http://www.w3.org/2000/svg" xmlns:xlink="http://www.w3.org/1999/xlink">
    <title>180</title>
    <defs>
        <filter x="-6.0%" y="-6.0%" width="112.1%" height="112.1%" filterUnits="objectBoundingBox" id="filter-1">
            <feOffset dx="0" dy="2" in="SourceAlpha" result="shadowOffsetOuter1"></feOffset>
            <feGaussianBlur stdDeviation="1.5" in="shadowOffsetOuter1" result="shadowBlurOuter1"></feGaussianBlur>
            <feColorMatrix values="0 0 0 0 0   0 0 0 0 0   0 0 0 0 0  0 0 0 0.8 0" type="matrix" in="shadowBlurOuter1" result="shadowMatrixOuter1"></feColorMatrix>
            <feMerge>
                <feMergeNode in="shadowMatrixOuter1"></feMergeNode>
                <feMergeNode in="SourceGraphic"></feMergeNode>
            </feMerge>
        </filter>
        <path d="M149.695032,44.7750734 C174.805608,32.6078117 188.166264,48.2832952 149.976035,84.3057433 C140.728351,93.0285031 116.814524,111.331142 113.297479,126.334487 C122.018428,120.565357 137.585537,113.042247 156.593054,111.981247 C187.770398,110.240926 171.9052,136.993812 143.591006,147.650039 C124.609163,154.793977 105.147594,152.558568 103.116014,143.321396 C92.7493076,153.836656 92.7493076,165.203513 94.7696565,173.724692 C83.7815334,152.382052 98.7962995,138.828786 101.898188,134.708606 C102.194732,133.057943 102.892683,123.638845 108.328431,113.002382 C114.833049,100.274397 120.418785,94.6407306 138.603966,75.8149802 C158.352577,55.3707271 135.619324,60.0255693 107.331891,92.0052099 C86.8878129,115.117745 81.0227838,138.435661 82.0290729,107.90553 C82.3549866,98.0175298 84.6542722,100.750099 91.5067722,89.741625 C94.8904729,84.3057433 87.1678581,92.7942784 72.4849362,107.90553 C54.0842355,126.843015 32.475187,122.330243 28.8266538,105.470639 C24.1478427,83.8501976 53.8068069,66.0899981 71.8705467,87.9317603 C72.5373993,88.7380847 65.5117823,99.9551911 65.3531459,98.7436348 C64.8505655,94.9052711 62.3843745,88.060879 55.7625304,86.8943126 C43.0960452,84.6628652 38.5229591,100.424095 48.1396774,104.71492 C60.1198803,110.060294 81.0807156,86.3896947 88.8941706,77.6646789 C99.1325979,66.2317803 104.027414,67.5011528 103.578618,81.4727966 C117.58251,65.1191557 132.954648,52.8865813 149.695032,44.7750734 Z M128.272467,128.201152 C120.374187,131.074592 115.904032,133.773754 113.297479,135.696619 C113.362018,144.770137 137.813079,136.881181 145.57274,132.110026 C163.658247,120.989854 144.644601,122.244874 128.272467,128.201152 Z" id="path-2"></path>
        <filter x="-1.0%" y="-1.1%" width="102.1%" height="102.3%" filterUnits="objectBoundingBox" id="filter-3">
            <feMorphology radius="1.5" operator="erode" in="SourceAlpha" result="shadowSpreadInner1"></feMorphology>
            <feOffset dx="0" dy="-1.5" in="shadowSpreadInner1" result="shadowOffsetInner1"></feOffset>
            <feComposite in="shadowOffsetInner1" in2="SourceAlpha" operator="arithmetic" k2="-1" k3="1" result="shadowInnerInner1"></feComposite>
            <feColorMatrix values="0 0 0 0 1   0 0 0 0 0.596969925   0 0 0 0 0  0 0 0 1 0" type="matrix" in="shadowInnerInner1"></feColorMatrix>
        </filter>
        <path d="M0.26160186,11.255689 C2.76507658,-3.24667355 29.6910428,-3.29501489 40.5009253,8.58063205 C52.565231,21.8343779 32.0394504,7.79253933 21.212596,11.2557027 C9.77693544,14.9136036 23.4567038,33.5935501 63.1154914,41.0499614 C67.8132262,35.8520141 81.0651349,21.6360705 105.482628,14.9466664 C158.558625,0.405993158 130.884268,53.7182539 68.855428,48.9325836 C65.400102,53.6204368 73.1994586,53.550978 84.6652942,54.8593773 C102.185186,56.8586222 94.7812038,63.8699414 73.3928759,65.6210342 C10.0390595,70.8079014 8.33248877,122.342248 41.9832897,124.653647 C52.627876,125.3848 65.3209029,116.65173 65.8208679,105.354204 C66.0555583,100.050989 64.5868085,91.8477647 60.4232892,88.6938063 C47.8160302,79.1435277 57.0965603,78.3647201 60.9202041,79.832005 C92.6427413,92.0052099 76.1553906,150.523846 26.4187511,139.367421 C-18.877954,129.206918 -5.86077907,56.069683 65.5017765,59.4676272 C57.4575281,58.3232511 55.8161292,52.0931076 58.7830132,47.6894167 C41.3805858,45.5474113 -3.8384432,35.0080415 0.26160186,11.255689 Z M108.128074,33.7073579 C116.938926,28.0059247 117.328828,21.3342511 99.2071028,27.1413995 C89.5161455,30.246889 78.7128346,36.672672 72.9585992,42.0908784 C73.130832,42.0947829 73.3432578,42.0976925 73.5929995,42.098648 L74.0822141,42.0980502 C79.4236401,42.0664769 96.5537769,41.1969943 108.128074,33.7073579 Z" id="path-4"></path>
        <filter x="-1.1%" y="-1.1%" width="102.2%" height="102.1%" filterUnits="objectBoundingBox" id="filter-5">
            <feMorphology radius="1.5" operator="erode" in="SourceAlpha" result="shadowSpreadInner1"></feMorphology>
            <feOffset dx="0" dy="-1.5" in="shadowSpreadInner1" result="shadowOffsetInner1"></feOffset>
            <feComposite in="shadowOffsetInner1" in2="SourceAlpha" operator="arithmetic" k2="-1" k3="1" result="shadowInnerInner1"></feComposite>
            <feColorMatrix values="0 0 0 0 1   0 0 0 0 0.596969925   0 0 0 0 0  0 0 0 1 0" type="matrix" in="shadowInnerInner1"></feColorMatrix>
        </filter>
    </defs>
    <g id="180" stroke="none" stroke-width="1" fill="none" fill-rule="evenodd">
        <g id="EN-favicon" filter="url(#filter-1)" transform="translate(3.000000, 3.000000)">
            <g id="Combined-Shape">
                <use fill="#FFD037" fill-rule="evenodd" xlink:href="#path-2"></use>
                <use fill="black" fill-opacity="1" filter="url(#filter-3)" xlink:href="#path-2"></use>
            </g>
            <g id="Combined-Shape">
                <use fill="#FFD037" fill-rule="evenodd" xlink:href="#path-4"></use>
                <use fill="black" fill-opacity="1" filter="url(#filter-5)" xlink:href="#path-4"></use>
            </g>
            <path d="M55.0493675,83.8719396 C56.0723801,84.0005536 60.9787993,84.4920754 63.9651876,89.1036965 C60.6750392,82.8816393 61.280442,80.7593723 65.7813959,82.7368954 C63.6871904,81.1493164 61.3881714,79.9949143 58.8843389,79.2736892 C57.4010674,78.8464351 55.423402,79.221992 52.9513425,80.40036 C51.2714548,82.3277059 51.9707965,83.484899 55.0493675,83.8719396 Z" id="e-cover" fill="#FFD037"></path>
        </g>
    </g>
</svg>