<?xml version="1.0" encoding="UTF-8"?>
<svg width="32px" height="32px" viewBox="0 0 32 32" version="1.1" xmlns="http://www.w3.org/2000/svg" xmlns:xlink="http://www.w3.org/1999/xlink">
    <title>32</title>
    <defs>
        <filter x="-8.3%" y="-8.3%" width="116.7%" height="116.7%" filterUnits="objectBoundingBox" id="filter-1">
            <feOffset dx="0" dy="0.5" in="SourceAlpha" result="shadowOffsetOuter1"></feOffset>
            <feGaussianBlur stdDeviation="0.25" in="shadowOffsetOuter1" result="shadowBlurOuter1"></feGaussianBlur>
            <feColorMatrix values="0 0 0 0 0   0 0 0 0 0   0 0 0 0 0  0 0 0 0.8 0" type="matrix" in="shadowBlurOuter1" result="shadowMatrixOuter1"></feColorMatrix>
            <feMerge>
                <feMergeNode in="shadowMatrixOuter1"></feMergeNode>
                <feMergeNode in="SourceGraphic"></feMergeNode>
            </feMerge>
        </filter>
        <path d="M25.8094882,7.71984025 C30.138898,5.62203649 32.4424592,8.32470607 25.857937,14.535473 C24.2635089,16.0393971 20.1404352,19.1950244 19.5340482,21.781808 C21.0376601,20.7871304 23.7216443,19.4900426 26.9988024,19.3071115 C32.3742066,19.0070563 29.6388275,23.6196227 24.7570701,25.4569033 C21.4843385,26.6886167 18.1288956,26.3032014 17.7786231,24.7105855 C15.9912599,26.5235613 15.9912599,28.4833643 16.3395959,29.9525331 C14.445092,26.2727676 17.0338447,23.9359975 17.5686531,23.2256217 C17.6197814,22.9410247 17.7401177,21.3170423 18.6773157,19.4831693 C19.7988015,17.2886891 20.7618596,16.3173674 23.8972355,13.0715483 C27.3021684,9.54667709 23.3826421,10.3492361 18.5054985,15.8629672 C14.9806574,19.8478871 13.9694455,23.8682174 14.1429436,18.6044017 C14.1991356,16.8995741 14.5955642,17.3707066 15.7770297,15.472694 C16.3604264,14.535473 15.0289411,15.9990135 12.4974028,18.6044017 C9.32486819,21.8694853 5.59917018,21.0914211 4.97011273,18.184593 C4.16342115,14.4569306 9.27703567,11.3948273 12.3914736,15.1606483 C12.5064482,15.2996698 11.2951349,17.2336536 11.2677838,17.0247646 C11.181132,16.3629778 10.7559266,15.1829102 9.61422938,14.981778 C7.43035263,14.5970457 6.6418895,17.3144992 8.29994438,18.0542966 C10.3654966,18.9759128 13.9794337,14.894775 15.3265811,13.3904619 C17.0918272,11.4192725 17.935761,11.6381298 17.8583824,14.0470339 C20.2728465,11.2274406 22.9232151,9.11837608 25.8094882,7.71984025 Z M22.1159426,22.1036469 C20.7541701,22.5990677 19.9834537,23.0644403 19.5340482,23.3959688 C19.5451756,24.9603684 23.7608757,23.6002036 25.0987482,22.7775907 C28.2169391,20.8603197 24.9387243,21.0767024 22.1159426,22.1036469 Z" id="path-2"></path>
        <filter x="-1.0%" y="-1.1%" width="102.0%" height="102.2%" filterUnits="objectBoundingBox" id="filter-3">
            <feMorphology radius="0.25" operator="erode" in="SourceAlpha" result="shadowSpreadInner1"></feMorphology>
            <feOffset dx="0" dy="-0.25" in="shadowSpreadInner1" result="shadowOffsetInner1"></feOffset>
            <feComposite in="shadowOffsetInner1" in2="SourceAlpha" operator="arithmetic" k2="-1" k3="1" result="shadowInnerInner1"></feComposite>
            <feColorMatrix values="0 0 0 0 1   0 0 0 0 0.596969925   0 0 0 0 0  0 0 0 1 0" type="matrix" in="shadowInnerInner1"></feColorMatrix>
        </filter>
        <path d="M0.0451037689,1.94063603 C0.476737341,-0.559771301 5.11914531,-0.568106015 6.98291815,1.47941932 C9.06297086,3.76454792 5.52404318,1.34354126 3.65734414,1.9406384 C1.68567852,2.57131097 4.04425927,5.7919914 10.8819813,7.07757955 C11.6919355,6.18138174 13.9767474,3.73035698 18.18666,2.57701145 C27.3376939,0.0699988203 22.5662531,9.26176791 11.8716255,8.43665235 C11.2758796,9.2449029 12.6205963,9.23292724 14.5974645,9.45851332 C17.6181355,9.80321073 16.3415869,11.0120589 12.6539441,11.3139714 C1.73087233,12.2082589 1.43663599,21.093491 7.23849823,21.4920081 C9.07377172,21.618069 11.2622246,20.1123673 11.3484255,18.1645179 C11.3888894,17.2501706 11.1356566,15.8358215 10.4178085,15.2920356 C8.24414314,13.6454358 9.84423454,13.5111586 10.5034835,13.7641388 C15.9728864,15.8629672 13.1302398,25.9523873 4.55495709,24.0288658 C-3.25481966,22.2770549 -1.01047915,9.66718673 11.2934097,10.2530392 C9.90647036,10.0557329 9.62347055,8.98157028 10.1350023,8.22231322 C7.13458376,7.85300195 -0.661800551,6.03586923 0.0451037689,1.94063603 Z M18.6427713,5.81161344 C20.1618838,4.8286077 20.2291082,3.67831915 17.1046729,4.67955164 C15.4338182,5.21498087 13.5711784,6.32287449 12.5790688,7.25704799 C13.1670361,7.27037739 16.4717683,7.21645239 18.6427713,5.81161344 Z" id="path-4"></path>
        <filter x="-1.1%" y="-1.0%" width="102.2%" height="102.1%" filterUnits="objectBoundingBox" id="filter-5">
            <feMorphology radius="0.25" operator="erode" in="SourceAlpha" result="shadowSpreadInner1"></feMorphology>
            <feOffset dx="0" dy="-0.25" in="shadowSpreadInner1" result="shadowOffsetInner1"></feOffset>
            <feComposite in="shadowOffsetInner1" in2="SourceAlpha" operator="arithmetic" k2="-1" k3="1" result="shadowInnerInner1"></feComposite>
            <feColorMatrix values="0 0 0 0 1   0 0 0 0 0.596969925   0 0 0 0 0  0 0 0 1 0" type="matrix" in="shadowInnerInner1"></feColorMatrix>
        </filter>
    </defs>
    <g id="32" stroke="none" stroke-width="1" fill="none" fill-rule="evenodd">
        <g id="EN-favicon" filter="url(#filter-1)" transform="translate(1.000000, 1.000000)">
            <g id="Combined-Shape">
                <use fill="#FFD037" fill-rule="evenodd" xlink:href="#path-2"></use>
                <use fill="black" fill-opacity="1" filter="url(#filter-3)" xlink:href="#path-2"></use>
            </g>
            <g id="Combined-Shape">
                <use fill="#FFD037" fill-rule="evenodd" xlink:href="#path-4"></use>
                <use fill="black" fill-opacity="1" filter="url(#filter-5)" xlink:href="#path-4"></use>
            </g>
            <path d="M9.41589162,14.4826886 C9.87172483,14.53399 10.6159855,14.6867399 11.1407612,15.6012592 C10.5734943,14.5284907 10.7194355,14.1360517 11.5785848,14.4239423 C11.0805473,14.0245689 10.615681,13.7627076 10.1839857,13.6383584 C9.92824927,13.564694 9.57676797,13.6392848 9.12954182,13.862131 C8.85039095,14.2229346 8.94584088,14.4297871 9.41589162,14.4826886 Z" id="e-cover" fill="#FFD037"></path>
        </g>
    </g>
</svg>