<?xml version="1.0" encoding="UTF-8"?>
<svg width="16px" height="16px" viewBox="0 0 16 16" version="1.1" xmlns="http://www.w3.org/2000/svg" xmlns:xlink="http://www.w3.org/1999/xlink">
    <title>16</title>
    <defs>
        <filter x="-8.3%" y="-8.3%" width="116.7%" height="116.7%" filterUnits="objectBoundingBox" id="filter-1">
            <feOffset dx="0" dy="0.2" in="SourceAlpha" result="shadowOffsetOuter1"></feOffset>
            <feGaussianBlur stdDeviation="0.15" in="shadowOffsetOuter1" result="shadowBlurOuter1"></feGaussianBlur>
            <feColorMatrix values="0 0 0 0 0   0 0 0 0 0   0 0 0 0 0  0 0 0 0.8 0" type="matrix" in="shadowBlurOuter1" result="shadowMatrixOuter1"></feColorMatrix>
            <feMerge>
                <feMergeNode in="shadowMatrixOuter1"></feMergeNode>
                <feMergeNode in="SourceGraphic"></feMergeNode>
            </feMerge>
        </filter>
        <path d="M12.9047441,3.85992012 C15.069449,2.81101825 16.2212296,4.16235303 12.9289685,7.26773649 C12.1317544,8.01969854 10.0702176,9.59751222 9.76702409,10.890904 C10.51883,10.3935652 11.8608222,9.74502132 13.4994012,9.65355577 C16.1871033,9.50352813 14.8194138,11.8098113 12.378535,12.7284516 C10.7421692,13.3443084 9.06444779,13.1516007 8.88931157,12.3552928 C7.99562997,13.2617807 7.99562997,14.2416821 8.16979797,14.9762665 C7.22254599,13.1363838 8.51692237,11.9679988 8.78432654,11.6128108 C8.80989071,11.4705124 8.87005884,10.6585211 9.33865786,9.74158463 C9.89940075,8.64434455 10.3809298,8.15868368 11.9486177,6.53577415 C13.6510842,4.77333854 11.691321,5.17461804 9.25274925,7.93148362 C7.4903287,9.92394353 6.98472274,11.9341087 7.07147181,9.30220085 C7.09956781,8.44978705 7.29778209,8.68535332 7.88851485,7.73634698 C8.02896219,7.51071971 7.94745134,7.56337 7.6838766,7.82403841 L7.54944437,7.95886159 C7.25530576,8.25702562 6.81126545,8.7232257 6.24870139,9.30220085 C4.66243409,10.9347427 2.79958509,10.5457106 2.48505637,9.09229651 C2.08171058,7.22846531 4.63851784,5.69741363 6.19573679,7.58032416 C6.25322408,7.64983489 5.64756744,8.61682682 5.63389188,8.51238231 C5.59056599,8.18148889 5.37796332,7.59145509 4.80711469,7.49088901 C3.71517631,7.29852286 3.32094475,8.65724959 4.14997219,9.02714831 C5.1827483,9.4879564 6.98971686,7.44738748 7.66329057,6.69523094 C8.54591361,5.70963623 8.96788049,5.8190649 8.9291912,7.02351695 C10.1364232,5.61372032 11.4616075,4.55918804 12.9047441,3.85992012 Z M11.0579713,11.0518234 C10.3770851,11.2995338 9.99172687,11.5322202 9.76702409,11.6979844 C9.77258778,12.4801842 11.8804378,11.8001018 12.5493741,11.3887953 C14.1084696,10.4301598 12.4693621,10.5383512 11.0579713,11.0518234 Z" id="path-2"></path>
        <filter x="-1.2%" y="-1.3%" width="102.4%" height="102.6%" filterUnits="objectBoundingBox" id="filter-3">
            <feMorphology radius="0.15" operator="erode" in="SourceAlpha" result="shadowSpreadInner1"></feMorphology>
            <feOffset dx="0" dy="-0.15" in="shadowSpreadInner1" result="shadowOffsetInner1"></feOffset>
            <feComposite in="shadowOffsetInner1" in2="SourceAlpha" operator="arithmetic" k2="-1" k3="1" result="shadowInnerInner1"></feComposite>
            <feColorMatrix values="0 0 0 0 1   0 0 0 0 0.596969925   0 0 0 0 0  0 0 0 1 0" type="matrix" in="shadowInnerInner1"></feColorMatrix>
        </filter>
        <path d="M0.0225518845,0.970318013 C0.23836867,-0.279885651 2.55957266,-0.284053008 3.49145908,0.739709659 C4.53148543,1.88227396 2.76202159,0.671770632 1.82867207,0.970319199 C0.842839262,1.28565549 2.02212964,2.8959957 5.44099064,3.53878977 C5.84596777,3.09069087 6.9883737,1.86517849 9.09332999,1.28850573 C13.668847,0.0349994102 11.2831266,4.63088396 5.93581276,4.21832618 C5.63793982,4.62245145 6.31029815,4.61646362 7.29873226,4.72925666 C8.80906776,4.90160536 8.17079343,5.50602943 6.32697206,5.65698571 C0.865436167,6.10412943 0.718317997,10.5467455 3.61924912,10.7460041 C4.53688586,10.8090345 5.63111232,10.0561837 5.67421275,9.08225893 C5.69444468,8.62508528 5.56782832,7.91791075 5.20890424,7.64601778 C4.12207157,6.82271791 4.92211727,6.75557932 5.25174173,6.8820694 C7.98644321,7.93148362 6.56511988,12.9761936 2.27747855,12.0144329 C-1.62740983,11.1385274 -0.505239575,4.83359337 5.64670487,5.12651958 C4.95323518,5.02786647 4.81173527,4.49078514 5.06750114,4.11115661 C3.56729188,3.92650097 -0.330900275,3.01793461 0.0225518845,0.970318013 Z M9.32138565,2.90580672 C10.0809419,2.41430385 10.1145541,1.83915957 8.55233645,2.33977582 C7.71690909,2.60749044 6.78558919,3.16143725 6.28953441,3.628524 C6.58351805,3.6351887 8.23588417,3.60822619 9.32138565,2.90580672 Z" id="path-4"></path>
        <filter x="-1.3%" y="-1.2%" width="102.6%" height="102.5%" filterUnits="objectBoundingBox" id="filter-5">
            <feMorphology radius="0.15" operator="erode" in="SourceAlpha" result="shadowSpreadInner1"></feMorphology>
            <feOffset dx="0" dy="-0.15" in="shadowSpreadInner1" result="shadowOffsetInner1"></feOffset>
            <feComposite in="shadowOffsetInner1" in2="SourceAlpha" operator="arithmetic" k2="-1" k3="1" result="shadowInnerInner1"></feComposite>
            <feColorMatrix values="0 0 0 0 1   0 0 0 0 0.596969925   0 0 0 0 0  0 0 0 1 0" type="matrix" in="shadowInnerInner1"></feColorMatrix>
        </filter>
    </defs>
    <g id="16" stroke="none" stroke-width="1" fill="none" fill-rule="evenodd">
        <g id="EN-favicon" filter="url(#filter-1)" transform="translate(0.500000, 0.500000)">
            <g id="Combined-Shape">
                <use fill="#FFD037" fill-rule="evenodd" xlink:href="#path-2"></use>
                <use fill="black" fill-opacity="1" filter="url(#filter-3)" xlink:href="#path-2"></use>
            </g>
            <g id="Combined-Shape">
                <use fill="#FFD037" fill-rule="evenodd" xlink:href="#path-4"></use>
                <use fill="black" fill-opacity="1" filter="url(#filter-5)" xlink:href="#path-4"></use>
            </g>
            <path d="M4.64548185,7.19037384 C4.74799262,7.19397529 5.23378619,7.16977783 5.58995157,7.75501102 C5.3063181,7.21862678 5.33830448,7.01603544 5.68591073,7.14723699 C5.49553856,6.98330976 5.28351709,6.87038563 5.04984632,6.8084646 C4.92056,6.77420468 4.7588682,6.81507165 4.56477091,6.93106552 C4.22775234,7.09020706 4.25465599,7.17664316 4.64548185,7.19037384 Z" id="e-cover" fill="#FFD037"></path>
        </g>
    </g>
</svg>