<?xml version="1.0" encoding="UTF-8"?>
<svg width="150px" height="150px" viewBox="0 0 150 150" version="1.1" xmlns="http://www.w3.org/2000/svg" xmlns:xlink="http://www.w3.org/1999/xlink">
    <title>150</title>
    <defs>
        <filter x="-4.5%" y="-4.5%" width="109.0%" height="109.0%" filterUnits="objectBoundingBox" id="filter-1">
            <feOffset dx="0" dy="1.2" in="SourceAlpha" result="shadowOffsetOuter1"></feOffset>
            <feGaussianBlur stdDeviation="1" in="shadowOffsetOuter1" result="shadowBlurOuter1"></feGaussianBlur>
            <feColorMatrix values="0 0 0 0 0   0 0 0 0 0   0 0 0 0 0  0 0 0 0.8 0" type="matrix" in="shadowBlurOuter1" result="shadowMatrixOuter1"></feColorMatrix>
            <feMerge>
                <feMergeNode in="shadowMatrixOuter1"></feMergeNode>
                <feMergeNode in="SourceGraphic"></feMergeNode>
            </feMerge>
        </filter>
        <path d="M125.606176,37.5698892 C146.67597,27.3605776 157.886635,40.5135695 125.84196,70.7393018 C118.08241,78.0583992 98.0167846,93.4157856 95.0657011,106.004799 C102.383279,101.164035 115.445336,94.8515408 131.394172,93.9612761 C157.554472,92.5010071 144.242294,114.94883 120.484408,123.890263 C104.557114,129.884601 88.2272918,128.008914 86.5226326,120.258183 C77.8241317,129.081332 77.8241317,138.619039 79.5193669,145.768994 C70.2994476,127.860802 82.8980444,116.488521 85.5007783,113.031359 C85.7496029,111.64632 86.3352394,103.742939 90.8962698,94.8180904 C96.3541673,84.138287 101.04105,79.4111878 116.299879,63.6148684 C132.870553,46.4604952 113.795525,50.3662823 90.0600927,77.1997739 C72.905866,96.5930504 67.9846347,116.158658 68.8289922,90.5414216 C69.10246,82.244594 71.0317457,84.537439 76.7815445,75.300444 C79.6207416,70.7393018 73.1408465,77.8618658 60.8206936,90.5414216 C45.3810252,106.431495 27.2492949,102.644916 24.187882,88.4983527 C20.2619829,70.3570624 45.1482403,55.454826 60.3051714,73.7818218 C60.580201,74.1143737 59.2958168,76.5573944 57.9027487,78.8351204 L57.6134528,79.3032691 C56.2606096,81.4699889 54.8997179,83.3363055 54.8365477,82.8538545 C54.4148423,79.6331585 52.3455096,73.8901629 46.7892496,72.9113197 C36.1610494,71.0389558 32.3238622,84.263896 40.3930627,87.8642435 C50.4454168,92.3494423 68.0332441,72.4879048 74.5893616,65.1669145 C83.1802258,55.5737926 87.2873701,56.6388984 86.9107944,68.3622316 C98.6611862,54.6402111 111.559647,44.3760969 125.606176,37.5698892 Z M107.630921,107.571081 C101.003628,109.982129 97.2528082,112.246943 95.0657011,113.860382 C95.1198544,121.473793 115.636262,114.854324 122.147241,110.850941 C137.322437,101.520222 121.368458,102.573285 107.630921,107.571081 Z" id="path-2"></path>
        <filter x="-1.1%" y="-1.3%" width="102.3%" height="102.5%" filterUnits="objectBoundingBox" id="filter-3">
            <feMorphology radius="1.3" operator="erode" in="SourceAlpha" result="shadowSpreadInner1"></feMorphology>
            <feOffset dx="0" dy="-1.5" in="shadowSpreadInner1" result="shadowOffsetInner1"></feOffset>
            <feComposite in="shadowOffsetInner1" in2="SourceAlpha" operator="arithmetic" k2="-1" k3="1" result="shadowInnerInner1"></feComposite>
            <feColorMatrix values="0 0 0 0 1   0 0 0 0 0.596969925   0 0 0 0 0  0 0 0 1 0" type="matrix" in="shadowInnerInner1"></feColorMatrix>
        </filter>
        <path d="M0.219505009,9.44442866 C2.32012172,-2.72422033 24.9131739,-2.76478261 33.983535,7.19984068 C44.1064582,18.3207999 26.8836768,6.53856748 17.7990748,9.4444402 C8.20363548,12.5137134 19.6820618,28.1876915 52.9589756,34.4442205 C56.900753,30.0827244 68.0201706,18.154404 88.5084119,12.5414557 C133.043444,0.340660926 109.822432,45.0739372 57.7752442,41.0583748 C54.8759476,44.9918608 61.4202353,44.9335792 71.040994,46.0314315 C85.7415928,47.7089589 79.5290561,53.5920198 61.5825281,55.0613276 C8.42357869,59.4135265 6.9916285,102.654989 35.2273581,104.59444 C44.1590224,105.207936 54.8094932,97.8801876 55.2290041,88.4006536 C55.4259283,83.95083 54.193529,77.0676646 50.7000012,74.4212398 C40.1214966,66.4077876 47.9086081,65.7543054 51.1169528,66.9854755 C77.7347139,77.1997739 63.9005001,126.301618 22.1674578,116.94048 C-15.8401223,108.415 -4.91766519,47.0469754 54.9612607,49.8981239 C48.2114891,48.9379003 46.8342233,43.7103087 49.3236777,40.0152577 C34.721641,38.2179428 -3.22076268,29.3745636 0.219505009,9.44442866 Z M90.7281537,28.2831854 C98.1211677,23.4992242 98.4483267,17.9011532 83.2427414,22.773818 C75.1112485,25.3795736 66.0464015,30.7713225 61.218135,35.3176336 C64.0795757,35.3825033 80.1626059,35.1200683 90.7281537,28.2831854 Z" id="path-4"></path>
        <filter x="-1.2%" y="-1.2%" width="102.5%" height="102.4%" filterUnits="objectBoundingBox" id="filter-5">
            <feMorphology radius="1.3" operator="erode" in="SourceAlpha" result="shadowSpreadInner1"></feMorphology>
            <feOffset dx="0" dy="-1.5" in="shadowSpreadInner1" result="shadowOffsetInner1"></feOffset>
            <feComposite in="shadowOffsetInner1" in2="SourceAlpha" operator="arithmetic" k2="-1" k3="1" result="shadowInnerInner1"></feComposite>
            <feColorMatrix values="0 0 0 0 1   0 0 0 0 0.596969925   0 0 0 0 0  0 0 0 1 0" type="matrix" in="shadowInnerInner1"></feColorMatrix>
        </filter>
    </defs>
    <g id="150" stroke="none" stroke-width="1" fill="none" fill-rule="evenodd">
        <g id="EN-favicon" filter="url(#filter-1)" transform="translate(2.000000, 2.000000)">
            <g id="Combined-Shape">
                <use fill="#FFD037" fill-rule="evenodd" xlink:href="#path-2"></use>
                <use fill="black" fill-opacity="1" filter="url(#filter-3)" xlink:href="#path-2"></use>
            </g>
            <g id="Combined-Shape">
                <use fill="#FFD037" fill-rule="evenodd" xlink:href="#path-4"></use>
                <use fill="black" fill-opacity="1" filter="url(#filter-5)" xlink:href="#path-4"></use>
            </g>
            <path d="M45.3279251,70.0258368 C47.2675472,70.1000914 51.3735672,70.3400029 54.1388169,75.2192945 C51.3781177,69.9984879 51.7082281,68.1447634 55.1291481,69.6581209 C53.4164318,68.1692086 51.5096151,67.1221695 49.4086981,66.5170035 C48.164114,66.158503 46.5046936,66.4736255 44.4304368,67.4623711 C42.7606964,69.0845198 43.0598592,69.9390083 45.3279251,70.0258368 Z" id="e-cover" fill="#FFD037"></path>
        </g>
    </g>
</svg>